<?xml version="1.0" standalone="no"?>
<!DOCTYPE svg PUBLIC "-//W3C//DTD SVG 1.1//EN" "http://www.w3.org/Graphics/SVG/1.1/DTD/svg11.dtd" >
<svg xmlns="http://www.w3.org/2000/svg">
<metadata>
Created by FontPrep 20130207 at Tue Jul 19 17:55:26 2016
 By Guille Cura
(c) 2012, 2013, 2014, 2015 by Stawix Ruecha &#38; Foundry. All rights reserved.
</metadata>
<defs>
<font id="3bf8dc9f05858e14a51c2ebe4237e2c2" horiz-adv-x='1024' >
  <font-face 
    font-family="AmsiPro-BlackItalic"
    font-weight="400"
    font-style="italic"
    font-stretch="normal"
    units-per-em="2048"
    panose-1="2 11 10 6 2 2 1 1 1 4"
    ascent="1749"
    descent="-299"
    x-height="1090"
    cap-height="1446"
    bbox="-524.8 -612.029 2793.01 2134"
    underline-thickness="112"
    underline-position="-94"
    slope="-10"
    unicode-range="U+0020-FB4E"
  />
<missing-glyph horiz-adv-x="1007" 
d="M504 616l-342 -516h684zM504 797l344 516h-686zM100 1223v-1030l344 514zM907 193v1030l-344 -516zM0 1413h1008v-1413h-1008v1413z" />
    <glyph glyph-name="f_f" unicode="ff" horiz-adv-x="1458" 
d="M1462 1059q61 0 49 -58l-22 -133q-8 -55 -66 -55h-184l-135 -762q-8 -51 -64 -51h-213q-59 0 -51 51l135 762h-340l-135 -762q-8 -51 -63 -51h-213q-59 0 -51 51l133 762h-90q-55 0 -48 55l23 133q12 57 63 58h95l16 90q29 159 119 237t258 78q119 0 172 -18
q55 -14 49 -55l-20 -105q-8 -55 -54 -51q-61 8 -86 8q-94 0 -110 -106l-15 -78h338l15 78q31 171 126 249t271 78q123 0 180 -18q49 -12 41 -57l-22 -121q-10 -59 -58 -56q-61 8 -102 8q-94 1 -113 -108l-8 -53h180z" />
    <glyph glyph-name="fi" unicode="fi" horiz-adv-x="1312" 
d="M1038 1204q-59 0 -47 56l23 131q10 55 63 55h217q62 0 52 -55l-25 -131q-10 -55 -64 -56h-219zM1047 0h-222q-57 0 -49 57l135 756h-340l-135 -762q-8 -51 -63 -51h-213q-59 0 -51 51l133 762h-90q-55 0 -48 55l23 133q12 57 63 58h95l16 86q55 319 379 319
q111 0 170 -18q55 -14 49 -55l-20 -105q-8 -55 -56 -51l-86 8q-92 0 -110 -108l-15 -76h617q61 -1 49 -58l-168 -944q-8 -57 -63 -57z" />
    <glyph glyph-name="fl" unicode="fl" horiz-adv-x="1310" 
d="M1047 0h-222q-57 0 -49 57l205 1162q-57 12 -153 12t-146 -31t-61 -100l-9 -41h113q61 0 49 -58l-22 -133q-8 -55 -64 -55h-117l-135 -762q-8 -51 -63 -51h-213q-59 0 -51 51l133 762h-90q-55 0 -48 55l23 133q12 57 63 58h95l8 39q25 135 86 214q61 78 180 116t274 38
t279 -15t168 -29q43 -14 53 -27q10 -12 6 -41l-229 -1297q-8 -57 -63 -57z" />
    <glyph glyph-name="f_f_i" unicode="ffi" horiz-adv-x="1980" 
d="M1706 1204q-59 0 -49 56l22 131q12 55 64 55h219q61 0 49 -55l-22 -131q-10 -55 -64 -56h-219zM1714 0h-221q-57 0 -49 57l135 756h-340l-135 -762q-8 -51 -64 -51h-213q-59 0 -51 51l135 762h-340l-135 -762q-8 -51 -63 -51h-213q-59 0 -51 51l133 762h-92q-53 0 -46 55
l23 133q12 57 63 58h95l16 90q29 159 119 237t258 78q119 0 172 -18q55 -14 49 -55l-20 -105q-8 -55 -54 -51q-61 8 -86 8q-94 0 -110 -106l-15 -78h338l17 90q29 159 119 237t258 78q121 0 172 -18q55 -14 49 -55l-21 -105q-8 -55 -59 -49t-80 6q-94 0 -111 -106l-14 -78
h612q62 -1 50 -58l-166 -944q-8 -57 -64 -57z" />
    <glyph glyph-name="f_f_l" unicode="ffl" horiz-adv-x="1976" 
d="M1040 0h-213q-59 0 -51 51l135 762h-340l-135 -762q-8 -51 -63 -51h-213q-59 0 -51 51l133 762h-90q-55 0 -48 55l23 133q12 57 63 58h95l16 90q29 159 119 237t258 78q119 0 172 -18q55 -14 49 -55l-20 -105q-8 -55 -54 -51q-61 8 -86 8q-94 0 -110 -106l-15 -78h338
l9 39q37 200 165 284t420 84q109 0 234 -15t168 -29t53 -27q10 -12 6 -41l-229 -1297q-12 -57 -64 -57h-221q-61 0 -49 57l205 1162q-59 12 -155 12t-144 -31q-49 -31 -60 -100l-8 -41h111q61 0 49 -58l-23 -133q-8 -55 -65 -55h-115l-135 -762q-8 -51 -64 -51z" />
    <glyph glyph-name="f_b" unicode="fb" horiz-adv-x="2031" 
d="M1599 1114q181 0 281 -100t100 -299q0 -84 -14 -170q-100 -567 -528 -568q-104 0 -200 43t-126 117l-27 -92q-18 -45 -63 -45h-197q-57 0 -49 57l205 1162q-57 12 -153 12t-144 -30t-61 -101l-9 -41h111q57 0 49 -58l-22 -133q-8 -55 -64 -55h-117l-135 -762
q-8 -51 -63 -51h-213q-59 0 -51 51l133 762h-90q-55 0 -48 55l23 133q10 57 63 58h95l8 39q37 204 164 286t420 82q111 0 235 -15t182 -34q53 -14 45 -63l-69 -391q53 71 143 111t186 40zM1182 430q0 -193 176 -192q110 0 174 72t94 235q12 74 12 123q0 186 -172 186
q-219 0 -272 -309q-12 -66 -12 -115z" />
    <glyph glyph-name="f_f_b" unicode="ffb" horiz-adv-x="2699" 
d="M2267 1114q181 0 281 -102t100 -301q0 -86 -16 -168q-96 -565 -527 -566q-104 0 -200 43t-125 117l-27 -92q-18 -45 -63 -45h-197q-61 0 -49 57l205 1162q-59 12 -155 12t-143 -31q-48 -31 -61 -100l-8 -41h111q61 0 49 -58l-21 -133q-12 -55 -65 -55h-117l-135 -762
q-8 -51 -64 -51h-213q-59 0 -51 51l135 762h-340l-135 -762q-8 -51 -63 -51h-213q-59 0 -51 51l133 762h-92q-53 0 -46 55l23 133q8 57 63 58h95l16 90q31 159 120 237t257 78q109 0 172 -18q55 -14 49 -55l-20 -105q-8 -55 -54 -51q-61 8 -86 8q-92 0 -110 -106l-15 -78
h338l9 39q39 204 165 286t418 82q111 0 236 -15t168 -29t53 -27q10 -12 6 -41l-70 -391q53 71 143 111t187 40zM2306 668q0 186 -172 186q-219 0 -272 -309q-12 -66 -13 -115q0 -193 176 -192q109 0 175 72t94 235q12 70 12 123z" />
    <glyph glyph-name="f_h" unicode="fh" horiz-adv-x="1992" 
d="M1929 819q0 -63 -10 -114l-115 -648q-8 -57 -63 -57h-221q-61 0 -50 57l105 586q6 37 6 66q0 127 -135 127q-98 0 -158 -60t-80 -158l-98 -561q-8 -57 -63 -57h-222q-57 0 -49 57l205 1162q-57 12 -153 12t-146 -31t-59 -100l-9 -41h111q61 0 49 -58l-22 -133
q-8 -55 -64 -55h-117l-135 -762q-8 -51 -63 -51h-213q-59 0 -51 51l133 762h-90q-55 0 -48 55l23 133q12 57 63 58h95l8 39q25 135 86 214q61 78 180 116t274 38t279 -15t168 -29q43 -14 53 -27q10 -12 6 -41l-69 -393q121 154 338 153q160 0 240 -76t81 -219z" />
    <glyph glyph-name="f_f_h" unicode="ffh" horiz-adv-x="2660" 
d="M2597 817q0 -45 -10 -112l-115 -648q-12 -57 -64 -57h-221q-59 0 -51 57l105 586q6 37 6 68q0 125 -133 125q-98 0 -158 -60t-80 -158l-98 -561q-12 -57 -64 -57h-221q-61 0 -49 57l205 1162q-59 12 -155 12t-144 -31q-49 -31 -60 -100l-8 -41h111q61 0 49 -58l-21 -133
q-12 -55 -65 -55h-117l-135 -762q-8 -51 -64 -51h-213q-59 0 -51 51l135 762h-340l-135 -762q-8 -51 -63 -51h-213q-59 0 -51 51l133 762h-90q-55 0 -48 55l23 133q12 57 63 58h95l16 90q57 315 351 315q144 0 198 -18q55 -14 49 -55l-20 -105q-8 -55 -54 -51q-61 8 -86 8
q-94 0 -110 -106l-15 -78h338l9 39q25 135 86 214q61 78 180 116t273 38t280 -15q125 -15 168 -29t53 -27q10 -12 6 -41l-70 -393q121 154 338 153q322 0 322 -297z" />
    <glyph glyph-name="f_j" unicode="fj" horiz-adv-x="1310" 
d="M1040 1204q-59 0 -47 56l23 131q8 55 63 55h217q60 0 52 -55l-23 -131q-12 -55 -65 -56h-220zM373 0h-213q-59 0 -51 51l133 762h-90q-55 0 -48 55l23 133q12 57 63 58h95l16 90q29 159 119 237t258 78q119 0 172 -18q55 -14 49 -55l-20 -105q-6 -55 -54 -51q-61 8 -86 8
q-94 0 -110 -106l-15 -78h617q61 -1 49 -58l-162 -917q-30 -174 -112 -250t-248 -76q-106 0 -172 19q-51 12 -43 57l24 139q6 51 58 47l69 -8q76 0 97 105l122 696h-342l-135 -762q-8 -51 -63 -51z" />
    <glyph glyph-name="f_f_j" unicode="ffj" horiz-adv-x="1978" 
d="M1708 1204q-57 0 -49 56l22 131q12 55 64 55h219q61 0 49 -55l-22 -131q-8 -55 -64 -56h-219zM1040 0h-213q-59 0 -51 51l135 762h-340l-135 -762q-8 -51 -63 -51h-213q-59 0 -51 51l133 762h-90q-55 0 -48 55l23 133q12 57 63 58h95l16 90q29 159 119 237t258 78
q119 0 172 -18q55 -14 49 -55l-20 -105q-8 -55 -54 -51q-61 8 -86 8q-94 0 -110 -106l-15 -78h338l17 90q29 159 119 237t258 78q121 0 172 -18q59 -13 49 -57l-21 -103q-8 -55 -59 -49t-80 6q-94 0 -111 -106l-14 -78h614q62 -1 50 -58l-162 -917q-29 -174 -111 -250
t-248 -76q-111 0 -174 19q-51 12 -41 57l25 139q6 47 55 47l72 -8q76 0 96 105l123 696h-342l-135 -762q-8 -51 -64 -51z" />
    <glyph glyph-name="f_k" unicode="fk" horiz-adv-x="1890" 
d="M1657 1090h256q31 0 36 -23t-22 -49l-487 -420l344 -526q16 -28 5 -50t-40 -22h-231q-55 0 -84 45l-252 401l-70 -389q-8 -57 -61 -57h-222q-63 0 -51 57l203 1162q-57 12 -155 12t-143 -29q-46 -29 -60 -102l-9 -41h111q57 0 49 -58l-22 -133q-8 -55 -64 -55h-117
l-135 -762q-8 -51 -63 -51h-213q-59 0 -51 51l133 762h-90q-55 0 -48 55l23 133q8 57 63 58h95l8 39q39 204 165 286t419 82q111 0 237 -15t182 -34q53 -16 43 -63l-104 -592l332 287q37 41 90 41z" />
    <glyph glyph-name="f_f_k" unicode="ffk" horiz-adv-x="2555" 
d="M2322 1090h256q31 0 37 -23t-20 -49l-488 -420l342 -526q13 -28 5 -50t-37 -22h-232q-55 0 -84 45l-254 401l-67 -389q-12 -57 -64 -57h-221q-59 0 -51 57l205 1162q-59 12 -155 12t-143 -31q-48 -31 -61 -100l-8 -41h111q57 0 49 -58l-23 -133q-8 -55 -65 -55h-115
l-135 -762q-8 -51 -64 -51h-213q-59 0 -51 51l135 762h-340l-135 -762q-8 -51 -63 -51h-213q-59 0 -51 51l133 762h-90q-55 0 -48 55l23 133q8 57 63 58h95l16 90q29 162 119 239t258 76q119 0 172 -18q55 -14 49 -55l-20 -105q-8 -55 -54 -51q-61 8 -86 8q-90 0 -110 -106
l-15 -78h338l9 39q25 135 86 214q61 78 180 116t273 38t280 -15q125 -15 168 -29t53 -27q10 -12 6 -41l-104 -592l329 287q41 41 90 41z" />
    <glyph glyph-name="f_t" unicode="ft" horiz-adv-x="1490" 
d="M815 231q0 51 12 113l84 469h-340l-135 -762q-8 -51 -63 -51h-213q-59 0 -51 51l133 762h-92q-53 0 -46 55l23 133q12 57 63 58h95l16 90q29 159 119 237t258 78q119 0 172 -18q55 -14 49 -55l-20 -105q-8 -55 -54 -51q-61 8 -86 8q-94 0 -110 -106l-15 -78h342l45 248
q10 49 64 49h207q59 0 51 -49l-45 -248h199q61 0 49 -58l-23 -133q-8 -55 -65 -55h-199l-80 -448q-15 -74 7 -102t94 -27l86 10q47 0 40 -51l-22 -136q-17 -77 -225 -77q-162 0 -243 58t-81 191z" />
    <glyph glyph-name="f_f_t" unicode="fft" horiz-adv-x="2156" 
d="M1804 -18q-162 0 -242 58t-79 196q0 51 12 114l82 463h-338l-135 -762q-8 -51 -64 -51h-213q-59 0 -51 51l135 762h-340l-135 -762q-8 -51 -63 -51h-213q-59 0 -51 51l133 762h-92q-53 0 -46 55l23 133q12 57 63 58h95l16 90q29 159 119 237t258 78q119 0 172 -18
q55 -14 49 -55l-20 -105q-8 -55 -54 -51q-61 8 -86 8q-94 0 -110 -106l-15 -78h338l17 90q57 315 354 315q146 0 195 -18q55 -14 49 -55l-21 -105q-8 -55 -59 -49t-80 6q-94 0 -111 -106l-14 -78h342l43 248q12 49 66 49h204q31 0 43 -12t9 -37l-43 -248h198q61 0 49 -58
l-22 -133q-8 -55 -66 -55h-200l-80 -448q-13 -74 9 -102t93 -27l82 10q47 0 41 -51l-18 -136q-4 -41 -60 -57q-86 -20 -168 -20z" />
    <glyph glyph-name="t_t" unicode="tt" horiz-adv-x="1484" 
d="M453 -18q-160 0 -239 58t-79 193q0 49 12 115l82 465h-92q-59 0 -47 55l23 133q12 57 63 58h100l43 248q12 49 66 49h205q59 0 51 -49l-43 -248h354l43 248q8 49 66 49h205q59 0 51 -49l-45 -248h201q59 0 47 -58l-23 -133q-8 -55 -63 -55h-201l-80 -448q-15 -74 7 -102
t93 -27l84 10q45 0 39 -51l-16 -136q-6 -41 -62 -57q-82 -20 -165 -20q-164 0 -243 58t-79 196q0 45 10 112l84 465h-348l-80 -448q-13 -74 9 -102t87 -27l78 10q45 0 39 -51l-16 -136q-4 -41 -62 -57q-82 -20 -159 -20z" />
    <glyph glyph-name="t_t_f" unicode="ttf" horiz-adv-x="2146" 
d="M811 233q0 53 12 117l82 463h-348l-80 -448q-13 -74 9 -102t87 -27l78 10q45 0 39 -51l-16 -136q-4 -41 -62 -57q-82 -20 -159 -20q-160 0 -239 57t-79 194q0 53 12 117l82 463h-92q-59 0 -47 55l23 133q12 57 63 58h100l43 248q12 49 66 49h205q59 0 51 -49l-43 -248
h354l43 248q8 49 66 49h205q59 0 51 -49l-45 -248h354l14 78q31 171 126 249t272 78q121 0 180 -18q49 -12 41 -57l-23 -121q-10 -59 -57 -56q-61 8 -103 8q-91 1 -110 -108l-10 -53h180q61 0 49 -58l-22 -133q-8 -55 -66 -55h-184l-135 -762q-8 -51 -64 -51h-213
q-59 0 -51 51l135 762h-352l-80 -448q-15 -74 7 -102t89 -27l80 10q47 0 41 -51l-24 -136q-7 -77 -220 -77q-158 0 -236 57t-79 194z" />
    <glyph glyph-name=".notdef" horiz-adv-x="1007" 
d="M504 616l-342 -516h684zM504 797l344 516h-686zM100 1223v-1030l344 514zM907 193v1030l-344 -516zM0 1413h1008v-1413h-1008v1413z" />
    <glyph glyph-name=".null" horiz-adv-x="0" 
 />
    <glyph glyph-name="nonmarkingreturn" horiz-adv-x="681" 
 />
    <glyph glyph-name="space" unicode=" " horiz-adv-x="587" 
 />
    <glyph glyph-name="exclam" unicode="!" horiz-adv-x="657" 
d="M403 459h-153q-57 0 -51 53l94 874q6 59 65 60h279q63 0 51 -60l-217 -874q-13 -53 -68 -53zM414 332q61 0 53 -56l-39 -219q-8 -57 -63 -57h-234q-57 0 -49 57l39 219q10 55 67 56h226z" />
    <glyph glyph-name="quotedbl" unicode="&#x22;" horiz-adv-x="819" 
d="M616 905v367q0 82 9 119q18 106 151 106q72 0 98 -27q43 -46 -18 -198l-129 -367h-111zM248 905v367q0 82 8 119q18 106 152 106q72 0 98 -27q26 -28 16 -70q-8 -42 -35 -128l-129 -367h-110z" />
    <glyph glyph-name="numbersign" unicode="#" horiz-adv-x="1325" 
d="M637 881l-141 -322h280l139 322h-278zM1346 1075q57 0 45 -55l-15 -82q-8 -57 -65 -57h-181l-141 -322h127q57 0 45 -57l-14 -82q-8 -55 -66 -55h-178l-147 -336q-25 -55 -76 -41l-86 24q-55 12 -29 68l125 285h-280l-148 -336q-23 -57 -76 -41l-84 24q-55 12 -30 68
l125 285h-129q-55 0 -48 55l15 82q12 57 67 57h181l139 322h-125q-57 0 -45 57l14 82q8 55 66 55h178l149 344q25 53 76 39l86 -22q53 -14 29 -70l-127 -291h278l152 344q25 53 76 39l86 -22q51 -15 28 -70l-126 -291h129z" />
    <glyph glyph-name="dollar" unicode="$" horiz-adv-x="1241" 
d="M543 1036q0 -53 55 -88q54 -35 164 -77q110 -43 166 -71q164 -83 212 -184q30 -63 29 -145q0 -201 -138 -319t-363 -160l-25 -139q-12 -57 -65 -58h-99q-55 0 -47 58l23 129q-258 12 -408 92q-49 27 -22 73l86 156q27 59 82 33q152 -63 311 -64q72 0 134 10t119 48
q56 37 56 98t-75 97q-60 31 -171 71q-172 60 -275 152t-104 251q0 393 521 463l22 133q10 55 64 56h98q59 -1 47 -58l-22 -129q199 -18 317 -84q45 -25 18 -73l-82 -148q-31 -55 -81 -35q-123 49 -285 50q-262 0 -262 -138z" />
    <glyph glyph-name="percent" unicode="%" horiz-adv-x="1994" 
d="M1675 522q0 127 -96 127q-125 0 -164 -231q-12 -63 -12 -107q0 -127 96 -127q123 1 164 234q12 61 12 104zM1586 850q160 0 250 -89q89 -89 89 -245q0 -43 -10 -104q-35 -207 -147 -317q-112 -109 -274 -109t-250 89q-89 89 -89 244q0 54 8 103q35 208 149 318t274 110z
M682 1135q0 127 -94 127q-125 0 -166 -234q-12 -61 -12 -104q0 -127 96 -127q125 0 164 231q12 66 12 107zM932 1128q0 -55 -8 -104q-37 -208 -149 -318t-274 -110q-163 0 -251 89t-88 247q0 53 8 102q37 205 151 317q113 111 273 111t249 -89t89 -245zM561 0h-135
q-66 0 -23 57l1031 1336q41 53 88 53h135q61 0 22 -55l-1030 -1336q-43 -55 -88 -55z" />
    <glyph glyph-name="ampersand" unicode="&#x26;" horiz-adv-x="1517" 
d="M420 432q0 -78 68 -125t194 -47q125 0 197 45l-258 363q-201 -72 -201 -236zM1436 719q0 -238 -189 -457l148 -203q12 -19 2 -39t-33 -20h-205q-63 0 -86 33l-49 65q-166 -116 -410 -116t-394 103t-150 283t114 304q115 125 308 182l-27 39q-72 106 -72 230t69 205
t171 112q101 30 263 30t278 -53q53 -25 32 -76l-53 -118q-20 -55 -84 -39q-96 29 -180 28q-199 0 -199 -118q0 -51 76 -156l330 -457q43 63 56 119t13 141q0 61 60 62h168q43 0 43 -84z" />
    <glyph glyph-name="quotesingle" unicode="'" horiz-adv-x="450" 
d="M248 905v367q0 82 8 119q18 106 152 106q72 0 98 -27q26 -28 16 -70q-8 -42 -35 -128l-129 -367h-110z" />
    <glyph glyph-name="parenleft" unicode="(" horiz-adv-x="782" 
d="M145 414q0 279 134 549q133 270 358 475q33 29 68 28h155q29 0 33 -20t-16 -43q-188 -209 -300 -480t-112 -563t135 -538q10 -23 -1 -43t-40 -21h-153q-39 0 -60 29q-201 267 -201 627z" />
    <glyph glyph-name="parenright" unicode=")" horiz-adv-x="782" 
d="M686 813q0 -279 -132 -549t-357 -477q-33 -29 -68 -29h-156q-29 0 -33 20t17 44q190 211 301 482t111 568t-136 531q-12 23 0 43t41 20h156q39 0 55 -28q201 -263 201 -625z" />
    <glyph glyph-name="asterisk" unicode="*" horiz-adv-x="903" 
d="M489 674q-53 0 -70 20q-32 37 30 179q33 77 40 106q-23 -14 -110 -88q-159 -136 -203 -21q-16 49 -4 77t51 48t121 42t109 32q-25 12 -98 35q-73 22 -107 44t-33 52q0 30 31 70q63 84 135 39q27 -19 73 -75t66 -73q2 29 -5 110t2 117t33 58q24 20 77 20t70 -20
q31 -36 -31 -180q-33 -78 -41 -105q29 17 97 73t98 74q32 18 59 17q39 0 57 -52t6 -79q-23 -52 -170 -90q-82 -20 -108 -33q26 -12 98 -35q72 -24 104 -46t33 -50q0 -28 -29 -70q-66 -84 -135 -39q-27 19 -73 75t-66 73q-2 -31 5 -108t0 -117t-33 -60t-79 -20z" />
    <glyph glyph-name="plus" unicode="+" horiz-adv-x="1236" 
d="M1092 578h-304l-55 -308q-8 -55 -63 -55h-189q-57 0 -49 55l55 308h-301q-55 0 -47 55l27 153q8 55 61 56h305l56 307q8 55 63 55h189q57 0 49 -55l-55 -307h301q57 0 49 -56l-27 -153q-10 -55 -65 -55z" />
    <glyph glyph-name="comma" unicode="," horiz-adv-x="532" 
d="M37 -272q-20 0 -27 15q-6 15 6 36l123 221h-63q-57 0 -49 57l39 217q12 55 69 56h209q66 0 53 -56l-35 -194q-6 -43 -26 -72l-174 -252q-18 -29 -51 -28h-74z" />
    <glyph glyph-name="hyphen" unicode="-" horiz-adv-x="823" 
d="M682 438h-551q-57 0 -47 56l29 153q8 55 61 55h551q61 0 49 -53l-26 -155q-11 -56 -66 -56z" />
    <glyph glyph-name="period" unicode="." horiz-adv-x="532" 
d="M344 330q66 0 53 -56l-39 -217q-8 -57 -61 -57h-221q-57 0 -49 57l39 217q12 55 69 56h209z" />
    <glyph glyph-name="slash" unicode="/" horiz-adv-x="948" 
d="M854 1446h193q37 0 46 -20t-10 -50l-819 -1325q-29 -51 -82 -51h-192q-76 0 -35 70l819 1325q29 51 80 51z" />
    <glyph glyph-name="zero" unicode="0" horiz-adv-x="1398" 
d="M668 274q250 0 329 449q18 111 19 190q0 258 -197 258q-250 0 -327 -448q-18 -111 -19 -193q0 -256 195 -256zM856 1470q238 0 374 -138t136 -400q0 -82 -20 -209q-66 -371 -250 -558t-465 -188q-238 -1 -374 137t-136 400q0 84 20 211q66 371 250 558t465 187z" />
    <glyph glyph-name="one" unicode="1" horiz-adv-x="1017" 
d="M686 1446h229q59 0 52 -60l-234 -1327q-12 -59 -67 -59h-226q-65 0 -53 59l182 1031l-247 -134q-49 -25 -72 11l-76 133q-23 41 21 65l401 254q39 27 90 27z" />
    <glyph glyph-name="two" unicode="2" horiz-adv-x="1296" 
d="M512 956q0 -78 -57 -77h-209q-51 0 -51 82q0 241 169 375q168 134 418 134t373 -108t123 -270q0 -432 -713 -811h527q63 0 53 -60l-29 -162q-10 -59 -67 -59h-971q-63 0 -51 59l22 134q6 43 60 71q429 227 624 415q80 77 136 173t57 188q0 150 -178 150q-116 0 -176 -64
t-60 -170z" />
    <glyph glyph-name="three" unicode="3" horiz-adv-x="1222" 
d="M461 872h155q104 0 174 48t68 141q0 131 -196 131q-168 0 -343 -66q-59 -23 -71 33l-31 139q-12 51 49 76q221 94 483 94t391 -143q68 -77 68 -197t-72 -217q-73 -96 -198 -143q82 -24 135 -98t53 -194t-52 -222t-143 -160q-184 -116 -455 -115t-456 97q-51 25 -22 76
l82 145q31 55 84 33q142 -70 298 -70q324 0 324 219q0 133 -204 133h-166q-61 0 -49 60l24 141q13 59 70 59z" />
    <glyph glyph-name="four" unicode="4" horiz-adv-x="1380" 
d="M897 1090l-524 -527h432zM991 0h-223q-63 0 -51 59l41 228h-666q-57 0 -49 61l29 156q6 43 37 74l827 835q29 33 72 33h233q59 0 51 -60l-145 -823h151q59 0 52 -59l-27 -156q-12 -61 -70 -61h-153l-41 -228q-13 -59 -68 -59z" />
    <glyph glyph-name="five" unicode="5" horiz-adv-x="1257" 
d="M1174 555q0 -289 -188 -432t-478 -143q-291 0 -471 98q-49 27 -21 78l80 141q33 59 84 33q152 -70 314 -70t248 65q87 65 87 191q0 156 -213 156q-88 0 -174 -24t-100 -24t-39 9l-113 35q-37 10 -22 55q35 121 88 346q54 225 64 285t26 76t49 16h797q61 0 53 -60
l-28 -161q-8 -59 -72 -60h-580q-29 -131 -71 -284q104 35 229 34q225 0 338 -98t113 -262z" />
    <glyph glyph-name="six" unicode="6" horiz-adv-x="1339" 
d="M444 475q0 -101 56 -159t175 -58q117 0 199 88t82 209q0 80 -54 130t-171 50t-202 -80t-85 -180zM905 1196q-340 0 -416 -362q147 143 353 143t316 -110t110 -283q0 -262 -184 -434t-446 -172q-261 0 -393 136q-132 138 -132 373q0 76 16 175q72 399 255 604t525 204
q193 0 316 -55q55 -20 32 -69l-61 -142q-25 -57 -84 -41q-106 33 -207 33z" />
    <glyph glyph-name="seven" unicode="7" horiz-adv-x="1202" 
d="M254 1165q-59 0 -47 60l26 161q8 59 68 60h932q61 0 53 -60l-24 -137q-8 -39 -33 -63q-26 -24 -29 -29q-211 -243 -394 -537t-253 -563q-9 -33 -23 -45t-47 -12h-231q-65 0 -53 57q76 268 278 590q203 322 404 518h-627z" />
    <glyph glyph-name="eight" unicode="8" horiz-adv-x="1335" 
d="M637 233q109 -1 187 55t79 156q0 144 -205 199q-287 -80 -286 -258q0 -70 58 -111t167 -41zM795 1225q-104 0 -170 -50t-66 -145q0 -127 174 -180q252 76 252 248q0 127 -190 127zM596 -23q-252 -1 -391 97t-139 259t105 267t271 150q-98 32 -157 112t-59 178t36 174
q66 137 224 196q157 60 363 60q207 0 343 -89t135 -238q0 -149 -94 -249t-242 -144q111 -31 181 -112t69 -203q0 -340 -421 -434q-107 -24 -224 -24z" />
    <glyph glyph-name="nine" unicode="9" horiz-adv-x="1339" 
d="M983 991q0 85 -56 141t-175 56t-199 -87t-80 -206q0 -82 54 -133t172 -51t201 80t83 200zM526 250q342 0 414 354q-143 -135 -348 -135t-318 109t-112 278q0 268 179 440t445 172t398 -137q131 -137 131 -373q0 -78 -17 -176q-72 -401 -250 -603t-524 -202
q-199 0 -317 54q-55 20 -31 69l60 142q27 57 86 41q102 -33 204 -33z" />
    <glyph glyph-name="colon" unicode=":" horiz-adv-x="618" 
d="M522 1090q63 0 53 -56l-38 -219q-12 -55 -66 -55h-219q-59 0 -49 55l41 221q10 53 67 54h211zM387 330q66 0 53 -56l-39 -217q-8 -57 -63 -57h-219q-57 0 -49 57l39 217q10 55 67 56h211z" />
    <glyph glyph-name="semicolon" unicode=";" horiz-adv-x="618" 
d="M80 -272q-20 0 -27 15q-6 15 6 36l123 221h-63q-57 0 -49 57l39 217q10 55 67 56h211q66 0 53 -56l-34 -194q-7 -43 -27 -72l-176 -252q-18 -29 -49 -28h-74zM522 1090q63 0 53 -56l-38 -219q-12 -55 -66 -55h-219q-59 0 -49 55l41 219q10 55 67 56h211z" />
    <glyph glyph-name="less" unicode="&#x3c;" horiz-adv-x="1236" 
d="M174 651q-20 21 -16 55t37 56l837 573q51 37 78 -8l86 -131q27 -43 -22 -80l-615 -411l469 -410q37 -33 -4 -78l-133 -135q-43 -39 -80 -8z" />
    <glyph glyph-name="equal" unicode="=" horiz-adv-x="1236" 
d="M1024 356h-848q-57 0 -47 56l25 139q8 55 63 55h846q57 0 49 -55l-25 -139q-10 -56 -63 -56zM1104 813h-848q-55 0 -47 55l24 142q12 55 64 55h848q59 0 47 -55l-25 -142q-8 -55 -63 -55z" />
    <glyph glyph-name="greater" unicode="&#x3e;" horiz-adv-x="1236" 
d="M1145 762q24 -22 18 -56t-37 -55l-841 -577q-51 -35 -78 8l-82 135q-25 45 22 78l615 410l-469 411q-37 35 6 80l129 131q43 45 80 8z" />
    <glyph glyph-name="question" unicode="?" horiz-adv-x="1132" 
d="M457 459q-63 0 -49 55l6 33q18 69 85 139t135 119t124 123q55 74 55 151q0 106 -184 107q-150 0 -307 -60q-61 -23 -74 33l-31 146q-12 51 49 75q203 88 427 88t347 -84t123 -237q0 -100 -43 -184q-43 -85 -106 -141q-62 -56 -126 -101t-112 -90t-55 -86l-6 -35
q-8 -49 -68 -51h-190zM633 332q63 0 51 -56l-39 -219q-10 -57 -63 -57h-234q-57 0 -49 57l39 219q10 55 68 56h227z" />
    <glyph glyph-name="at" unicode="@" horiz-adv-x="1916" 
d="M864 -240q-366 0 -566 140t-200 411q0 410 297 675t738 265q348 0 528 -145t180 -396q-1 -251 -151 -448t-408 -196h-125q-55 0 -63 40l-2 95q-109 -137 -293 -138q-139 0 -230 80q-90 80 -90 211q0 260 174 429t459 169q209 0 352 -75q37 -18 25 -58l-209 -604h37
q119 0 204 80q158 149 158 422q0 182 -136 284q-136 103 -394 103q-527 1 -765 -364q-120 -180 -120 -406t151 -327t457 -101q227 0 424 53q37 8 37 -29l4 -65q2 -29 -32 -39q-229 -66 -441 -66zM1077 745q-139 0 -228 -98t-89 -241q0 -58 32 -94t89 -36q163 0 231 199
l88 250q-53 20 -123 20z" />
    <glyph glyph-name="A" unicode="A" horiz-adv-x="1419" 
d="M735 1446h287q55 0 68 -55l221 -1321q3 -30 -11 -50t-45 -20h-237q-59 0 -66 55l-34 221h-476l-112 -221q-27 -55 -78 -55h-250q-31 0 -41 19t6 51l688 1321q15 31 31 43t49 12zM559 569h342l-72 531h-4z" />
    <glyph glyph-name="B" unicode="B" horiz-adv-x="1398" 
d="M680 268q287 0 287 217q-1 68 -53 99t-171 30h-239l-62 -346h238zM668 0h-555q-63 0 -52 59l234 1327q6 32 20 46t47 14h508q514 0 514 -316q0 -127 -64 -223t-185 -141q80 -26 130 -96t50 -176q0 -256 -179 -375t-468 -119zM778 864q256 0 256 199q0 59 -47 87t-156 28
h-227l-55 -314h229z" />
    <glyph glyph-name="C" unicode="C" horiz-adv-x="1280" 
d="M473 575q-1 -292 299 -292q144 0 258 53q63 25 78 -31l43 -149q12 -41 -47 -78q-176 -100 -402 -101q-276 -1 -433 139t-156 412q0 90 18 195q66 375 267 561q202 186 517 186q125 0 234 -30t151 -58q42 -30 47 -46t-12 -44l-94 -147q-31 -53 -88 -29q-90 47 -217 47
q-192 0 -300 -105t-149 -335q-14 -96 -14 -148z" />
    <glyph glyph-name="D" unicode="D" horiz-adv-x="1411" 
d="M717 1139h-115l-145 -832h114q193 0 297 91t150 333q14 96 14 143q0 147 -78 206t-237 59zM549 0h-436q-63 0 -52 59l234 1327q8 59 65 60h404q311 0 468 -124t157 -396q0 -98 -17 -195q-66 -391 -264 -561t-559 -170z" />
    <glyph glyph-name="E" unicode="E" horiz-adv-x="1171" 
d="M1014 594h-514l-54 -299h549q61 0 54 -59l-31 -175q-14 -61 -70 -61h-835q-63 0 -52 59l234 1327q8 59 65 60h828q61 0 53 -60l-33 -176q-8 -61 -67 -61h-543l-47 -272h510q57 0 51 -60l-31 -164q-10 -59 -67 -59z" />
    <glyph glyph-name="F" unicode="F" horiz-adv-x="1142" 
d="M1008 555h-512l-86 -496q-12 -59 -68 -59h-229q-63 0 -52 59l234 1327q8 59 67 60h820q61 0 53 -60l-31 -176q-8 -59 -67 -59h-535l-55 -307h508q61 0 51 -60l-31 -172q-10 -57 -67 -57z" />
    <glyph glyph-name="G" unicode="G" horiz-adv-x="1437" 
d="M899 872h432q59 0 51 -59l-116 -657q-8 -45 -60 -74q-186 -104 -479 -104t-454 134q-161 136 -160 412q0 94 18 205q68 383 280 562t562 179q281 0 430 -104q43 -33 18 -78l-88 -149q-31 -55 -88 -29q-121 53 -258 53q-225 0 -341 -101t-157 -339q-14 -78 -14 -150
q0 -155 81 -223t249 -67q98 0 178 30l51 297h-178q-61 0 -49 58l24 145q11 59 68 59z" />
    <glyph glyph-name="H" unicode="H" horiz-adv-x="1439" 
d="M344 0h-231q-63 0 -52 59l234 1327q8 59 67 60h232q63 0 51 -60l-86 -495h471l86 495q12 59 68 60h233q59 0 51 -60l-233 -1327q-12 -59 -68 -59h-231q-65 0 -53 59l92 521h-471l-92 -521q-12 -59 -68 -59z" />
    <glyph glyph-name="I" unicode="I" horiz-adv-x="638" 
d="M604 1446q63 0 51 -60l-233 -1327q-12 -59 -68 -59h-231q-63 0 -51 59l233 1327q8 59 66 60h233z" />
    <glyph glyph-name="J" unicode="J" horiz-adv-x="1034" 
d="M1020 1446q63 0 51 -60l-160 -903q-45 -260 -182 -383t-381 -123q-104 0 -200 25q-96 24 -146 58q-49 34 -20 81l86 158q31 57 79 35q78 -47 187 -47q194 0 233 227l154 872q8 59 67 60h232z" />
    <glyph glyph-name="K" unicode="K" horiz-adv-x="1327" 
d="M1133 1446h274q33 0 39 -25t-19 -51l-618 -598l399 -696q16 -28 4 -52t-45 -24h-243q-53 0 -80 55l-332 570l-100 -566q-8 -59 -68 -59h-231q-63 0 -52 59l234 1327q8 59 67 60h232q63 0 51 -60l-80 -448l473 455q49 53 95 53z" />
    <glyph glyph-name="L" unicode="L" horiz-adv-x="1130" 
d="M965 313q63 0 51 -59l-33 -195q-12 -59 -70 -59h-800q-63 0 -52 59l234 1327q8 59 67 60h232q63 -1 51 -60l-188 -1073h508z" />
    <glyph glyph-name="M" unicode="M" horiz-adv-x="1687" 
d="M818 315q-32 0 -46 29l-227 533l-144 -818q-12 -59 -67 -59h-221q-63 0 -52 59l234 1327q8 59 67 60h209q53 0 66 -35l258 -612l475 612q29 35 72 35h221q63 0 51 -60l-233 -1327q-12 -59 -68 -59h-221q-63 0 -51 59l143 818l-416 -533q-18 -29 -50 -29z" />
    <glyph glyph-name="N" unicode="N" horiz-adv-x="1452" 
d="M1178 0h-222q-53 0 -69 39l-346 817l-142 -797q-12 -59 -67 -59h-219q-63 0 -52 59l234 1327q8 59 67 60h220q55 0 71 -39l346 -817l142 796q8 59 65 60h221q62 -1 54 -60l-236 -1327q-12 -59 -67 -59z" />
    <glyph glyph-name="O" unicode="O" horiz-adv-x="1472" 
d="M702 281q293 0 371 442q18 98 19 172q0 272 -234 272q-293 0 -371 -444q-18 -98 -18 -172q0 -270 233 -270zM893 1470q265 0 411 -136t146 -404q0 -104 -20 -209q-131 -743 -762 -744q-264 -1 -410 135t-147 404q0 98 18 209q135 745 764 745z" />
    <glyph glyph-name="P" unicode="P" horiz-adv-x="1363" 
d="M342 0h-227q-66 0 -54 59l234 1327q8 59 65 60h457q273 0 411 -94t138 -301q0 -49 -10 -125q-45 -279 -210 -400t-472 -120h-203l-61 -347q-13 -59 -68 -59zM700 700q139 0 211 52t93 174q6 37 6 69q0 82 -54 118t-174 36h-180l-80 -449h178z" />
    <glyph glyph-name="Q" unicode="Q" horiz-adv-x="1472" 
d="M707 291q147 0 238 106t130 332q16 82 17 164q0 274 -236 274q-291 0 -367 -438q-18 -94 -18 -170q0 -268 236 -268zM113 530q0 92 18 201q131 739 762 739q265 0 413 -135t148 -403q0 -100 -20 -205q-44 -250 -174 -421t-316 -243q66 -20 143 -20l93 10q26 0 34 -9
t5 -36l-27 -145q-6 -35 -24 -49t-64 -15q-150 0 -287 51t-233 144q-217 10 -344 148t-127 388z" />
    <glyph glyph-name="R" unicode="R" horiz-adv-x="1370" 
d="M362 1446h467q551 0 551 -383q0 -51 -10 -123q-59 -336 -393 -430l227 -434q16 -28 4 -52t-45 -24h-223q-57 0 -80 47l-209 414h-170l-71 -402q-12 -59 -68 -59h-227q-66 0 -54 59l234 1327q8 60 67 60zM721 743q141 1 210 49q93 65 93 212q0 78 -55 112t-176 33h-191
l-72 -406h191z" />
    <glyph glyph-name="S" unicode="S" horiz-adv-x="1210" 
d="M1137 475q0 -244 -176 -370t-447 -125q-145 0 -273 26t-196 64q-47 25 -22 73l86 156q31 55 81 35q131 -62 272 -62q318 -1 318 156q0 53 -55 90t-197 90q-142 54 -237 142q-96 88 -96 241q0 242 163 360q164 117 434 117t416 -82q45 -27 21 -73l-82 -148
q-31 -57 -84 -35q-117 43 -268 44q-244 0 -244 -142q0 -53 49 -86q50 -33 152 -76q102 -44 155 -72q154 -83 201 -182q29 -61 29 -141z" />
    <glyph glyph-name="T" unicode="T" horiz-adv-x="1179" 
d="M1237 1446q63 0 51 -60l-33 -192q-12 -61 -69 -61h-305l-189 -1074q-12 -59 -67 -59h-232q-63 0 -51 59l188 1074h-301q-61 0 -51 61l35 192q8 59 66 60h958z" />
    <glyph glyph-name="U" unicode="U" horiz-adv-x="1417" 
d="M123 399q0 63 12 133l152 854q8 59 67 60h232q63 0 51 -60l-145 -823q-8 -47 -9 -92q0 -92 46 -137t158 -45q222 0 269 274l146 823q12 59 67 60h232q63 0 51 -60l-149 -854q-97 -555 -639 -555q-541 0 -541 422z" />
    <glyph glyph-name="V" unicode="V" horiz-adv-x="1400" 
d="M762 0h-285q-59 0 -67 55l-203 1321q-10 70 53 70h242q59 0 65 -55l84 -695l21 -334h6l139 334l330 695q20 55 78 55h252q31 0 41 -20t-5 -50l-669 -1321q-31 -55 -82 -55z" />
    <glyph glyph-name="W" unicode="W" horiz-adv-x="2123" 
d="M1122 1446h207q66 0 70 -53l47 -611l20 -356h7l139 354l256 611q20 55 78 55h243q66 0 37 -72l-596 -1319q-29 -55 -82 -55h-254q-61 0 -65 55l-62 584l-20 295h-8l-123 -295l-266 -584q-25 -55 -80 -55h-256q-59 0 -66 55l-131 1319q-4 72 53 72h236q61 0 67 -55
l41 -611l15 -354h6l143 356l264 611q23 53 80 53z" />
    <glyph glyph-name="X" unicode="X" horiz-adv-x="1386" 
d="M256 0h-248q-29 0 -37 23t15 51l563 657l-320 641q-12 30 0 52t43 22h250q51 0 78 -53l186 -396l328 396q37 53 90 53h248q31 0 38 -23t-15 -51l-545 -639l330 -659q12 -30 -2 -52t-41 -22h-248q-51 0 -80 55l-197 410l-344 -410q-39 -55 -92 -55z" />
    <glyph glyph-name="Y" unicode="Y" horiz-adv-x="1384" 
d="M727 0h-231q-63 0 -52 59l84 473l-321 840q-10 26 5 50t46 24h240q57 0 73 -55l125 -390l52 -192h4l116 192l267 390q31 55 84 55h245q31 0 40 -24t-9 -50l-614 -840l-84 -473q-12 -59 -70 -59z" />
    <glyph glyph-name="Z" unicode="Z" horiz-adv-x="1269" 
d="M293 1133q-61 0 -49 61l35 192q8 59 65 60h916q63 0 51 -60l-31 -184q-10 -45 -55 -94l-740 -795h590q63 0 51 -59l-32 -195q-12 -59 -68 -59h-948q-63 0 -51 59l30 185q10 49 56 94l741 795h-561z" />
    <glyph glyph-name="bracketleft" unicode="[" horiz-adv-x="782" 
d="M528 -225h-399q-57 0 -49 57l274 1559q12 55 64 55h399q61 0 49 -55l-20 -121q-8 -57 -64 -58h-159l-213 -1204h155q57 0 49 -55l-22 -121q-8 -57 -64 -57z" />
    <glyph glyph-name="backslash" unicode="\" horiz-adv-x="948" 
d="M784 0h-166q-55 0 -69 51l-350 1325q-18 70 53 70h168q55 0 69 -51l351 -1325q16 -70 -56 -70z" />
    <glyph glyph-name="bracketright" unicode="]" horiz-adv-x="784" 
d="M51 8h162l211 1204h-154q-59 0 -51 58l23 121q8 55 61 55h399q59 0 52 -55l-277 -1559q-8 -57 -63 -57h-400q-57 0 -49 57l23 121q8 55 63 55z" />
    <glyph glyph-name="asciicircum" unicode="^" horiz-adv-x="1236" 
d="M694 1446h187q57 0 71 -45l234 -629q10 -33 -5 -53t-48 -21h-172q-55 0 -70 45l-148 410l-292 -410q-31 -45 -82 -45h-181q-33 0 -42 20t14 54l454 629q27 45 80 45z" />
    <glyph glyph-name="underscore" unicode="_" horiz-adv-x="1083" 
d="M868 -246h-903q-55 0 -45 56l10 63q8 57 62 57h903q59 0 47 -57l-10 -63q-11 -56 -64 -56z" />
    <glyph glyph-name="grave" unicode="`" horiz-adv-x="747" 
d="M516 1214q-43 0 -70 29l-155 174q-14 16 -6 38t34 22h232q47 0 59 -39l58 -178q4 -18 -6 -32t-35 -14h-111z" />
    <glyph glyph-name="a" unicode="a" horiz-adv-x="1200" 
d="M354 303q0 -104 123 -104t189 56t82 148l16 86q-249 -13 -320 -50q-34 -17 -62 -52t-28 -84zM948 0h-186q-49 0 -53 45l4 90q-129 -152 -357 -151q-154 0 -240 72t-87 196q0 195 125 284q45 32 91 55q128 66 550 77l6 39q16 77 -28 115t-171 38t-291 -57q-53 -20 -63 35
l-19 127q-6 47 47 69q197 80 416 80q442 0 443 -315q-1 -49 -9 -92l-116 -650q-8 -57 -62 -57z" />
    <glyph glyph-name="b" unicode="b" horiz-adv-x="1308" 
d="M299 0h-197q-61 0 -49 57l236 1334q10 55 63 55h221q57 0 50 -55l-76 -426q55 73 144 111t186 38q182 0 281 -102t99 -301q0 -82 -14 -168q-100 -565 -528 -566q-105 0 -201 42t-125 116l-27 -90q-18 -45 -63 -45zM459 432q0 -195 176 -194q109 0 175 72t93 235
q12 74 12 123q0 186 -172 186q-219 0 -272 -307q-12 -63 -12 -115z" />
    <glyph glyph-name="c" unicode="c" horiz-adv-x="1067" 
d="M733 1114q99 0 195 -22t140 -52q44 -31 15 -75l-79 -131q-33 -47 -89 -27q-78 37 -172 37q-260 0 -313 -297q-8 -66 -8 -90q0 -209 215 -209q111 0 201 43q61 25 73 -29l35 -129q12 -45 -45 -78q-129 -78 -341 -78t-347 114t-135 329q0 63 12 131q49 279 217 421t426 142
z" />
    <glyph glyph-name="d" unicode="d" horiz-adv-x="1308" 
d="M461 -23q-185 1 -285 101t-100 297q0 72 16 170q100 569 531 569q100 0 192 -41t121 -108l76 426q8 55 63 55h219q61 0 52 -55l-236 -1334q-12 -57 -63 -57h-199q-47 0 -51 45l6 90q-57 -76 -149 -117t-193 -41zM420 424q0 -186 172 -186q219 0 272 307q12 66 13 117
q0 193 -177 192q-108 0 -174 -73t-94 -236q-12 -72 -12 -121z" />
    <glyph glyph-name="e" unicode="e" horiz-adv-x="1206" 
d="M870 707q0 82 -44 127t-130 45q-207 0 -270 -256h436q8 56 8 84zM669 211q129 0 269 61q57 25 68 -34l18 -109q8 -41 -49 -70q-165 -84 -391 -84t-365 117t-139 332q0 61 12 129q47 269 210 415q164 146 394 146t348 -112t117 -302q0 -45 -10 -112l-18 -101
q-8 -55 -68 -55h-662v-26q5 -90 71 -142t195 -53z" />
    <glyph glyph-name="f" unicode="f" horiz-adv-x="792" 
d="M797 1059q59 0 47 -58l-23 -133q-8 -55 -63 -55h-187l-135 -762q-8 -51 -63 -51h-213q-59 0 -51 51l133 762h-90q-55 0 -48 55l23 133q12 57 63 58h95l14 78q31 171 126 249t271 78q123 0 181 -18q49 -12 41 -57l-23 -121q-10 -59 -57 -56q-61 8 -103 8q-93 1 -112 -108
l-9 -53h183z" />
    <glyph glyph-name="g" unicode="g" horiz-adv-x="1247" 
d="M473 -250q-106 0 -223 18t-172 46q-43 25 -23 69l60 127q27 55 78 35q129 -49 269 -49t212 55t94 164l14 72q-109 -145 -293 -145t-287 87q-103 88 -104 269q0 59 13 127q45 251 171 369t314 118q100 0 185 -41t116 -108l25 81q16 45 63 46h191q61 -1 49 -56l-146 -833
q-80 -451 -606 -451zM676 877q-193 0 -236 -254q-8 -66 -8 -91q0 -166 158 -165q190 0 237 262q8 39 9 82q0 166 -160 166z" />
    <glyph glyph-name="h" unicode="h" horiz-adv-x="1269" 
d="M1018 0h-221q-61 0 -49 57l104 586q6 37 6 66q0 127 -135 127q-99 0 -159 -60t-79 -158l-98 -563q-10 -55 -63 -55h-222q-61 0 -49 57l236 1334q10 55 63 55h221q57 0 50 -55l-76 -430q121 154 340 153q315 0 315 -305q0 -63 -12 -137l-109 -615q-12 -57 -63 -57z" />
    <glyph glyph-name="i" unicode="i" horiz-adv-x="591" 
d="M541 1200h-228q-55 0 -49 57l25 129q8 55 63 56h226q57 -1 49 -56l-23 -129q-8 -57 -63 -57zM326 0h-222q-57 0 -49 57l174 977q8 55 64 56h221q59 -1 49 -56l-174 -977q-8 -57 -63 -57z" />
    <glyph glyph-name="j" unicode="j" horiz-adv-x="632" 
d="M580 1200h-228q-55 0 -47 57l23 129q8 55 63 56h227q58 -1 50 -56l-23 -129q-8 -57 -65 -57zM555 1090q55 0 47 -56l-168 -950q-29 -172 -115 -249t-253 -77q-102 0 -158 14t-47 60l26 141q6 47 56 47l69 -8q78 1 94 105l162 917q12 55 64 56h223z" />
    <glyph glyph-name="k" unicode="k" horiz-adv-x="1165" 
d="M1024 0h-231q-53 0 -84 45l-252 401l-70 -389q-8 -57 -61 -57h-222q-63 0 -51 57l236 1334q10 55 63 55h221q57 0 50 -55l-113 -629l332 287q37 41 90 41h256q31 0 36 -23t-22 -49l-487 -420l344 -526q16 -28 5 -50t-40 -22z" />
    <glyph glyph-name="l" unicode="l" horiz-adv-x="587" 
d="M326 0h-224q-57 0 -49 57l236 1334q10 55 63 55h221q58 0 50 -55l-236 -1334q-12 -57 -61 -57z" />
    <glyph glyph-name="m" unicode="m" horiz-adv-x="1878" 
d="M971 0h-215q-63 0 -51 57l104 596q8 53 8 72q0 113 -117 113q-88 0 -145 -58t-74 -151l-102 -572q-8 -57 -62 -57h-219q-59 0 -51 57l174 977q8 55 64 56h198q53 0 54 -46l-2 -92q137 162 331 162q240 0 283 -172q141 172 371 172q295 0 295 -295q0 -59 -13 -131
l-112 -631q-8 -57 -62 -57h-219q-59 0 -51 57l106 594q6 37 6 68q0 119 -118 119q-86 0 -142 -56t-75 -147l-103 -578q-8 -57 -61 -57z" />
    <glyph glyph-name="n" unicode="n" horiz-adv-x="1261" 
d="M1008 0h-222q-57 0 -49 57l105 586q6 37 6 66q0 127 -135 127q-97 0 -157 -58t-77 -160l-100 -561q-8 -57 -64 -57h-219q-61 0 -49 57l172 977q12 55 64 56h198q53 0 54 -46l-3 -92q137 162 347 162q315 0 315 -301q0 -61 -12 -135l-111 -621q-8 -57 -63 -57z" />
    <glyph glyph-name="o" unicode="o" horiz-adv-x="1253" 
d="M586 236q207 0 264 309q12 70 12 121q0 190 -168 190q-207 0 -264 -311q-12 -68 -12 -119q0 -190 168 -190zM574 -23q-238 0 -367 113t-129 324q0 61 12 135q49 279 213 422q165 143 403 143t367 -113t129 -323q0 -61 -12 -135q-49 -279 -213 -423q-165 -144 -403 -143z
" />
    <glyph glyph-name="p" unicode="p" horiz-adv-x="1304" 
d="M870 1114q182 0 282 -102t99 -301q0 -82 -14 -168q-96 -565 -528 -566q-103 0 -195 39t-119 111l-53 -295q-8 -57 -66 -57h-221q-55 0 -47 57l213 1202q8 55 64 56h196q51 -1 51 -46l-4 -90q56 74 150 117t192 43zM455 430q0 -193 174 -192q109 0 175 72t93 235
q12 74 12 123q0 186 -170 186q-219 0 -274 -309q-10 -53 -10 -115z" />
    <glyph glyph-name="q" unicode="q" horiz-adv-x="1304" 
d="M1233 1090q61 0 49 -56l-211 -1202q-12 -57 -65 -57h-222q-57 0 -49 57l53 293q-109 -147 -327 -148q-183 -1 -283 103t-100 303q0 82 14 166q100 565 531 565q102 0 190 -41t133 -119l27 90q16 45 63 46h197zM420 424q0 -186 172 -186q219 0 272 307q12 66 13 117
q0 193 -177 192q-108 0 -174 -73t-94 -236q-12 -72 -12 -121z" />
    <glyph glyph-name="r" unicode="r" horiz-adv-x="864" 
d="M319 0h-221q-59 0 -51 57l174 977q9 56 64 56h198q51 0 52 -50l-11 -139q52 78 146 139t204 62q29 0 39 -11t5 -40l-37 -226q-10 -45 -58 -45l-75 4q-109 0 -187 -74t-96 -186l-84 -467q-8 -57 -62 -57z" />
    <glyph glyph-name="s" unicode="s" horiz-adv-x="995" 
d="M903 340q0 -193 -140 -278q-141 -85 -365 -85t-369 60q-47 20 -27 67l57 119q23 53 76 35q113 -39 230 -39q209 0 208 105q-1 38 -39 64t-148 64t-187 103q-78 66 -78 188q0 193 132 282t351 89t340 -55q47 -20 25 -70l-54 -115q-25 -51 -75 -36q-94 35 -213 34
q-174 0 -174 -98q0 -40 41 -66q42 -26 154 -72t184 -114t71 -182z" />
    <glyph glyph-name="t" unicode="t" horiz-adv-x="808" 
d="M457 -18q-162 0 -242 57t-80 190q0 51 12 113l82 471h-92q-59 0 -47 55l23 133q12 57 63 58h100l43 248q12 49 66 49h205q59 0 51 -49l-43 -248h199q61 0 49 -58l-23 -133q-12 -55 -65 -55h-201l-80 -448q-13 -74 9 -102t94 -27l82 10q47 0 40 -51l-18 -136
q-4 -41 -61 -57q-82 -20 -166 -20z" />
    <glyph glyph-name="u" unicode="u" horiz-adv-x="1249" 
d="M496 1090q57 0 49 -56l-107 -598q-6 -35 -6 -65q0 -121 129 -121q92 0 154 57q61 57 78 154l100 573q8 55 63 56h222q59 0 49 -56l-174 -977q-8 -57 -62 -57h-200q-49 0 -54 45l2 94q-43 -69 -127 -115t-200 -47q-328 0 -328 291q0 53 12 121l115 645q10 55 63 56h222z
" />
    <glyph glyph-name="v" unicode="v" horiz-adv-x="1155" 
d="M621 0h-246q-57 0 -66 45l-176 979q-10 66 51 66h222q57 0 59 -52l55 -430l23 -282h6l127 282l203 430q27 51 73 52h234q29 0 38 -18t-5 -48l-523 -979q-24 -45 -75 -45z" />
    <glyph glyph-name="w" unicode="w" horiz-adv-x="1773" 
d="M907 1090h162q51 0 55 -48l58 -491l8 -215h6l80 215l205 487q20 51 73 52h236q29 0 38 -18t-5 -48l-459 -969q-27 -55 -78 -55h-217q-61 0 -68 55l-53 426l-16 226h-8l-95 -226l-202 -426q-27 -55 -82 -55h-217q-53 0 -64 55l-119 969q-6 66 54 66h223q57 0 59 -52
l35 -487l2 -215h6l86 215l230 491q22 48 67 48z" />
    <glyph glyph-name="x" unicode="x" horiz-adv-x="1150" 
d="M1171 1090q29 0 35 -20t-16 -50l-426 -469l268 -481q14 -26 3 -48t-40 -22h-225q-61 0 -82 45l-135 285l-244 -285q-33 -45 -90 -45h-225q-31 0 -37 20t18 50l441 481l-262 469q-14 26 -3 48t39 22h224q60 -1 80 -46l135 -270l227 270q35 45 92 46h223z" />
    <glyph glyph-name="y" unicode="y" horiz-adv-x="1146" 
d="M266 -242q-146 0 -217 23q-51 14 -43 57l35 135q10 47 57 47q6 0 46 -6t92 -6t82 33q28 33 16 88l-197 895q-14 66 49 66h224q55 0 61 -52l64 -446l28 -287h6l115 287l188 446q20 51 74 52h230q30 0 40 -18t-4 -48l-462 -922q-66 -136 -117 -202t-136 -104t-231 -38z" />
    <glyph glyph-name="z" unicode="z" horiz-adv-x="1083" 
d="M905 264q59 0 47 -55l-28 -152q-8 -57 -62 -57h-803q-59 0 -51 57l21 117q10 41 39 70l591 581h-440q-57 0 -49 56l29 153q10 55 63 56h780q60 -1 50 -56l-23 -116q-8 -47 -45 -80l-582 -574h463z" />
    <glyph glyph-name="braceleft" unicode="{" horiz-adv-x="782" 
d="M156 741h28q57 0 97 67q39 68 75 270t116 285q81 83 276 83h98q59 0 49 -55l-21 -123q-12 -55 -67 -56h-33q-61 0 -89 -48t-48 -175q-61 -334 -248 -379q127 -33 127 -225q0 -72 -15 -158q-29 -164 2 -198q17 -20 58 -21h33q59 0 47 -55l-20 -121q-12 -57 -68 -57h-98
q-154 0 -216 47t-63 174q0 63 20 181t19 181q0 123 -76 123h-30q-58 1 -46 56l27 147q8 57 66 57z" />
    <glyph glyph-name="bar" unicode="|" horiz-adv-x="665" 
d="M473 1430v-1598q0 -57 -55 -57h-170q-57 0 -58 57v1598q0 57 58 57h170q55 0 55 -57z" />
    <glyph glyph-name="braceright" unicode="}" horiz-adv-x="782" 
d="M645 481q-55 1 -93 -67t-67 -228q-43 -244 -126 -328t-275 -83h-100q-55 0 -47 57l22 121q8 55 68 55h32q61 0 88 49t48 172q61 336 249 381q-129 33 -129 221q1 66 17 157t16 137q0 47 -17 67t-61 20h-32q-55 0 -48 56l21 123q12 55 68 55h100q152 0 214 -47t62 -174
q0 -82 -19 -191t-20 -172q0 -121 76 -121h31q55 0 47 -57l-29 -147q-8 -55 -65 -56h-31z" />
    <glyph glyph-name="asciitilde" unicode="~" horiz-adv-x="1234" 
d="M432 950q102 0 209 -53l92 -47q66 -33 113 -33q72 0 108 64q6 3 18 29t38 33q25 7 47 -7l94 -55q45 -23 31 -90q-31 -115 -106 -187t-179 -72t-207 54l-92 47q-66 33 -126 33t-97 -62q-10 -10 -19 -35q-29 -51 -84 -20l-94 53q-43 27 -28 82q31 121 105 194q75 72 177 72
z" />
    <glyph glyph-name="uni00A0" unicode="&#xa0;" horiz-adv-x="0" 
 />
    <glyph glyph-name="exclamdown" unicode="&#xa1;" horiz-adv-x="653" 
d="M274 631h156q57 0 51 -53l-82 -822q-6 -59 -67 -59h-279q-66 0 -49 59l205 822q16 53 65 53zM492 758h-226q-63 0 -51 55l39 221q8 55 63 56h234q59 -1 49 -56l-39 -221q-12 -55 -69 -55z" />
    <glyph glyph-name="cent" unicode="&#xa2;" horiz-adv-x="1116" 
d="M756 1294h98q61 0 49 -55l-22 -131q150 -18 227 -70q43 -29 14 -75l-82 -129q-31 -51 -84 -27q-86 37 -188 37q-283 0 -336 -299q-6 -45 -6 -84q0 -213 238 -213q119 0 210 41q59 25 76 -27l37 -129q12 -47 -43 -78q-98 -55 -262 -71l-23 -131q-8 -57 -65 -58h-98
q-55 0 -47 58l22 133q-176 18 -283 133q-106 115 -106 305q0 68 10 125q45 252 198 396t380 163l22 131q12 55 64 55z" />
    <glyph glyph-name="sterling" unicode="&#xa3;" horiz-adv-x="1366" 
d="M834 1194q-108 0 -179 -71q-72 -71 -71 -185q0 -35 26 -133h353q45 0 38 -41l-14 -74q-8 -43 -49 -43h-301q8 -39 8 -80q0 -184 -207 -297q133 32 283 3q82 -15 129 -15q133 0 162 135q14 51 71 51h150q66 0 53 -71q-36 -197 -112 -293t-252 -96q-94 0 -228 30t-252 29
q-119 0 -231 -45q-70 -25 -82 4l-82 160q-25 45 25 74q276 141 276 329q0 39 -12 82h-182q-47 0 -37 43l12 74q8 41 47 41h109q-33 94 -33 156q0 245 181 377t425 132t366 -94t122 -248t-72 -155h-209q-41 0 -41 28l14 84q0 49 -48 79t-156 30z" />
    <glyph glyph-name="currency" unicode="&#xa4;" horiz-adv-x="1271" 
d="M856 581q0 101 -59 161t-161 60t-162 -60t-60 -161t60 -161t162 -62q102 0 161 61t59 162zM190 581q0 153 80 257l-84 84q-31 31 0 59l47 47q31 31 62 0l84 -86q109 72 257 72t257 -72l86 86q27 29 59 0l47 -47q31 -29 0 -59l-86 -86q80 -104 80 -257t-80 -253l86 -86
q31 -29 0 -60l-47 -47q-31 -29 -59 0l-86 88q-105 -74 -255 -74t-259 74l-84 -88q-31 -29 -62 0l-47 47q-33 29 0 60l84 84q-80 104 -80 257z" />
    <glyph glyph-name="yen" unicode="&#xa5;" horiz-adv-x="1343" 
d="M707 0h-232q-63 0 -51 59l47 271h-317q-43 0 -35 43l10 71q8 41 49 41h322l4 35l-41 113h-256q-43 0 -35 43l12 72q6 41 49 40h179l-213 584q-10 30 5 52t46 22h244q59 0 73 -55l162 -578h8l367 578q29 55 84 55h244q32 0 40 -23t-12 -51l-416 -584h177q43 0 36 -40
l-12 -72q-8 -43 -49 -43h-258l-82 -113l-4 -35h315q43 0 37 -41l-12 -71q-8 -43 -49 -43h-320l-47 -271q-12 -59 -69 -59z" />
    <glyph glyph-name="brokenbar" unicode="&#xa6;" horiz-adv-x="665" 
d="M473 406v-574q0 -57 -55 -57h-170q-57 0 -58 57v574q0 57 58 57h170q55 0 55 -57zM473 1430v-574q0 -57 -55 -57h-170q-57 0 -58 57v574q0 57 58 57h170q55 0 55 -57z" />
    <glyph glyph-name="section" unicode="&#xa7;" horiz-adv-x="1376" 
d="M473 641q0 -53 72 -91t258 -104q139 49 139 125q0 57 -79 103t-253 104q-53 -16 -95 -50t-42 -87zM143 602q0 112 73 190t187 111q-104 90 -104 203q0 362 555 362q258 0 408 -57q47 -20 28 -72l-49 -120q-23 -53 -78 -37q-129 35 -293 35q-242 0 -241 -113q0 -23 12 -41
q23 -35 205 -105q206 -69 315 -155q111 -87 111 -197t-69 -170t-193 -114q121 -80 120 -209q0 -103 -57 -179q-133 -176 -557 -180q-283 0 -416 58q-47 20 -28 71l47 121q23 55 80 37q127 -35 313 -35q289 0 289 109q-1 35 -23 53q-42 34 -80 51l-45 20q-18 7 -51 19l-49 18
q-221 84 -315 150q-94 64 -95 176z" />
    <glyph glyph-name="dieresis" unicode="&#xa8;" horiz-adv-x="747" 
d="M635 1214q-55 0 -47 56l20 125q12 55 66 55h170q59 0 47 -55l-21 -125q-8 -55 -65 -56h-170zM209 1214q-57 0 -49 56l22 125q8 55 64 55h170q57 0 49 -55l-23 -125q-8 -55 -63 -56h-170z" />
    <glyph glyph-name="copyright" unicode="&#xa9;" horiz-adv-x="1792" 
d="M119 723q0 317 206 532q205 215 571 215t572 -215t207 -532q0 -317 -207 -531q-206 -214 -572 -215q-366 1 -572 215t-205 531zM283 723q1 -258 159 -425t453 -167t455 167t160 425t-160 426t-455 168t-453 -168t-159 -426zM754 732q0 -108 54 -162t141 -54t157 33
q43 18 61 -21l43 -108q14 -34 -24 -58t-113 -42q-76 -18 -147 -19q-203 0 -324 110q-121 109 -121 321t120 322t323 109q162 0 260 -59q39 -20 20 -57l-45 -109q-16 -39 -59 -20q-62 28 -150 28t-142 -53t-54 -161z" />
    <glyph glyph-name="ordfeminine" unicode="&#xaa;" horiz-adv-x="978" 
d="M664 1692q-92 0 -242 -52q-55 -18 -64 31l-16 103q-8 39 43 59q170 68 336 68q365 0 364 -256q0 -35 -6 -74l-90 -514q-10 -53 -63 -53h-144q-47 0 -47 43v49q-104 -104 -284 -105q-115 1 -191 61t-76 147q0 165 100 237t217 86q116 14 283 18h19l6 37q10 59 -22 87
q-31 28 -123 28zM719 1391q-101 -1 -132 -13q-32 -12 -66 -26q-64 -26 -64 -101q0 -80 96 -80q97 0 149 43t64 113l10 64h-57z" />
    <glyph glyph-name="guillemotleft" unicode="&#xab;" horiz-adv-x="1083" 
d="M848 946h186q27 0 34 -17t-11 -40l-226 -295l121 -295q10 -25 -1 -41t-38 -16h-186q-47 0 -61 39l-119 286q-4 11 -4 25l12 29l219 286q33 39 74 39zM387 946h186q29 0 36 -17t-11 -40l-227 -295l123 -295q10 -23 -2 -40t-39 -17h-187q-47 0 -61 39l-119 286q-6 17 -2 27
q0 12 12 27l217 286q33 39 74 39z" />
    <glyph glyph-name="logicalnot" unicode="&#xac;" horiz-adv-x="1290" 
d="M827 227q-57 0 -49 58l53 295h-647q-55 0 -47 57l27 160q12 55 65 55h924q57 0 49 -55l-92 -512q-8 -57 -66 -58h-217z" />
    <glyph glyph-name="uni00AD" unicode="&#xad;" horiz-adv-x="823" 
d="M682 438h-551q-57 0 -47 56l29 153q8 55 61 55h551q61 0 49 -53l-26 -155q-11 -56 -66 -56z" />
    <glyph glyph-name="registered" unicode="&#xae;" horiz-adv-x="970" 
d="M332 934v356q0 25 24 25h144q180 0 180 -141q0 -92 -86 -121l80 -117q6 -10 2 -17t-14 -8h-74q-20 0 -31 17l-68 108h-43v-102q0 -23 -22 -23h-68q-24 0 -24 23zM484 823q144 0 216 79t72 206t-72 206t-216 79t-216 -79t-72 -206t72 -206t216 -79zM485 1470
q179 0 275 -104t96 -258t-96 -258t-274 -104t-276 104q-97 104 -97 258t97 258t275 104zM446 1122h46q41 0 57 12t16 40q0 51 -71 51h-48v-103z" />
    <glyph glyph-name="macron" unicode="&#xaf;" horiz-adv-x="747" 
d="M819 1225h-624q-53 0 -45 53l14 80q8 53 61 53h625q53 0 45 -53l-12 -80q-11 -53 -64 -53z" />
    <glyph glyph-name="degree" unicode="&#xb0;" horiz-adv-x="788" 
d="M846 1206q0 -150 -108 -252t-250 -102t-222 73t-80 185q0 148 109 250t250 102t221 -72t80 -184zM502 1004q66 0 120 51t54 117t-38 104q-38 37 -104 37t-122 -51q-56 -50 -56 -118t39 -105q41 -35 107 -35z" />
    <glyph glyph-name="plusminus" unicode="&#xb1;" horiz-adv-x="1236" 
d="M991 0h-907q-59 0 -49 55l18 97q8 55 64 55h905q61 0 49 -55l-16 -97q-13 -55 -64 -55zM1110 686h-303l-51 -280q-6 -55 -62 -56h-190q-55 0 -47 56l49 280h-301q-59 0 -47 55l26 154q12 55 66 55h303l49 279q8 55 64 55h190q57 0 47 -55l-49 -279h299q61 0 49 -55
l-26 -154q-9 -55 -66 -55z" />
    <glyph glyph-name="two.superior" unicode="&#xb2;" 
d="M508 1581q0 -53 -51 -53h-125q-47 0 -47 45q0 156 105 242q106 86 270 86t244 -68t81 -176q0 -233 -416 -457h303q57 0 48 -53l-15 -88q-10 -55 -63 -55h-606q-57 0 -46 55l15 80q6 29 47 51q258 142 368 244t111 198q0 74 -96 74q-61 0 -94 -36t-33 -89z" />
    <glyph glyph-name="three.superior" unicode="&#xb3;" 
d="M551 1366h-107q-53 0 -45 53l13 68q10 53 59 53h104q53 0 91 27q37 27 36 73q0 68 -108 68t-209 -39q-53 -20 -66 25l-18 90q-8 37 39 59q130 57 282 57t243 -54q91 -56 91 -144t-43 -150t-110 -92q102 -49 102 -155q-1 -158 -113 -236t-296 -78t-297 62q-45 23 -23 59
l49 88q29 49 76 29q94 -43 180 -43q174 0 174 114q0 66 -104 66z" />
    <glyph glyph-name="acute" unicode="&#xb4;" horiz-adv-x="747" 
d="M535 1477h241q29 0 32 -22t-17 -38l-207 -174q-31 -29 -74 -29h-123q-25 0 -32 14t3 32l113 178q23 39 64 39z" />
    <glyph glyph-name="mu" unicode="&#xb5;" horiz-adv-x="1251" 
d="M276 -225h-221q-55 0 -47 57l213 1202q8 55 64 56h221q59 0 49 -56l-102 -575q-16 -96 24 -153q41 -56 130 -56t131 46t59 138l106 600q10 55 64 56h221q57 -1 49 -56l-117 -663q-35 -205 -134 -300t-286 -96q-120 -1 -200 47t-109 115l-49 -309q-12 -53 -66 -53z" />
    <glyph glyph-name="paragraph" unicode="&#xb6;" horiz-adv-x="1150" 
d="M627 528q-197 0 -326 102t-127 281q2 233 163 384t408 151h474q59 0 49 -55l-11 -60q-12 -55 -63 -55h-74q-57 0 -85 -24t-38 -83l-200 -1140q-25 -139 -83 -201t-184 -64q-126 0 -174 29q-29 14 -20 45l14 72q6 33 45 33l84 -9q84 0 105 119l86 475h-43z" />
    <glyph glyph-name="periodcentered" unicode="&#xb7;" horiz-adv-x="532" 
d="M205 733h209q66 0 53 -55l-39 -217q-8 -57 -61 -58h-222q-57 1 -49 58l39 217q12 55 70 55z" />
    <glyph glyph-name="cedilla" unicode="&#xb8;" horiz-adv-x="747" 
d="M286 -360q-94 0 -130 12t-29 37l12 75q6 33 41 33h64q106 0 106 76q0 84 -147 145h106q88 -16 153 -70q64 -54 64 -137t-72 -127q-74 -44 -168 -44z" />
    <glyph glyph-name="one.superior" unicode="&#xb9;" 
d="M684 1888h137q57 0 47 -55l-137 -774q-10 -55 -61 -55h-140q-57 0 -45 55l101 573l-137 -67q-47 -23 -68 12l-39 82q-16 35 20 57l250 152q33 20 72 20z" />
    <glyph glyph-name="ordmasculine" unicode="&#xba;" horiz-adv-x="1011" 
d="M628 991q-196 0 -301 89t-106 261q0 41 10 107q39 225 171 339t326 114q194 -1 300 -89q104 -88 105 -258q0 -45 -11 -110q-37 -225 -168 -339q-130 -114 -326 -114zM719 1683q-166 0 -207 -237q-8 -43 -8 -88q0 -150 133 -150q164 0 207 238q8 47 8 90q0 147 -133 147z
" />
    <glyph glyph-name="guillemotright" unicode="&#xbb;" horiz-adv-x="1083" 
d="M276 242h-186q-29 0 -35 16t13 41l227 295l-123 295q-10 25 1 41t38 16h186q51 0 64 -39l119 -286q6 -17 2 -27q0 -12 -11 -27l-219 -286q-31 -39 -76 -39zM737 242h-186q-29 0 -35 16t12 41l228 295l-123 295q-10 25 1 41t38 16h186q47 0 64 -39l118 -286q6 -17 2 -27
q0 -12 -12 -27l-217 -286q-31 -39 -76 -39z" />
    <glyph glyph-name="onequarter" unicode="&#xbc;" horiz-adv-x="2074" 
d="M1931 174h-73l-21 -121q-10 -55 -63 -55h-138q-55 0 -45 55l23 121h-383q-53 0 -47 47l18 98q2 27 29 54l491 481q33 29 64 29h141q57 0 45 -56l-80 -458h68q59 0 47 -54l-14 -88q-9 -53 -62 -53zM1694 631l-271 -262h224zM627 0h-135q-63 0 -21 57l1028 1336
q41 53 88 53h135q66 0 23 -55l-1028 -1336q-43 -55 -90 -55zM743 1446q57 0 48 -55l-138 -775q-10 -55 -61 -55h-139q-57 0 -45 55l100 574l-137 -68q-47 -23 -68 13l-39 82q-16 35 21 57l250 151q33 20 71 21h137z" />
    <glyph glyph-name="onehalf" unicode="&#xbd;" horiz-adv-x="2074" 
d="M559 0h-135q-63 0 -21 57l1029 1336q41 53 88 53h135q65 0 22 -55l-1028 -1336q-43 -55 -90 -55zM1530 575q0 -53 -51 -53h-125q-47 0 -47 45q0 156 105 242t269 86t245 -68t81 -176q0 -233 -416 -456h303q57 0 48 -54l-15 -88q-10 -55 -63 -55h-607q-57 0 -45 55l15 80
q6 29 47 51q9 6 145 82q136 77 219 158q115 110 115 203q0 74 -96 73q-61 0 -94 -36t-33 -89zM743 1448q57 0 48 -55l-138 -775q-10 -55 -61 -55h-139q-57 0 -45 55l100 574l-137 -68q-47 -23 -68 13l-39 82q-16 35 21 57l250 151q33 20 71 21h137z" />
    <glyph glyph-name="threequarters" unicode="&#xbe;" horiz-adv-x="2074" 
d="M1931 174h-73l-21 -121q-10 -55 -63 -55h-138q-55 0 -45 55l23 121h-383q-53 0 -47 47l18 98q2 27 29 54l491 481q33 29 64 29h141q57 0 45 -56l-80 -458h68q59 0 47 -54l-14 -88q-9 -53 -62 -53zM1694 631l-271 -262h224zM657 0h-135q-63 0 -20 57l1028 1336
q41 53 88 53h135q66 0 23 -55l-1028 -1336q-43 -55 -91 -55zM473 924h-106q-53 0 -45 53l12 67q10 53 59 54h105q53 0 90 26t37 74q-1 68 -109 68t-209 -39q-53 -20 -65 24l-19 90q-8 37 39 60q130 57 282 57t243 -55t91 -143t-42 -150q-43 -61 -111 -92q102 -49 102 -156
q-1 -158 -113 -236t-296 -77q-184 0 -297 61q-45 23 -23 60l49 88q29 49 76 28q94 -43 180 -43q175 0 175 115q-1 66 -105 66z" />
    <glyph glyph-name="questiondown" unicode="&#xbf;" horiz-adv-x="1040" 
d="M680 631q61 0 51 -56l-4 -26q-7 -55 -69 -117t-132 -111q-70 -48 -127 -122q-57 -75 -57 -135t40 -82t156 -23q116 0 265 57q59 25 71 -30l31 -148q10 -49 -47 -74q-193 -86 -411 -86q-217 0 -337 75t-120 210q0 96 42 179q42 82 102 138t122 101t108 88t52 80l4 26
q10 55 67 56h193zM729 758h-227q-59 0 -51 55l38 221q12 55 66 56h233q60 -1 48 -56l-39 -223q-10 -53 -68 -53z" />
    <glyph glyph-name="Agrave" unicode="&#xc0;" horiz-adv-x="1419" 
d="M846 1550q-43 0 -70 29l-147 174q-14 16 -7 39t33 23h242q49 0 59 -41l54 -179q4 -18 -8 -31t-35 -14h-121zM735 1446h287q55 0 68 -55l221 -1321q3 -30 -11 -50t-45 -20h-237q-59 0 -66 55l-34 221h-476l-112 -221q-27 -55 -78 -55h-250q-31 0 -41 19t6 51l688 1321
q15 31 31 43t49 12zM559 569h342l-72 531h-4z" />
    <glyph glyph-name="Aacute" unicode="&#xc1;" horiz-adv-x="1419" 
d="M989 1815h242q29 0 31 -23t-19 -39l-207 -174q-35 -29 -78 -29h-124q-23 0 -30 14t3 31l113 179q25 41 69 41zM735 1446h287q55 0 68 -55l221 -1321q3 -30 -11 -50t-45 -20h-237q-59 0 -66 55l-34 221h-476l-112 -221q-27 -55 -78 -55h-250q-31 0 -41 19t6 51l688 1321
q15 31 31 43t49 12zM559 569h342l-72 531h-4z" />
    <glyph glyph-name="Acircumflex" unicode="&#xc2;" horiz-adv-x="1419" 
d="M702 1550h-106q-27 0 -31 18t17 36l223 202q37 35 80 35h127q47 0 73 -35l152 -202q12 -16 3 -34t-34 -20h-100q-24 0 -59 27l-119 109l-158 -109q-45 -27 -68 -27zM735 1446h287q55 0 68 -55l221 -1321q3 -30 -11 -50t-45 -20h-237q-59 0 -66 55l-34 221h-476l-112 -221
q-27 -55 -78 -55h-250q-31 0 -41 19t6 51l688 1321q15 31 31 43t49 12zM559 569h342l-72 531h-4z" />
    <glyph glyph-name="Atilde" unicode="&#xc3;" horiz-adv-x="1419" 
d="M1110 1542q-78 0 -168 33l-82 33q-140 56 -158 -9l-4 -14q-12 -37 -57 -37h-74q-27 0 -37 14t-2 54q14 86 68 137t138 51q83 0 167 -35l84 -32q63 -25 103 -25t53 35l4 14q14 39 59 39h72q51 0 39 -78q-33 -180 -205 -180zM735 1446h287q55 0 68 -55l221 -1321
q3 -30 -11 -50t-45 -20h-237q-59 0 -66 55l-34 221h-476l-112 -221q-27 -55 -78 -55h-250q-31 0 -41 19t6 51l688 1321q15 31 31 43t49 12zM559 569h342l-72 531h-4z" />
    <glyph glyph-name="Adieresis" unicode="&#xc4;" horiz-adv-x="1419" 
d="M1030 1550q-55 0 -47 56l21 120q12 57 63 58h176q61 -1 49 -58l-20 -120q-12 -55 -66 -56h-176zM596 1550q-59 0 -47 56l20 120q12 57 64 58h174q63 -1 51 -58l-22 -120q-8 -55 -66 -56h-174zM735 1446h287q55 0 68 -55l221 -1321q3 -30 -11 -50t-45 -20h-237
q-59 0 -66 55l-34 221h-476l-112 -221q-27 -55 -78 -55h-250q-31 0 -41 19t6 51l688 1321q15 31 31 43t49 12zM559 569h342l-72 531h-4z" />
    <glyph glyph-name="Aring" unicode="&#xc5;" horiz-adv-x="1419" 
d="M1012 1561q0 45 -28 69t-75 25q-47 0 -85 -33t-38 -80t28 -72t71 -24h10q49 4 83 37t34 78zM559 569h342l-72 531h-4zM647 1518q0 114 80 188q79 74 187 74t172 -56t65 -149q0 -92 -68 -166l7 -18l221 -1321q3 -30 -11 -50t-45 -20h-237q-59 0 -66 55l-34 221h-476
l-112 -221q-27 -55 -78 -55h-250q-31 0 -41 19t6 51l688 1321q12 25 19 30q-27 40 -27 97z" />
    <glyph glyph-name="AE" unicode="&#xc6;" horiz-adv-x="1847" 
d="M573 561h299l105 590h-51zM1692 594h-467l-54 -297h500q61 0 53 -59l-30 -179q-12 -59 -70 -59h-788q-63 0 -52 59l37 211h-381l-131 -215q-27 -55 -80 -55h-252q-31 0 -41 20t7 50l796 1321q31 55 82 55h1043q57 0 49 -60l-29 -178q-8 -59 -67 -59h-494l-49 -272h463
q61 0 51 -60l-31 -164q-10 -59 -65 -59z" />
    <glyph glyph-name="Ccedilla" unicode="&#xc7;" horiz-adv-x="1280" 
d="M473 575q-1 -292 299 -292q144 0 258 53q63 25 78 -31l43 -149q12 -41 -47 -78q-176 -100 -402 -101h-18q109 -63 109 -160t-78 -147q-77 -50 -177 -51q-100 0 -133 12t-30 39l14 80q6 35 43 35h66q111 0 110 80q0 76 -108 135q-186 45 -287 178q-100 133 -100 350
q0 90 18 195q66 375 267 561q202 186 517 186q125 0 234 -30t151 -58q42 -30 47 -46t-12 -44l-94 -147q-31 -53 -88 -29q-90 47 -217 47q-192 0 -300 -105t-149 -335q-14 -96 -14 -148z" />
    <glyph glyph-name="Egrave" unicode="&#xc8;" horiz-adv-x="1171" 
d="M795 1550q-43 0 -70 29l-147 174q-14 16 -8 39q7 23 34 23h242q49 0 59 -41l53 -179q4 -18 -7 -31t-36 -14h-120zM1014 594h-514l-54 -299h549q61 0 54 -59l-31 -175q-14 -61 -70 -61h-835q-63 0 -52 59l234 1327q8 59 65 60h828q61 0 53 -60l-33 -176q-8 -61 -67 -61
h-543l-47 -272h510q57 0 51 -60l-31 -164q-10 -59 -67 -59z" />
    <glyph glyph-name="Eacute" unicode="&#xc9;" horiz-adv-x="1171" 
d="M866 1815h242q29 0 31 -23t-19 -39l-207 -174q-35 -29 -77 -29h-125q-23 0 -30 14t3 31l113 179q25 41 69 41zM1014 594h-514l-54 -299h549q61 0 54 -59l-31 -175q-14 -61 -70 -61h-835q-63 0 -52 59l234 1327q8 59 65 60h828q61 0 53 -60l-33 -176q-8 -61 -67 -61h-543
l-47 -272h510q57 0 51 -60l-31 -164q-10 -59 -67 -59z" />
    <glyph glyph-name="Ecircumflex" unicode="&#xca;" horiz-adv-x="1171" 
d="M606 1550h-106q-27 0 -31 18t16 36l224 202q37 35 79 35h127q47 0 74 -35l152 -202q12 -16 3 -34t-34 -20h-100q-25 0 -60 27l-119 109l-157 -109q-45 -27 -68 -27zM1014 594h-514l-54 -299h549q61 0 54 -59l-31 -175q-14 -61 -70 -61h-835q-63 0 -52 59l234 1327
q8 59 65 60h828q61 0 53 -60l-33 -176q-8 -61 -67 -61h-543l-47 -272h510q57 0 51 -60l-31 -164q-10 -59 -67 -59z" />
    <glyph glyph-name="Edieresis" unicode="&#xcb;" horiz-adv-x="1171" 
d="M934 1550q-55 0 -47 56l20 120q12 57 64 58h176q61 -1 49 -58l-20 -120q-12 -55 -66 -56h-176zM500 1550q-59 0 -47 56l20 120q12 57 64 58h174q63 -1 51 -58l-23 -120q-8 -55 -65 -56h-174zM1014 594h-514l-54 -299h549q61 0 54 -59l-31 -175q-14 -61 -70 -61h-835
q-63 0 -52 59l234 1327q8 59 65 60h828q61 0 53 -60l-33 -176q-8 -61 -67 -61h-543l-47 -272h510q57 0 51 -60l-31 -164q-10 -59 -67 -59z" />
    <glyph glyph-name="Igrave" unicode="&#xcc;" horiz-adv-x="638" 
d="M473 1550q-43 0 -70 29l-147 174q-14 16 -7 39t34 23h241q50 0 60 -41l53 -179q4 -18 -7 -31t-36 -14h-121zM604 1446q63 0 51 -60l-233 -1327q-12 -59 -68 -59h-231q-63 0 -51 59l233 1327q8 59 66 60h233z" />
    <glyph glyph-name="Iacute" unicode="&#xcd;" horiz-adv-x="638" 
d="M594 1815h242q28 0 30 -23t-18 -39l-207 -174q-35 -29 -78 -29h-125q-24 0 -30 14t4 31l112 179q25 41 70 41zM604 1446q63 0 51 -60l-233 -1327q-12 -59 -68 -59h-231q-63 0 -51 59l233 1327q8 59 66 60h233z" />
    <glyph glyph-name="Icircumflex" unicode="&#xce;" horiz-adv-x="638" 
d="M311 1550h-106q-27 0 -31 18t16 36l224 202q37 35 80 35h127q47 0 73 -35l152 -202q12 -16 3 -34t-34 -20h-100q-25 0 -60 27l-118 109l-158 -109q-45 -27 -68 -27zM604 1446q63 0 51 -60l-233 -1327q-12 -59 -68 -59h-231q-63 0 -51 59l233 1327q8 59 66 60h233z" />
    <glyph glyph-name="Idieresis" unicode="&#xcf;" horiz-adv-x="638" 
d="M639 1550q-55 0 -47 56l20 120q12 57 64 58h176q61 -1 49 -58l-20 -120q-12 -55 -66 -56h-176zM205 1550q-59 0 -47 56l20 120q12 57 64 58h174q63 -1 51 -58l-23 -120q-8 -55 -65 -56h-174zM604 1446q63 0 51 -60l-233 -1327q-12 -59 -68 -59h-231q-63 0 -51 59
l233 1327q8 59 66 60h233z" />
    <glyph glyph-name="Eth" unicode="&#xd0;" horiz-adv-x="1415" 
d="M721 1139h-115l-57 -324h215q41 0 35 -43l-19 -96q-10 -41 -49 -41h-213l-57 -328h114q193 0 297 89t148 327q14 100 14 149q0 147 -76 207t-237 60zM553 0h-436q-63 0 -51 59l100 576h-78q-45 0 -35 41l19 96q6 43 49 43h78l100 571q8 59 66 60h403q311 0 467 -125
t156 -397q0 -102 -17 -201q-63 -385 -261 -554t-560 -169z" />
    <glyph glyph-name="Ntilde" unicode="&#xd1;" horiz-adv-x="1452" 
d="M1126 1542q-78 0 -168 33l-81 33q-142 56 -158 -9l-4 -14q-12 -37 -58 -37h-73q-27 0 -37 14t-2 54q14 86 68 137q53 51 137 51t168 -35l83 -32q63 -25 103 -25t53 35l4 14q14 39 60 39h71q51 0 39 -78q-33 -180 -205 -180zM1178 0h-222q-53 0 -69 39l-346 817l-142 -797
q-12 -59 -67 -59h-219q-63 0 -52 59l234 1327q8 59 67 60h220q55 0 71 -39l346 -817l142 796q8 59 65 60h221q62 -1 54 -60l-236 -1327q-12 -59 -67 -59z" />
    <glyph glyph-name="Ograve" unicode="&#xd2;" horiz-adv-x="1472" 
d="M885 1550q-43 0 -70 29l-147 174q-14 16 -8 39q7 23 34 23h242q49 0 59 -41l54 -179q5 -18 -7 -31t-36 -14h-121zM702 281q293 0 371 442q18 98 19 172q0 272 -234 272q-293 0 -371 -444q-18 -98 -18 -172q0 -270 233 -270zM893 1470q265 0 411 -136t146 -404
q0 -104 -20 -209q-131 -743 -762 -744q-264 -1 -410 135t-147 404q0 98 18 209q135 745 764 745z" />
    <glyph glyph-name="Oacute" unicode="&#xd3;" horiz-adv-x="1472" 
d="M1010 1815h241q29 0 31 -23t-18 -39l-207 -174q-35 -29 -78 -29h-125q-23 0 -30 14t3 31l113 179q25 41 70 41zM702 281q293 0 371 442q18 98 19 172q0 272 -234 272q-293 0 -371 -444q-18 -98 -18 -172q0 -270 233 -270zM893 1470q265 0 411 -136t146 -404
q0 -104 -20 -209q-131 -743 -762 -744q-264 -1 -410 135t-147 404q0 98 18 209q135 745 764 745z" />
    <glyph glyph-name="Ocircumflex" unicode="&#xd4;" horiz-adv-x="1472" 
d="M729 1550h-106q-27 0 -31 18t16 36l223 202q37 35 80 35h127q47 0 74 -35l152 -202q12 -16 3 -34t-34 -20h-100q-25 0 -60 27l-119 109l-157 -109q-45 -27 -68 -27zM702 281q293 0 371 442q18 98 19 172q0 272 -234 272q-293 0 -371 -444q-18 -98 -18 -172
q0 -270 233 -270zM893 1470q265 0 411 -136t146 -404q0 -104 -20 -209q-131 -743 -762 -744q-264 -1 -410 135t-147 404q0 98 18 209q135 745 764 745z" />
    <glyph glyph-name="Otilde" unicode="&#xd5;" horiz-adv-x="1472" 
d="M1137 1542q-78 0 -168 33l-82 33q-142 56 -158 -9l-4 -14q-12 -37 -57 -37h-74q-29 0 -38 14t-1 54q15 86 69 137t137 51t167 -35l84 -32q63 -25 103 -25t52 35l4 14q14 39 60 39h72q50 0 38 -78q-33 -180 -204 -180zM702 281q293 0 371 442q18 98 19 172q0 272 -234 272
q-293 0 -371 -444q-18 -98 -18 -172q0 -270 233 -270zM893 1470q265 0 411 -136t146 -404q0 -104 -20 -209q-131 -743 -762 -744q-264 -1 -410 135t-147 404q0 98 18 209q135 745 764 745z" />
    <glyph glyph-name="Odieresis" unicode="&#xd6;" horiz-adv-x="1472" 
d="M1057 1550q-55 0 -47 56l20 120q12 57 64 58h176q61 -1 49 -58l-21 -120q-12 -55 -65 -56h-176zM623 1550q-59 0 -48 56l21 120q12 57 63 58h175q63 -1 51 -58l-23 -120q-8 -55 -65 -56h-174zM702 281q293 0 371 442q18 98 19 172q0 272 -234 272q-293 0 -371 -444
q-18 -98 -18 -172q0 -270 233 -270zM893 1470q265 0 411 -136t146 -404q0 -104 -20 -209q-131 -743 -762 -744q-264 -1 -410 135t-147 404q0 98 18 209q135 745 764 745z" />
    <glyph glyph-name="multiply" unicode="&#xd7;" horiz-adv-x="1236" 
d="M838 250l-213 258l-303 -258q-45 -41 -80 0l-101 123q-33 39 15 78l303 260l-213 256q-31 41 14 80l143 122q47 39 82 0l211 -258l303 258q45 39 78 0l103 -122q33 -39 -15 -80l-303 -256l213 -260q31 -37 -14 -78l-143 -123q-45 -41 -80 0z" />
    <glyph glyph-name="Oslash" unicode="&#xd8;" horiz-adv-x="1478" 
d="M702 281q293 0 371 442q18 98 19 172v25l-566 -574q57 -65 176 -65zM469 551v-29l565 576q-57 70 -176 69q-293 0 -371 -444q-18 -98 -18 -172zM893 1470q240 0 383 -112l72 74q41 45 79 12l60 -49q39 -33 -4 -80l-94 -96q61 -117 61 -289q0 -104 -20 -209
q-131 -743 -762 -744q-242 0 -381 109l-74 -74q-39 -43 -80 -10l-57 51q-41 31 4 76l92 96q-61 123 -61 291q0 98 18 209q135 745 764 745z" />
    <glyph glyph-name="Ugrave" unicode="&#xd9;" horiz-adv-x="1417" 
d="M879 1550q-43 0 -70 29l-147 174q-14 16 -8 39q7 23 34 23h242q49 0 59 -41l53 -179q4 -18 -7 -31t-36 -14h-120zM123 399q0 63 12 133l152 854q8 59 67 60h232q63 0 51 -60l-145 -823q-8 -47 -9 -92q0 -92 46 -137t158 -45q222 0 269 274l146 823q12 59 67 60h232
q63 0 51 -60l-149 -854q-97 -555 -639 -555q-541 0 -541 422z" />
    <glyph glyph-name="Uacute" unicode="&#xda;" horiz-adv-x="1417" 
d="M954 1815h242q29 0 31 -23t-19 -39l-207 -174q-35 -29 -77 -29h-125q-23 0 -30 14t3 31l113 179q25 41 69 41zM123 399q0 63 12 133l152 854q8 59 67 60h232q63 0 51 -60l-145 -823q-8 -47 -9 -92q0 -92 46 -137t158 -45q222 0 269 274l146 823q12 59 67 60h232
q63 0 51 -60l-149 -854q-97 -555 -639 -555q-541 0 -541 422z" />
    <glyph glyph-name="Ucircumflex" unicode="&#xdb;" horiz-adv-x="1417" 
d="M700 1550h-106q-27 0 -31 18t17 36l223 202q37 35 80 35h127q47 0 73 -35l152 -202q12 -16 3 -34t-34 -20h-100q-25 0 -60 27l-118 109l-158 -109q-45 -27 -68 -27zM123 399q0 63 12 133l152 854q8 59 67 60h232q63 0 51 -60l-145 -823q-8 -47 -9 -92q0 -92 46 -137
t158 -45q222 0 269 274l146 823q12 59 67 60h232q63 0 51 -60l-149 -854q-97 -555 -639 -555q-541 0 -541 422z" />
    <glyph glyph-name="Udieresis" unicode="&#xdc;" horiz-adv-x="1417" 
d="M1028 1550q-55 0 -47 56l20 120q12 57 64 58h176q61 -1 49 -58l-20 -120q-12 -55 -66 -56h-176zM594 1550q-59 0 -47 56l20 120q12 57 64 58h174q63 -1 51 -58l-22 -120q-8 -55 -66 -56h-174zM123 399q0 63 12 133l152 854q8 59 67 60h232q63 0 51 -60l-145 -823
q-8 -47 -9 -92q0 -92 46 -137t158 -45q222 0 269 274l146 823q12 59 67 60h232q63 0 51 -60l-149 -854q-97 -555 -639 -555q-541 0 -541 422z" />
    <glyph glyph-name="Yacute" unicode="&#xdd;" horiz-adv-x="1384" 
d="M967 1815h241q29 0 31 -23t-18 -39l-207 -174q-35 -29 -78 -29h-125q-23 0 -30 14t3 31l113 179q25 41 70 41zM727 0h-231q-63 0 -52 59l84 473l-321 840q-10 26 5 50t46 24h240q57 0 73 -55l125 -390l52 -192h4l116 192l267 390q31 55 84 55h245q31 0 40 -24t-9 -50
l-614 -840l-84 -473q-12 -59 -70 -59z" />
    <glyph glyph-name="Thorn" unicode="&#xde;" horiz-adv-x="1343" 
d="M670 555q136 0 204 49t89 168q6 37 6 64q1 82 -53 116t-168 35h-175l-77 -432h174zM342 0h-229q-63 0 -52 59l234 1327q8 59 67 60h228q61 0 53 -60l-18 -108h157q266 0 402 -90t137 -291q0 -59 -12 -127q-47 -274 -206 -389t-460 -115h-199l-34 -207q-11 -59 -68 -59z
" />
    <glyph glyph-name="germandbls" unicode="&#xdf;" horiz-adv-x="1363" 
d="M784 1225q-211 0 -245 -215l-170 -959q-8 -51 -64 -51h-201q-63 0 -51 51l174 985q76 434 586 434q223 0 352 -82t129 -219q0 -79 -45 -147t-100 -108t-101 -76t-46 -56q-1 -30 133 -118q51 -35 93 -106t42 -161q0 -201 -125 -311t-342 -109q-101 1 -191 19t-84 51
l25 131q8 55 65 50q58 -6 130 10t135 62t63 106q0 102 -134 196t-134 176q0 53 44 95t95 67t95 69t44 101q0 115 -172 115z" />
    <glyph glyph-name="agrave" unicode="&#xe0;" horiz-adv-x="1200" 
d="M719 1214q-43 0 -70 29l-155 174q-14 16 -7 38q8 22 35 22h232q47 0 59 -39l57 -178q10 -45 -41 -46h-110zM354 303q0 -104 123 -104t189 56t82 148l16 86q-249 -13 -320 -50q-34 -17 -62 -52t-28 -84zM948 0h-186q-49 0 -53 45l4 90q-129 -152 -357 -151q-154 0 -240 72
t-87 196q0 195 125 284q45 32 91 55q128 66 550 77l6 39q16 77 -28 115t-171 38t-291 -57q-53 -20 -63 35l-19 127q-6 47 47 69q197 80 416 80q442 0 443 -315q-1 -49 -9 -92l-116 -650q-8 -57 -62 -57z" />
    <glyph glyph-name="aacute" unicode="&#xe1;" horiz-adv-x="1200" 
d="M780 1477h242q29 0 32 -22t-18 -38l-207 -174q-31 -29 -73 -29h-123q-25 0 -32 14t3 32l113 178q23 39 63 39zM354 303q0 -104 123 -104t189 56t82 148l16 86q-249 -13 -320 -50q-34 -17 -62 -52t-28 -84zM948 0h-186q-49 0 -53 45l4 90q-129 -152 -357 -151
q-154 0 -240 72t-87 196q0 195 125 284q45 32 91 55q128 66 550 77l6 39q16 77 -28 115t-171 38t-291 -57q-53 -20 -63 35l-19 127q-6 47 47 69q197 80 416 80q442 0 443 -315q-1 -49 -9 -92l-116 -650q-8 -57 -62 -57z" />
    <glyph glyph-name="acircumflex" unicode="&#xe2;" horiz-adv-x="1200" 
d="M537 1214h-107q-25 0 -30 18t14 36l221 205q35 35 80 34h127q49 0 76 -34l147 -205q12 -16 3 -34t-34 -20h-98q-36 0 -59 27l-117 111l-158 -111q-33 -27 -65 -27zM354 303q0 -104 123 -104t189 56t82 148l16 86q-249 -13 -320 -50q-34 -17 -62 -52t-28 -84zM948 0h-186
q-49 0 -53 45l4 90q-129 -152 -357 -151q-154 0 -240 72t-87 196q0 195 125 284q45 32 91 55q128 66 550 77l6 39q16 77 -28 115t-171 38t-291 -57q-53 -20 -63 35l-19 127q-6 47 47 69q197 80 416 80q442 0 443 -315q-1 -49 -9 -92l-116 -650q-8 -57 -62 -57z" />
    <glyph glyph-name="atilde" unicode="&#xe3;" horiz-adv-x="1200" 
d="M932 1210q-80 0 -164 33l-82 31q-121 51 -143 -8l-6 -15q-14 -35 -58 -34h-71q-27 0 -37 13t-4 50q16 86 67 135t128 49t165 -32l82 -33q67 -23 101 -23t48 49q14 35 60 35h72q50 0 36 -74q-29 -176 -194 -176zM354 303q0 -104 123 -104t189 56t82 148l16 86
q-249 -13 -320 -50q-34 -17 -62 -52t-28 -84zM948 0h-186q-49 0 -53 45l4 90q-129 -152 -357 -151q-154 0 -240 72t-87 196q0 195 125 284q45 32 91 55q128 66 550 77l6 39q16 77 -28 115t-171 38t-291 -57q-53 -20 -63 35l-19 127q-6 47 47 69q197 80 416 80
q442 0 443 -315q-1 -49 -9 -92l-116 -650q-8 -57 -62 -57z" />
    <glyph glyph-name="adieresis" unicode="&#xe4;" horiz-adv-x="1200" 
d="M856 1214q-55 0 -47 56l20 125q12 55 66 55h170q59 0 47 -55l-20 -125q-8 -55 -66 -56h-170zM430 1214q-57 0 -49 56l22 125q8 55 64 55h170q57 0 49 -55l-22 -125q-8 -55 -64 -56h-170zM354 303q0 -104 123 -104t189 56t82 148l16 86q-249 -13 -320 -50q-34 -17 -62 -52
t-28 -84zM948 0h-186q-49 0 -53 45l4 90q-129 -152 -357 -151q-154 0 -240 72t-87 196q0 195 125 284q45 32 91 55q128 66 550 77l6 39q16 77 -28 115t-171 38t-291 -57q-53 -20 -63 35l-19 127q-6 47 47 69q197 80 416 80q442 0 443 -315q-1 -49 -9 -92l-116 -650
q-8 -57 -62 -57z" />
    <glyph glyph-name="aring" unicode="&#xe5;" horiz-adv-x="1200" 
d="M792 1649q106 -1 170 -57q65 -56 64 -138q0 -112 -79 -182t-184 -70t-169 56t-64 153t78 167t184 71zM889 1433q0 47 -27 71q-28 24 -74 24t-84 -33t-38 -79t28 -70t74 -23q47 0 84 32t37 78zM354 303q0 -104 123 -104t189 56t82 148l16 86q-249 -13 -320 -50
q-34 -17 -62 -52t-28 -84zM948 0h-186q-49 0 -53 45l4 90q-129 -152 -357 -151q-154 0 -240 72t-87 196q0 195 125 284q45 32 91 55q128 66 550 77l6 39q16 77 -28 115t-171 38t-291 -57q-53 -20 -63 35l-19 127q-6 47 47 69q197 80 416 80q442 0 443 -315q-1 -49 -9 -92
l-116 -650q-8 -57 -62 -57z" />
    <glyph glyph-name="ae" unicode="&#xe6;" horiz-adv-x="1859" 
d="M489 201q113 1 179 61t82 154l10 49q-211 -4 -271 -19q-133 -37 -135 -145q0 -100 135 -100zM1524 721q0 158 -162 158q-199 0 -260 -244h411q11 31 11 86zM599 860q-126 0 -290 -57q-57 -20 -63 35l-21 127q-6 47 47 69q213 80 408 80q281 0 332 -162q64 76 166 119
t219 43q195 0 307 -106t113 -291q0 -63 -11 -113l-18 -104q-12 -55 -68 -56h-637v-28q3 -94 65 -150t184 -55q122 0 261 61q55 23 66 -34l18 -111q8 -43 -47 -70q-168 -82 -345 -82q-177 1 -278 57t-128 146q-174 -195 -465 -194q-188 0 -287 70q-98 71 -98 200
q0 184 116 268t265 101t344 22h37l12 74q12 69 -33 105t-171 36z" />
    <glyph glyph-name="ccedilla" unicode="&#xe7;" horiz-adv-x="1067" 
d="M733 1114q99 0 195 -22t140 -52q44 -31 15 -75l-79 -131q-33 -47 -89 -27q-78 37 -172 37q-260 0 -313 -297q-8 -66 -8 -90q0 -209 215 -209q111 0 201 43q61 25 73 -29l35 -129q12 -45 -45 -78q-129 -78 -321 -78h-5q107 -63 107 -156t-73 -137t-167 -44t-130 12t-29 37
l12 75q6 33 41 33h63q107 0 107 73t-103 128q-153 36 -239 144t-86 278q0 63 12 131q49 279 217 421t426 142z" />
    <glyph glyph-name="egrave" unicode="&#xe8;" horiz-adv-x="1206" 
d="M723 1214q-43 0 -70 29l-155 174q-14 16 -6 38t34 22h232q47 0 59 -39l57 -178q10 -45 -40 -46h-111zM870 707q0 82 -44 127t-130 45q-207 0 -270 -256h436q8 56 8 84zM669 211q129 0 269 61q57 25 68 -34l18 -109q8 -41 -49 -70q-165 -84 -391 -84t-365 117t-139 332
q0 61 12 129q47 269 210 415q164 146 394 146t348 -112t117 -302q0 -45 -10 -112l-18 -101q-8 -55 -68 -55h-662v-26q5 -90 71 -142t195 -53z" />
    <glyph glyph-name="eacute" unicode="&#xe9;" horiz-adv-x="1206" 
d="M793 1477h241q29 0 32 -22t-17 -38l-207 -174q-31 -29 -74 -29h-123q-25 0 -32 14t3 32l113 178q23 39 64 39zM870 707q0 82 -44 127t-130 45q-207 0 -270 -256h436q8 56 8 84zM669 211q129 0 269 61q57 25 68 -34l18 -109q8 -41 -49 -70q-165 -84 -391 -84t-365 117
t-139 332q0 61 12 129q47 269 210 415q164 146 394 146t348 -112t117 -302q0 -45 -10 -112l-18 -101q-8 -55 -68 -55h-662v-26q5 -90 71 -142t195 -53z" />
    <glyph glyph-name="ecircumflex" unicode="&#xea;" horiz-adv-x="1206" 
d="M870 707q0 82 -44 127t-130 45q-207 0 -270 -256h436q8 56 8 84zM551 1214h-107q-26 0 -30 18t14 36l221 205q35 35 80 34h127q49 0 76 -34l147 -205q12 -16 3 -34t-33 -20h-99q-36 0 -59 27l-117 111l-158 -111q-33 -27 -65 -27zM669 211q129 0 269 61q57 25 68 -34
l18 -109q8 -41 -49 -70q-165 -84 -391 -84t-365 117t-139 332q0 61 12 129q47 269 210 415q164 146 394 146t348 -112t117 -302q0 -45 -10 -112l-18 -101q-8 -55 -68 -55h-662v-26q5 -90 71 -142t195 -53z" />
    <glyph glyph-name="edieresis" unicode="&#xeb;" horiz-adv-x="1206" 
d="M874 1214q-55 0 -47 56l21 125q12 55 65 55h170q59 0 47 -55l-20 -125q-8 -55 -66 -56h-170zM449 1214q-57 0 -50 56l23 125q8 55 63 55h170q58 0 50 -55l-23 -125q-8 -55 -64 -56h-169zM870 707q0 82 -44 127t-130 45q-207 0 -270 -256h436q8 56 8 84zM669 211
q129 0 269 61q57 25 68 -34l18 -109q8 -41 -49 -70q-165 -84 -391 -84t-365 117t-139 332q0 61 12 129q47 269 210 415q164 146 394 146t348 -112t117 -302q0 -45 -10 -112l-18 -101q-8 -55 -68 -55h-662v-26q5 -90 71 -142t195 -53z" />
    <glyph glyph-name="igrave" unicode="&#xec;" horiz-adv-x="598" 
d="M393 1214q-43 0 -69 29l-156 174q-14 16 -6 38t35 22h231q47 0 59 -39l58 -178q4 -18 -6 -32t-35 -14h-111zM330 0h-221q-59 0 -52 57l174 977q10 55 64 56h221q57 -1 49 -56l-174 -977q-8 -57 -61 -57z" />
    <glyph glyph-name="iacute" unicode="&#xed;" horiz-adv-x="598" 
d="M508 1477h242q30 0 32 -22t-18 -38l-207 -174q-31 -29 -74 -29h-123q-26 0 -32 14t4 32l112 178q23 39 64 39zM330 0h-221q-59 0 -52 57l174 977q10 55 64 56h221q57 -1 49 -56l-174 -977q-8 -57 -61 -57z" />
    <glyph glyph-name="icircumflex" unicode="&#xee;" horiz-adv-x="598" 
d="M238 1214h-107q-25 0 -30 18t14 36l221 205q35 35 80 34h127q49 0 75 -34l148 -205q12 -16 3 -34t-34 -20h-98q-36 0 -59 27l-117 111l-158 -111q-33 -27 -65 -27zM330 0h-221q-59 0 -52 57l174 977q10 55 64 56h221q57 -1 49 -56l-174 -977q-8 -57 -61 -57z" />
    <glyph glyph-name="idieresis" unicode="&#xef;" horiz-adv-x="598" 
d="M561 1214q-55 0 -47 56l21 125q12 55 65 55h170q59 0 47 -55l-20 -125q-8 -55 -66 -56h-170zM135 1214q-57 0 -49 56l23 125q8 55 63 55h170q57 0 49 -55l-22 -125q-8 -55 -64 -56h-170zM330 0h-221q-59 0 -52 57l174 977q10 55 64 56h221q57 -1 49 -56l-174 -977
q-8 -57 -61 -57z" />
    <glyph glyph-name="eth" unicode="&#xf0;" horiz-adv-x="1253" 
d="M577 236q77 0 115 8t66 39q27 31 39 65t32 109q31 88 31 202q0 197 -166 197q-118 0 -188 -117t-86 -272q0 -58 6 -80t6 -27q0 -76 34 -100t111 -24zM1214 1180h-112q104 -193 104 -441q0 -102 -16 -186q-49 -289 -212 -432q-162 -143 -402 -143t-370 111
q-130 112 -130 321q0 61 12 129q47 268 213 411t393 144q150 0 209 -54q-23 70 -69 140h-277q-45 0 -39 43l12 59q6 41 48 41h159q-13 16 -92 82q-12 9 -4 29t31 20h211q45 0 67 -29q39 -43 78 -102h207q43 0 37 -41l-12 -59q-7 -43 -46 -43z" />
    <glyph glyph-name="ntilde" unicode="&#xf1;" horiz-adv-x="1261" 
d="M967 1210q-80 0 -164 33l-82 31q-121 51 -143 -8l-7 -15q-14 -35 -57 -34h-72q-26 0 -36 13q-10 12 0 74t62 111t129 49t165 -32l82 -33q68 -23 102 -23t47 49q14 35 60 35h71q51 0 37 -74q-29 -176 -194 -176zM1008 0h-222q-57 0 -49 57l105 586q6 37 6 66
q0 127 -135 127q-97 0 -157 -58t-77 -160l-100 -561q-8 -57 -64 -57h-219q-61 0 -49 57l172 977q12 55 64 56h198q53 0 54 -46l-3 -92q137 162 347 162q315 0 315 -301q0 -61 -12 -135l-111 -621q-8 -57 -63 -57z" />
    <glyph glyph-name="ograve" unicode="&#xf2;" horiz-adv-x="1253" 
d="M729 1214q-43 0 -70 29l-155 174q-14 16 -6 38t34 22h232q47 0 59 -39l58 -178q3 -18 -7 -32t-34 -14h-111zM586 236q207 0 264 309q12 70 12 121q0 190 -168 190q-207 0 -264 -311q-12 -68 -12 -119q0 -190 168 -190zM574 -23q-238 0 -367 113t-129 324q0 61 12 135
q49 279 213 422q165 143 403 143t367 -113t129 -323q0 -61 -12 -135q-49 -279 -213 -423q-165 -144 -403 -143z" />
    <glyph glyph-name="oacute" unicode="&#xf3;" horiz-adv-x="1253" 
d="M825 1477h242q29 0 32 -22t-18 -38l-207 -174q-31 -29 -73 -29h-123q-25 0 -32 14t3 32l113 178q23 39 63 39zM586 236q207 0 264 309q12 70 12 121q0 190 -168 190q-207 0 -264 -311q-12 -68 -12 -119q0 -190 168 -190zM574 -23q-238 0 -367 113t-129 324q0 61 12 135
q49 279 213 422q165 143 403 143t367 -113t129 -323q0 -61 -12 -135q-49 -279 -213 -423q-165 -144 -403 -143z" />
    <glyph glyph-name="ocircumflex" unicode="&#xf4;" horiz-adv-x="1253" 
d="M565 1214h-106q-25 0 -30 18t13 36l222 205q35 35 79 34h127q49 0 76 -34l148 -205q12 -16 3 -34t-34 -20h-98q-37 0 -60 27l-117 111l-157 -111q-33 -27 -66 -27zM586 236q207 0 264 309q12 70 12 121q0 190 -168 190q-207 0 -264 -311q-12 -68 -12 -119
q0 -190 168 -190zM574 -23q-238 0 -367 113t-129 324q0 61 12 135q49 279 213 422q165 143 403 143t367 -113t129 -323q0 -61 -12 -135q-49 -279 -213 -423q-165 -144 -403 -143z" />
    <glyph glyph-name="otilde" unicode="&#xf5;" horiz-adv-x="1253" 
d="M965 1210q-80 0 -164 33l-82 31q-120 51 -144 -8l-6 -15q-14 -35 -57 -34h-72q-27 0 -37 13t-4 50q15 86 67 135t129 49t165 -32l82 -33q68 -23 102 -23t47 49q14 35 60 35h71q51 0 37 -74q-29 -176 -194 -176zM586 236q207 0 264 309q12 70 12 121q0 190 -168 190
q-207 0 -264 -311q-12 -68 -12 -119q0 -190 168 -190zM574 -23q-238 0 -367 113t-129 324q0 61 12 135q49 279 213 422q165 143 403 143t367 -113t129 -323q0 -61 -12 -135q-49 -279 -213 -423q-165 -144 -403 -143z" />
    <glyph glyph-name="odieresis" unicode="&#xf6;" horiz-adv-x="1253" 
d="M889 1214q-55 0 -47 56l20 125q12 55 66 55h170q59 0 47 -55l-21 -125q-8 -55 -65 -56h-170zM463 1214q-57 0 -49 56l22 125q8 55 64 55h170q57 0 49 -55l-23 -125q-8 -55 -63 -56h-170zM586 236q207 0 264 309q12 70 12 121q0 190 -168 190q-207 0 -264 -311
q-12 -68 -12 -119q0 -190 168 -190zM574 -23q-238 0 -367 113t-129 324q0 61 12 135q49 279 213 422q165 143 403 143t367 -113t129 -323q0 -61 -12 -135q-49 -279 -213 -423q-165 -144 -403 -143z" />
    <glyph glyph-name="divide" unicode="&#xf7;" horiz-adv-x="1236" 
d="M659 1278h197q66 0 55 -55l-34 -199q-12 -57 -68 -57h-203q-57 0 -49 57l35 199q10 55 67 55zM711 453q66 0 53 -56l-35 -198q-8 -57 -65 -58h-205q-59 1 -47 58l34 198q8 55 68 56h197zM1092 592h-899q-59 0 -48 55l23 127q8 55 61 55h901q59 0 48 -55l-21 -127
q-12 -55 -65 -55z" />
    <glyph glyph-name="oslash" unicode="&#xf8;" horiz-adv-x="1261" 
d="M590 236q207 0 264 309q10 66 12 112l-403 -374q41 -47 127 -47zM698 856q-207 0 -264 -311q-12 -66 -12 -113l401 375q-43 49 -125 49zM563 -23q-197 0 -321 89l-66 -60q-45 -41 -78 -6l-41 41q-33 35 9 74l71 65q-55 100 -55 234q0 61 12 135q49 279 213 422t418 143
q199 0 324 -90l67 63q43 41 74 5l39 -41q31 -31 -6 -74l-72 -68q55 -100 55 -231q0 -61 -12 -135q-49 -279 -213 -423t-418 -143z" />
    <glyph glyph-name="ugrave" unicode="&#xf9;" horiz-adv-x="1249" 
d="M729 1214q-43 0 -70 29l-155 174q-14 16 -6 38t34 22h232q47 0 59 -39l58 -178q3 -18 -7 -32t-34 -14h-111zM496 1090q57 0 49 -56l-107 -598q-6 -35 -6 -65q0 -121 129 -121q92 0 154 57q61 57 78 154l100 573q8 55 63 56h222q59 0 49 -56l-174 -977q-8 -57 -62 -57
h-200q-49 0 -54 45l2 94q-43 -69 -127 -115t-200 -47q-328 0 -328 291q0 53 12 121l115 645q10 55 63 56h222z" />
    <glyph glyph-name="uacute" unicode="&#xfa;" horiz-adv-x="1249" 
d="M819 1477h242q29 0 32 -22t-18 -38l-207 -174q-31 -29 -73 -29h-123q-25 0 -32 14t3 32l113 178q23 39 63 39zM496 1090q57 0 49 -56l-107 -598q-6 -35 -6 -65q0 -121 129 -121q92 0 154 57q61 57 78 154l100 573q8 55 63 56h222q59 0 49 -56l-174 -977q-8 -57 -62 -57
h-200q-49 0 -54 45l2 94q-43 -69 -127 -115t-200 -47q-328 0 -328 291q0 53 12 121l115 645q10 55 63 56h222z" />
    <glyph glyph-name="ucircumflex" unicode="&#xfb;" horiz-adv-x="1249" 
d="M561 1214h-106q-25 0 -30 18t13 36l221 205q35 35 80 34h127q49 0 76 -34l148 -205q12 -16 3 -34t-34 -20h-98q-37 0 -60 27l-117 111l-157 -111q-33 -27 -66 -27zM496 1090q57 0 49 -56l-107 -598q-6 -35 -6 -65q0 -121 129 -121q92 0 154 57q61 57 78 154l100 573
q8 55 63 56h222q59 0 49 -56l-174 -977q-8 -57 -62 -57h-200q-49 0 -54 45l2 94q-43 -69 -127 -115t-200 -47q-328 0 -328 291q0 53 12 121l115 645q10 55 63 56h222z" />
    <glyph glyph-name="udieresis" unicode="&#xfc;" horiz-adv-x="1249" 
d="M885 1214q-55 0 -47 56l20 125q12 55 66 55h170q59 0 47 -55l-21 -125q-8 -55 -65 -56h-170zM459 1214q-57 0 -49 56l22 125q8 55 64 55h170q57 0 49 -55l-23 -125q-8 -55 -63 -56h-170zM496 1090q57 0 49 -56l-107 -598q-6 -35 -6 -65q0 -121 129 -121q92 0 154 57
q61 57 78 154l100 573q8 55 63 56h222q59 0 49 -56l-174 -977q-8 -57 -62 -57h-200q-49 0 -54 45l2 94q-43 -69 -127 -115t-200 -47q-328 0 -328 291q0 53 12 121l115 645q10 55 63 56h222z" />
    <glyph glyph-name="yacute" unicode="&#xfd;" horiz-adv-x="1146" 
d="M762 1477h242q30 0 32 -22t-18 -38l-207 -174q-31 -29 -74 -29h-123q-26 0 -32 14t4 32l112 178q23 39 64 39zM266 -242q-146 0 -217 23q-51 14 -43 57l35 135q10 47 57 47q6 0 46 -6t92 -6t82 33q28 33 16 88l-197 895q-14 66 49 66h224q55 0 61 -52l64 -446l28 -287h6
l115 287l188 446q20 51 74 52h230q30 0 40 -18t-4 -48l-462 -922q-66 -136 -117 -202t-136 -104t-231 -38z" />
    <glyph glyph-name="thorn" unicode="&#xfe;" horiz-adv-x="1304" 
d="M455 430q0 -193 176 -192q109 0 175 72t93 235q12 74 12 123q0 186 -170 186q-221 0 -274 -309q-12 -66 -12 -115zM348 1446h221q57 0 49 -55l-75 -426q55 73 144 111t185 38q182 0 282 -100t99 -299q0 -82 -14 -168q-100 -569 -528 -570q-105 0 -197 39t-119 111
l-51 -295q-8 -57 -65 -57h-222q-59 0 -47 57l275 1559q10 55 63 55z" />
    <glyph glyph-name="ydieresis" unicode="&#xff;" horiz-adv-x="1146" 
d="M836 1214q-55 0 -48 56l21 125q12 55 65 55h170q60 0 48 -55l-21 -125q-8 -55 -65 -56h-170zM410 1214q-57 0 -50 56l23 125q8 55 63 55h170q58 0 50 -55l-23 -125q-8 -55 -63 -56h-170zM266 -242q-146 0 -217 23q-51 14 -43 57l35 135q10 47 57 47q6 0 46 -6t92 -6
t82 33q28 33 16 88l-197 895q-14 66 49 66h224q55 0 61 -52l64 -446l28 -287h6l115 287l188 446q20 51 74 52h230q30 0 40 -18t-4 -48l-462 -922q-66 -136 -117 -202t-136 -104t-231 -38z" />
    <glyph glyph-name="Amacron" unicode="&#x100;" horiz-adv-x="1419" 
d="M1221 1561h-635q-53 0 -45 53l14 86q8 53 61 53h635q55 0 47 -53l-14 -86q-12 -53 -63 -53zM735 1446h287q55 0 68 -55l221 -1321q3 -30 -11 -50t-45 -20h-237q-59 0 -66 55l-34 221h-476l-112 -221q-27 -55 -78 -55h-250q-31 0 -41 19t6 51l688 1321q15 31 31 43t49 12z
M559 569h342l-72 531h-4z" />
    <glyph glyph-name="amacron" unicode="&#x101;" horiz-adv-x="1200" 
d="M1040 1225h-624q-53 0 -45 53l14 80q8 53 61 53h625q53 0 45 -53l-12 -80q-11 -53 -64 -53zM354 303q0 -104 123 -104t189 56t82 148l16 86q-249 -13 -320 -50q-34 -17 -62 -52t-28 -84zM948 0h-186q-49 0 -53 45l4 90q-129 -152 -357 -151q-154 0 -240 72t-87 196
q0 195 125 284q45 32 91 55q128 66 550 77l6 39q16 77 -28 115t-171 38t-291 -57q-53 -20 -63 35l-19 127q-6 47 47 69q197 80 416 80q442 0 443 -315q-1 -49 -9 -92l-116 -650q-8 -57 -62 -57z" />
    <glyph glyph-name="Abreve" unicode="&#x102;" horiz-adv-x="1419" 
d="M912 1542q-166 0 -244 79t-60 189q10 43 47 43h90q47 0 48 -41q6 -108 136 -108t173 108q16 41 53 41h90q45 0 39 -43q-23 -112 -115 -190t-257 -78zM735 1446h287q55 0 68 -55l221 -1321q3 -30 -11 -50t-45 -20h-237q-59 0 -66 55l-34 221h-476l-112 -221
q-27 -55 -78 -55h-250q-31 0 -41 19t6 51l688 1321q15 31 31 43t49 12zM559 569h342l-72 531h-4z" />
    <glyph glyph-name="abreve" unicode="&#x103;" horiz-adv-x="1200" 
d="M740 1204q-166 0 -244 80t-58 191q6 43 47 43h84q45 0 45 -41q4 -113 138 -113t178 113q16 41 55 41h84q45 0 37 -43q-20 -117 -110 -194t-256 -77zM354 303q0 -104 123 -104t189 56t82 148l16 86q-249 -13 -320 -50q-34 -17 -62 -52t-28 -84zM948 0h-186q-49 0 -53 45
l4 90q-129 -152 -357 -151q-154 0 -240 72t-87 196q0 195 125 284q45 32 91 55q128 66 550 77l6 39q16 77 -28 115t-171 38t-291 -57q-53 -20 -63 35l-19 127q-6 47 47 69q197 80 416 80q442 0 443 -315q-1 -49 -9 -92l-116 -650q-8 -57 -62 -57z" />
    <glyph glyph-name="Aogonek" unicode="&#x104;" horiz-adv-x="1419" 
d="M559 569h342l-72 531h-4zM735 1446h287q55 0 68 -55l221 -1321q3 -30 -11 -50t-45 -20h-51q-133 -70 -133 -156q0 -53 82 -53q23 0 45 5t25 5q25 0 26 -22l8 -78q4 -23 -28 -43q-66 -39 -160 -39t-155 39q-60 39 -60 114t60 134t153 94h-49q-59 0 -66 55l-34 221h-476
l-112 -221q-27 -55 -78 -55h-250q-31 0 -41 19t6 51l688 1321q15 31 31 43t49 12z" />
    <glyph glyph-name="aogonek" unicode="&#x105;" horiz-adv-x="1200" 
d="M354 303q0 -104 123 -104t189 56t82 148l16 86q-249 -13 -320 -50q-34 -17 -62 -52t-28 -84zM948 0h-35q-129 -59 -129 -145q0 -51 80 -52q20 0 40 4t28 5q25 2 26 -23l7 -72q2 -29 -27 -41q-66 -36 -154 -36t-145 36t-57 101q0 143 196 223h-16q-49 0 -53 45l4 90
q-129 -152 -357 -151q-154 0 -240 72t-87 196q0 195 125 284q45 32 91 55q128 66 550 77l6 39q16 77 -28 115t-171 38t-291 -57q-53 -20 -63 35l-19 127q-6 47 47 69q197 80 416 80q442 0 443 -315q-1 -49 -9 -92l-116 -650q-8 -57 -62 -57z" />
    <glyph glyph-name="Cacute" unicode="&#x106;" horiz-adv-x="1280" 
d="M975 1815h242q29 0 31 -23t-19 -39l-207 -174q-35 -29 -78 -29h-125q-23 0 -29 14t3 31l112 179q25 41 70 41zM473 575q-1 -292 299 -292q144 0 258 53q63 25 78 -31l43 -149q12 -41 -47 -78q-176 -100 -402 -101q-276 -1 -433 139t-156 412q0 90 18 195q66 375 267 561
q202 186 517 186q125 0 234 -30t151 -58q42 -30 47 -46t-12 -44l-94 -147q-31 -53 -88 -29q-90 47 -217 47q-192 0 -300 -105t-149 -335q-14 -96 -14 -148z" />
    <glyph glyph-name="cacute" unicode="&#x107;" horiz-adv-x="1067" 
d="M797 1477h241q29 0 32 -22t-17 -38l-207 -174q-31 -29 -74 -29h-123q-25 0 -32 14q-6 14 4 32l112 178q23 39 64 39zM733 1114q99 0 195 -22t140 -52q44 -31 15 -75l-79 -131q-33 -47 -89 -27q-78 37 -172 37q-260 0 -313 -297q-8 -66 -8 -90q0 -209 215 -209
q111 0 201 43q61 25 73 -29l35 -129q12 -45 -45 -78q-129 -78 -341 -78t-347 114t-135 329q0 63 12 131q49 279 217 421t426 142z" />
    <glyph glyph-name="Ccircumflex" unicode="&#x108;" horiz-adv-x="1280" 
d="M729 1550h-106q-27 0 -31 18t16 36l223 202q37 35 80 35h127q47 0 74 -35l152 -202q12 -16 3 -34t-34 -20h-100q-25 0 -60 27l-119 109l-157 -109q-45 -27 -68 -27zM473 575q-1 -292 299 -292q144 0 258 53q63 25 78 -31l43 -149q12 -41 -47 -78q-176 -100 -402 -101
q-276 -1 -433 139t-156 412q0 90 18 195q66 375 267 561q202 186 517 186q125 0 234 -30t151 -58q42 -30 47 -46t-12 -44l-94 -147q-31 -53 -88 -29q-90 47 -217 47q-192 0 -300 -105t-149 -335q-14 -96 -14 -148z" />
    <glyph glyph-name="ccircumflex" unicode="&#x109;" horiz-adv-x="1067" 
d="M530 1214h-106q-25 0 -30 18t14 36l221 205q35 35 80 34h127q49 0 75 -34l148 -205q12 -16 3 -34t-34 -20h-98q-37 0 -60 27l-116 111l-158 -111q-33 -27 -66 -27zM733 1114q99 0 195 -22t140 -52q44 -31 15 -75l-79 -131q-33 -47 -89 -27q-78 37 -172 37
q-260 0 -313 -297q-8 -66 -8 -90q0 -209 215 -209q111 0 201 43q61 25 73 -29l35 -129q12 -45 -45 -78q-129 -78 -341 -78t-347 114t-135 329q0 63 12 131q49 279 217 421t426 142z" />
    <glyph glyph-name="Cdotaccent" unicode="&#x10a;" horiz-adv-x="1280" 
d="M813 1546q-55 0 -47 58l27 147q8 55 63 55h211q57 0 49 -55l-26 -147q-8 -57 -64 -58h-213zM473 575q-1 -292 299 -292q144 0 258 53q63 25 78 -31l43 -149q12 -41 -47 -78q-176 -100 -402 -101q-276 -1 -433 139t-156 412q0 90 18 195q66 375 267 561q202 186 517 186
q125 0 234 -30t151 -58q42 -30 47 -46t-12 -44l-94 -147q-31 -53 -88 -29q-90 47 -217 47q-192 0 -300 -105t-149 -335q-14 -96 -14 -148z" />
    <glyph glyph-name="cdotaccent" unicode="&#x10b;" horiz-adv-x="1067" 
d="M629 1210q-55 0 -47 56l24 141q12 57 66 57h211q57 0 49 -57l-27 -141q-8 -55 -63 -56h-213zM733 1114q99 0 195 -22t140 -52q44 -31 15 -75l-79 -131q-33 -47 -89 -27q-78 37 -172 37q-260 0 -313 -297q-8 -66 -8 -90q0 -209 215 -209q111 0 201 43q61 25 73 -29
l35 -129q12 -45 -45 -78q-129 -78 -341 -78t-347 114t-135 329q0 63 12 131q49 279 217 421t426 142z" />
    <glyph glyph-name="Ccaron" unicode="&#x10c;" horiz-adv-x="1280" 
d="M1171 1841h107q25 0 32 -18t-12 -35l-225 -205q-39 -33 -84 -33h-125q-47 0 -71 33l-152 205q-12 16 -3 34t34 19h98q37 0 59 -26l121 -109l156 106q45 29 65 29zM473 575q-1 -292 299 -292q144 0 258 53q63 25 78 -31l43 -149q12 -41 -47 -78q-176 -100 -402 -101
q-276 -1 -433 139t-156 412q0 90 18 195q66 375 267 561q202 186 517 186q125 0 234 -30t151 -58q42 -30 47 -46t-12 -44l-94 -147q-31 -53 -88 -29q-90 47 -217 47q-192 0 -300 -105t-149 -335q-14 -96 -14 -148z" />
    <glyph glyph-name="ccaron" unicode="&#x10d;" horiz-adv-x="1067" 
d="M1079 1507q25 0 31 -18t-12 -35l-224 -205q-35 -35 -81 -35h-125q-53 0 -74 35l-150 205q-14 16 -5 34t36 19h98q31 0 62 -26l117 -113l157 113q35 27 62 26h108zM733 1114q99 0 195 -22t140 -52q44 -31 15 -75l-79 -131q-33 -47 -89 -27q-78 37 -172 37
q-260 0 -313 -297q-8 -66 -8 -90q0 -209 215 -209q111 0 201 43q61 25 73 -29l35 -129q12 -45 -45 -78q-129 -78 -341 -78t-347 114t-135 329q0 63 12 131q49 279 217 421t426 142z" />
    <glyph glyph-name="Dcaron" unicode="&#x10e;" horiz-adv-x="1411" 
d="M1096 1841h106q25 0 32 -18t-11 -35l-226 -205q-39 -33 -84 -33h-125q-47 0 -71 33l-152 205q-12 16 -3 34t34 19h98q37 0 60 -26l120 -109l156 106q45 29 66 29zM717 1139h-115l-145 -832h114q193 0 297 91t150 333q14 96 14 143q0 147 -78 206t-237 59zM549 0h-436
q-63 0 -52 59l234 1327q8 59 65 60h404q311 0 468 -124t157 -396q0 -98 -17 -195q-66 -391 -264 -561t-559 -170z" />
    <glyph glyph-name="dcaron" unicode="&#x10f;" horiz-adv-x="1628" 
d="M1528 897h-68q-20 0 -26 15t6 32l112 209h-71q-59 0 -47 57l34 199q10 55 68 55h205q61 0 55 -55l-33 -186q-7 -45 -30 -72l-152 -223q-20 -31 -53 -31zM461 -23q-185 1 -285 101t-100 297q0 72 16 170q100 569 531 569q100 0 192 -41t121 -108l76 426q8 55 63 55h219
q61 0 52 -55l-236 -1334q-12 -57 -63 -57h-199q-47 0 -51 45l6 90q-57 -76 -149 -117t-193 -41zM420 424q0 -186 172 -186q219 0 272 307q12 66 13 117q0 193 -177 192q-108 0 -174 -73t-94 -236q-12 -72 -12 -121z" />
    <glyph glyph-name="Dcroat" unicode="&#x110;" horiz-adv-x="1415" 
d="M721 1139h-115l-57 -324h215q41 0 35 -43l-19 -96q-10 -41 -49 -41h-213l-57 -328h114q193 0 297 89t148 327q14 100 14 149q0 147 -76 207t-237 60zM553 0h-436q-63 0 -51 59l100 576h-78q-45 0 -35 41l19 96q6 43 49 43h78l100 571q8 59 66 60h403q311 0 467 -125
t156 -397q0 -102 -17 -201q-63 -385 -261 -554t-560 -169z" />
    <glyph glyph-name="dcroat" unicode="&#x111;" horiz-adv-x="1308" 
d="M420 424q0 -186 172 -186q219 0 272 307q12 66 13 117q0 193 -177 192q-108 0 -174 -73t-94 -236q-12 -72 -12 -121zM461 -23q-183 -1 -283 103t-100 303q0 82 14 166q100 565 531 565q111 0 195 -40t118 -109l43 235h-252q-47 0 -37 43l10 60q8 41 48 40h256l8 48
q6 55 63 55h219q61 0 52 -55l-9 -48h70q45 0 37 -40l-10 -60q-8 -43 -48 -43h-73l-203 -1143q-12 -57 -63 -57h-199q-51 0 -51 45l6 90q-57 -76 -149 -117t-193 -41z" />
    <glyph glyph-name="Emacron" unicode="&#x112;" horiz-adv-x="1171" 
d="M1126 1561h-634q-53 0 -46 53l15 86q8 53 61 53h635q55 0 47 -53l-14 -86q-13 -53 -64 -53zM1014 594h-514l-54 -299h549q61 0 54 -59l-31 -175q-14 -61 -70 -61h-835q-63 0 -52 59l234 1327q8 59 65 60h828q61 0 53 -60l-33 -176q-8 -61 -67 -61h-543l-47 -272h510
q57 0 51 -60l-31 -164q-10 -59 -67 -59z" />
    <glyph glyph-name="emacron" unicode="&#x113;" horiz-adv-x="1206" 
d="M870 707q0 82 -44 127t-130 45q-207 0 -270 -256h436q8 56 8 84zM1065 1225h-625q-53 0 -45 53l15 80q8 53 61 53h625q53 0 45 -53l-13 -80q-10 -53 -63 -53zM669 211q129 0 269 61q57 25 68 -34l18 -109q8 -41 -49 -70q-165 -84 -391 -84t-365 117t-139 332q0 61 12 129
q47 269 210 415q164 146 394 146t348 -112t117 -302q0 -45 -10 -112l-18 -101q-8 -55 -68 -55h-662v-26q5 -90 71 -142t195 -53z" />
    <glyph glyph-name="Ebreve" unicode="&#x114;" horiz-adv-x="1171" 
d="M824 1542q-166 0 -244 79t-60 189q8 43 47 43h90q47 0 48 -41q6 -108 136 -108t173 108q16 41 53 41h90q45 0 39 -43q-23 -112 -115 -190t-257 -78zM1014 594h-514l-54 -299h549q61 0 54 -59l-31 -175q-14 -61 -70 -61h-835q-63 0 -52 59l234 1327q8 59 65 60h828
q61 0 53 -60l-33 -176q-8 -61 -67 -61h-543l-47 -272h510q57 0 51 -60l-31 -164q-10 -59 -67 -59z" />
    <glyph glyph-name="ebreve" unicode="&#x115;" horiz-adv-x="1206" 
d="M870 707q0 82 -44 127t-130 45q-207 0 -270 -256h436q8 56 8 84zM765 1204q-167 0 -245 80t-57 191q6 43 47 43h84q45 0 45 -41q4 -113 138 -113t177 113q16 41 56 41h84q45 0 36 -43q-20 -117 -109 -194t-256 -77zM669 211q129 0 269 61q57 25 68 -34l18 -109
q8 -41 -49 -70q-165 -84 -391 -84t-365 117t-139 332q0 61 12 129q47 269 210 415q164 146 394 146t348 -112t117 -302q0 -45 -10 -112l-18 -101q-8 -55 -68 -55h-662v-26q5 -90 71 -142t195 -53z" />
    <glyph glyph-name="Edotaccent" unicode="&#x116;" horiz-adv-x="1171" 
d="M713 1546q-55 0 -47 58l26 147q8 55 64 55h211q57 0 49 -55l-27 -147q-8 -57 -63 -58h-213zM1014 594h-514l-54 -299h549q61 0 54 -59l-31 -175q-14 -61 -70 -61h-835q-63 0 -52 59l234 1327q8 59 65 60h828q61 0 53 -60l-33 -176q-8 -61 -67 -61h-543l-47 -272h510
q57 0 51 -60l-31 -164q-10 -59 -67 -59z" />
    <glyph glyph-name="edotaccent" unicode="&#x117;" horiz-adv-x="1206" 
d="M645 1210q-55 0 -47 56l25 141q12 57 65 57h211q57 0 49 -57l-26 -141q-8 -55 -64 -56h-213zM870 707q0 82 -44 127t-130 45q-207 0 -270 -256h436q8 56 8 84zM669 211q129 0 269 61q57 25 68 -34l18 -109q8 -41 -49 -70q-165 -84 -391 -84t-365 117t-139 332
q0 61 12 129q47 269 210 415q164 146 394 146t348 -112t117 -302q0 -45 -10 -112l-18 -101q-8 -55 -68 -55h-662v-26q5 -90 71 -142t195 -53z" />
    <glyph glyph-name="Eogonek" unicode="&#x118;" horiz-adv-x="1171" 
d="M1014 594h-514l-54 -299h549q61 0 54 -59l-31 -175q-14 -61 -70 -61h-55q-133 -70 -133 -156q0 -53 82 -53q24 0 46 5t23 5q25 0 27 -22l8 -78q4 -23 -28 -43q-66 -39 -160 -39t-155 39q-60 39 -60 114t60 134t153 94h-643q-63 0 -52 59l234 1327q8 59 65 60h828
q61 0 53 -60l-33 -176q-8 -61 -67 -61h-543l-47 -272h510q57 0 51 -60l-31 -164q-10 -59 -67 -59z" />
    <glyph glyph-name="eogonek" unicode="&#x119;" horiz-adv-x="1206" 
d="M870 707q0 82 -44 127t-130 45q-207 0 -270 -256h436q8 56 8 84zM669 211q129 0 269 61q57 25 68 -34l18 -109q8 -41 -49 -70q-109 -55 -211 -69q-106 -61 -107 -135q0 -51 80 -52q21 0 41 4t27 5q25 2 26 -23l7 -72q2 -29 -27 -41q-66 -36 -154 -36t-145 36t-57 101
q0 121 145 198q-248 4 -384 120t-136 329q0 61 12 129q47 269 210 415q164 146 394 146t348 -112t117 -302q0 -45 -10 -112l-18 -101q-8 -55 -68 -55h-662v-26q5 -90 71 -142t195 -53z" />
    <glyph glyph-name="Ecaron" unicode="&#x11a;" horiz-adv-x="1171" 
d="M1051 1841h106q25 0 32 -18t-11 -35l-226 -205q-39 -33 -84 -33h-125q-47 0 -71 33l-152 205q-12 16 -3 34t34 19h98q37 0 60 -26l120 -109l156 106q45 29 66 29zM1014 594h-514l-54 -299h549q61 0 54 -59l-31 -175q-14 -61 -70 -61h-835q-63 0 -52 59l234 1327
q8 59 65 60h828q61 0 53 -60l-33 -176q-8 -61 -67 -61h-543l-47 -272h510q57 0 51 -60l-31 -164q-10 -59 -67 -59z" />
    <glyph glyph-name="ecaron" unicode="&#x11b;" horiz-adv-x="1206" 
d="M870 707q0 82 -44 127t-130 45q-207 0 -270 -256h436q8 56 8 84zM1102 1507q25 0 31 -18t-13 -35l-223 -205q-35 -35 -82 -35h-125q-53 0 -74 35l-149 205q-14 16 -5 34t36 19h98q31 0 61 -26l117 -113l158 113q35 27 61 26h109zM669 211q129 0 269 61q57 25 68 -34
l18 -109q8 -41 -49 -70q-165 -84 -391 -84t-365 117t-139 332q0 61 12 129q47 269 210 415q164 146 394 146t348 -112t117 -302q0 -45 -10 -112l-18 -101q-8 -55 -68 -55h-662v-26q5 -90 71 -142t195 -53z" />
    <glyph glyph-name="Gcircumflex" unicode="&#x11c;" horiz-adv-x="1437" 
d="M756 1550h-107q-27 0 -31 18t17 36l223 202q37 35 80 35h127q47 0 74 -35l151 -202q12 -16 3 -34t-33 -20h-101q-24 0 -59 27l-119 109l-158 -109q-45 -27 -67 -27zM899 872h432q59 0 51 -59l-116 -657q-8 -45 -60 -74q-186 -104 -479 -104t-454 134q-161 136 -160 412
q0 94 18 205q68 383 280 562t562 179q281 0 430 -104q43 -33 18 -78l-88 -149q-31 -55 -88 -29q-121 53 -258 53q-225 0 -341 -101t-157 -339q-14 -78 -14 -150q0 -155 81 -223t249 -67q98 0 178 30l51 297h-178q-61 0 -49 58l24 145q11 59 68 59z" />
    <glyph glyph-name="gcircumflex" unicode="&#x11d;" horiz-adv-x="1247" 
d="M555 1214h-106q-25 0 -30 18t13 36l221 205q35 35 80 34h127q49 0 76 -34l147 -205q12 -16 3 -34t-33 -20h-99q-36 0 -59 27l-117 111l-157 -111q-33 -27 -66 -27zM473 -250q-106 0 -223 18t-172 46q-43 25 -23 69l60 127q27 55 78 35q129 -49 269 -49t212 55t94 164
l14 72q-109 -145 -293 -145t-287 87q-103 88 -104 269q0 59 13 127q45 251 171 369t314 118q100 0 185 -41t116 -108l25 81q16 45 63 46h191q61 -1 49 -56l-146 -833q-80 -451 -606 -451zM676 877q-193 0 -236 -254q-8 -66 -8 -91q0 -166 158 -165q190 0 237 262q8 39 9 82
q0 166 -160 166z" />
    <glyph glyph-name="Gbreve" unicode="&#x11e;" horiz-adv-x="1437" 
d="M970 1542q-165 0 -244 79t-60 189q10 43 47 43h90q47 0 47 -41q6 -108 136 -108t173 108q16 41 53 41h91q45 0 38 -43q-23 -112 -115 -190t-256 -78zM899 872h432q59 0 51 -59l-116 -657q-8 -45 -60 -74q-186 -104 -479 -104t-454 134q-161 136 -160 412q0 94 18 205
q68 383 280 562t562 179q281 0 430 -104q43 -33 18 -78l-88 -149q-31 -55 -88 -29q-121 53 -258 53q-225 0 -341 -101t-157 -339q-14 -78 -14 -150q0 -155 81 -223t249 -67q98 0 178 30l51 297h-178q-61 0 -49 58l24 145q11 59 68 59z" />
    <glyph glyph-name="gbreve" unicode="&#x11f;" horiz-adv-x="1247" 
d="M763 1204q-167 0 -245 80t-57 191q6 43 47 43h84q45 0 45 -41q4 -113 138 -113t177 113q16 41 56 41h84q47 0 36 -43q-20 -117 -109 -194t-256 -77zM473 -250q-106 0 -223 18t-172 46q-43 25 -23 69l60 127q27 55 78 35q129 -49 269 -49t212 55t94 164l14 72
q-109 -145 -293 -145t-287 87q-103 88 -104 269q0 59 13 127q45 251 171 369t314 118q100 0 185 -41t116 -108l25 81q16 45 63 46h191q61 -1 49 -56l-146 -833q-80 -451 -606 -451zM676 877q-193 0 -236 -254q-8 -66 -8 -91q0 -166 158 -165q190 0 237 262q8 39 9 82
q0 166 -160 166z" />
    <glyph glyph-name="Gdotaccent" unicode="&#x120;" horiz-adv-x="1437" 
d="M862 1546q-55 0 -47 58l27 147q8 55 63 55h211q57 0 49 -55l-26 -147q-8 -57 -64 -58h-213zM899 872h432q59 0 51 -59l-116 -657q-8 -45 -60 -74q-186 -104 -479 -104t-454 134q-161 136 -160 412q0 94 18 205q68 383 280 562t562 179q281 0 430 -104q43 -33 18 -78
l-88 -149q-31 -55 -88 -29q-121 53 -258 53q-225 0 -341 -101t-157 -339q-14 -78 -14 -150q0 -155 81 -223t249 -67q98 0 178 30l51 297h-178q-61 0 -49 58l24 145q11 59 68 59z" />
    <glyph glyph-name="gdotaccent" unicode="&#x121;" horiz-adv-x="1247" 
d="M649 1210q-55 0 -47 56l25 141q12 57 65 57h211q57 0 49 -57l-26 -141q-8 -55 -64 -56h-213zM473 -250q-106 0 -223 18t-172 46q-43 25 -23 69l60 127q27 55 78 35q129 -49 269 -49t212 55t94 164l14 72q-109 -145 -293 -145t-287 87q-103 88 -104 269q0 59 13 127
q45 251 171 369t314 118q100 0 185 -41t116 -108l25 81q16 45 63 46h191q61 -1 49 -56l-146 -833q-80 -451 -606 -451zM676 877q-193 0 -236 -254q-8 -66 -8 -91q0 -166 158 -165q190 0 237 262q8 39 9 82q0 166 -160 166z" />
    <glyph glyph-name="Gcommaaccent" unicode="&#x122;" horiz-adv-x="1437" 
d="M567 -612q-41 0 -22 41l88 194h-60q-51 0 -45 51l33 179q6 49 60 49h190q57 0 47 -49l-29 -158q-4 -25 -24 -68l-137 -207q-23 -33 -52 -32h-49zM899 872h432q59 0 51 -59l-116 -657q-8 -45 -60 -74q-186 -104 -479 -104t-454 134q-161 136 -160 412q0 94 18 205
q68 383 280 562t562 179q281 0 430 -104q43 -33 18 -78l-88 -149q-31 -55 -88 -29q-121 53 -258 53q-225 0 -341 -101t-157 -339q-14 -78 -14 -150q0 -155 81 -223t249 -67q98 0 178 30l51 297h-178q-61 0 -49 58l24 145q11 59 68 59z" />
    <glyph glyph-name="gcommaaccent" unicode="&#x123;" horiz-adv-x="1247" 
d="M1055 1720q35 0 20 -41l-82 -186h58q47 0 41 -47l-31 -168q-6 -47 -60 -47h-178q-53 0 -43 47l27 147q4 35 24 64l127 201q20 31 48 30h49zM473 -250q-106 0 -223 18t-172 46q-43 25 -23 69l60 127q27 55 78 35q129 -49 269 -49t212 55t94 164l14 72q-109 -145 -293 -145
t-287 87q-103 88 -104 269q0 59 13 127q45 251 171 369t314 118q100 0 185 -41t116 -108l25 81q16 45 63 46h191q61 -1 49 -56l-146 -833q-80 -451 -606 -451zM676 877q-193 0 -236 -254q-8 -66 -8 -91q0 -166 158 -165q190 0 237 262q8 39 9 82q0 166 -160 166z" />
    <glyph glyph-name="Hcircumflex" unicode="&#x124;" horiz-adv-x="1439" 
d="M659 1550h-106q-27 0 -31 18t17 36l223 202q37 35 80 35h127q47 0 73 -35l152 -202q12 -16 3 -34t-34 -20h-100q-24 0 -59 27l-119 109l-158 -109q-45 -27 -68 -27zM344 0h-231q-63 0 -52 59l234 1327q8 59 67 60h232q63 0 51 -60l-86 -495h471l86 495q12 59 68 60h233
q59 0 51 -60l-233 -1327q-12 -59 -68 -59h-231q-65 0 -53 59l92 521h-471l-92 -521q-12 -59 -68 -59z" />
    <glyph glyph-name="hcircumflex" unicode="&#x125;" horiz-adv-x="1269" 
d="M598 1550h-106q-27 0 -31 18t16 36l223 202q37 35 80 35h127q47 0 74 -35l152 -202q12 -16 3 -34t-34 -20h-101q-24 0 -59 27l-119 109l-157 -109q-45 -27 -68 -27zM1018 0h-221q-61 0 -49 57l104 586q6 37 6 66q0 127 -135 127q-99 0 -159 -60t-79 -158l-98 -563
q-10 -55 -63 -55h-222q-61 0 -49 57l236 1334q10 55 63 55h221q57 0 50 -55l-76 -430q121 154 340 153q315 0 315 -305q0 -63 -12 -137l-109 -615q-12 -57 -63 -57z" />
    <glyph glyph-name="Hbar" unicode="&#x126;" horiz-adv-x="1425" 
d="M559 891h471l37 207h-471zM344 0h-231q-63 0 -52 59l183 1039h-74q-43 0 -37 43l12 59q6 41 50 41h73l27 145q8 59 67 60h232q63 0 51 -60l-24 -145h471l24 145q12 59 68 60h233q64 0 51 -60l-26 -145h76q45 0 34 -41l-10 -59q-10 -43 -49 -43h-76l-182 -1039
q-12 -59 -68 -59h-231q-65 0 -53 59l92 521h-471l-92 -521q-12 -59 -68 -59z" />
    <glyph glyph-name="hbar" unicode="&#x127;" horiz-adv-x="1269" 
d="M1018 0h-221q-61 0 -49 57l104 586q6 37 6 66q0 127 -135 127q-99 0 -159 -60t-79 -158l-98 -561q-8 -57 -63 -57h-222q-61 0 -49 57l201 1143h-72q-43 0 -32 43l10 60q8 41 49 40h70l10 48q10 55 63 55h221q61 0 50 -55l-9 -48h254q43 0 35 -40l-10 -60q-8 -43 -51 -43
h-254l-41 -239q121 154 340 153q315 0 315 -305q0 -63 -12 -137l-109 -615q-12 -57 -63 -57z" />
    <glyph glyph-name="Itilde" unicode="&#x128;" horiz-adv-x="638" 
d="M719 1542q-78 0 -168 33l-82 33q-140 56 -158 -9l-4 -14q-12 -37 -57 -37h-74q-29 0 -38 14t-1 54q15 86 69 137t137 51t167 -35l84 -32q63 -25 103 -25t53 35l4 14q14 39 59 39h72q51 0 39 -78q-33 -180 -205 -180zM604 1446q63 0 51 -60l-233 -1327q-12 -59 -68 -59
h-231q-63 0 -51 59l233 1327q8 59 66 60h233z" />
    <glyph glyph-name="itilde" unicode="&#x129;" horiz-adv-x="598" 
d="M637 1210q-80 0 -164 33l-82 31q-121 51 -143 -8l-6 -15q-14 -35 -58 -34h-71q-27 0 -37 13t-4 50q16 86 67 135t128 49t165 -32l82 -33q68 -23 100 -23t45 35l5 14q14 35 59 35h72q50 0 36 -74q-29 -176 -194 -176zM330 0h-221q-59 0 -52 57l174 977q10 55 64 56h221
q57 -1 49 -56l-174 -977q-8 -57 -61 -57z" />
    <glyph glyph-name="Imacron" unicode="&#x12a;" horiz-adv-x="638" 
d="M829 1561h-634q-53 0 -45 53l14 86q8 53 61 53h635q55 0 47 -53l-14 -86q-13 -53 -64 -53zM604 1446q63 0 51 -60l-233 -1327q-12 -59 -68 -59h-231q-63 0 -51 59l233 1327q8 59 66 60h233z" />
    <glyph glyph-name="imacron" unicode="&#x12b;" horiz-adv-x="598" 
d="M745 1225h-624q-53 0 -45 53l14 80q8 53 62 53h624q53 0 45 -53l-12 -80q-11 -53 -64 -53zM330 0h-221q-59 0 -52 57l174 977q10 55 64 56h221q57 -1 49 -56l-174 -977q-8 -57 -61 -57z" />
    <glyph glyph-name="Ibreve" unicode="&#x12c;" horiz-adv-x="638" 
d="M521 1542q-165 0 -243 79t-61 189q10 43 47 43h90q47 0 47 -41q7 -108 137 -108t173 108q16 41 53 41h90q45 0 39 -43q-23 -112 -115 -190t-257 -78zM604 1446q63 0 51 -60l-233 -1327q-12 -59 -68 -59h-231q-63 0 -51 59l233 1327q8 59 66 60h233z" />
    <glyph glyph-name="ibreve" unicode="&#x12d;" horiz-adv-x="598" 
d="M445 1204q-167 0 -245 80t-57 191q6 43 47 43h84q45 0 45 -41q5 -113 139 -113t177 113q16 41 55 41h84q45 0 37 -43q-19 -117 -109 -194t-257 -77zM330 0h-221q-59 0 -52 57l174 977q10 55 64 56h221q57 -1 49 -56l-174 -977q-8 -57 -61 -57z" />
    <glyph glyph-name="Iogonek" unicode="&#x12e;" horiz-adv-x="638" 
d="M604 1446q63 0 51 -60l-233 -1327q-12 -59 -68 -59h-35q-133 -70 -133 -156q0 -53 82 -53q24 0 46 5t24 5q25 0 27 -22l8 -78q4 -23 -29 -43q-66 -39 -160 -39t-154 39t-60 114t60 134t152 94h-59q-63 0 -51 59l233 1327q8 59 66 60h233z" />
    <glyph glyph-name="iogonek" unicode="&#x12f;" horiz-adv-x="591" 
d="M541 1200h-228q-55 0 -49 57l25 129q8 55 63 56h226q57 -1 49 -56l-23 -129q-8 -57 -63 -57zM326 0h-39q-129 -59 -129 -145q0 -51 80 -52q20 0 40 4t27 5q25 2 27 -23l6 -72q2 -29 -27 -41q-65 -36 -153 -36t-146 36q-57 37 -57 101q0 143 197 223h-48q-57 0 -49 57
l174 977q8 55 64 56h221q59 -1 49 -56l-174 -977q-8 -57 -63 -57z" />
    <glyph glyph-name="Idotaccent" unicode="&#x130;" horiz-adv-x="638" 
d="M403 1546q-55 0 -47 58l27 147q8 55 63 55h211q58 0 50 -55l-27 -147q-8 -57 -64 -58h-213zM604 1446q63 0 51 -60l-233 -1327q-12 -59 -68 -59h-231q-63 0 -51 59l233 1327q8 59 66 60h233z" />
    <glyph glyph-name="dotlessi" unicode="&#x131;" horiz-adv-x="598" 
d="M330 0h-221q-59 0 -52 57l174 977q10 55 64 56h221q57 -1 49 -56l-174 -977q-8 -57 -61 -57z" />
    <glyph glyph-name="IJ" unicode="&#x132;" horiz-adv-x="1658" 
d="M1640 1446q63 0 52 -60l-160 -903q-45 -260 -182 -383t-381 -123q-105 0 -201 25q-96 24 -145 58t-21 81l86 158q31 57 80 35q78 -47 186 -47q195 0 234 227l153 872q8 59 68 60h231zM604 1446q63 0 51 -60l-233 -1327q-12 -59 -68 -59h-231q-63 0 -51 59l233 1327
q8 59 66 60h233z" />
    <glyph glyph-name="ij" unicode="&#x133;" horiz-adv-x="1210" 
d="M1159 1200h-227q-57 0 -49 57l22 129q12 55 66 56h225q61 -1 49 -56l-22 -129q-8 -57 -64 -57zM1133 1090q59 0 49 -56l-129 -727q-31 -176 -112 -251t-247 -74q-115 0 -174 16q-53 12 -45 59l27 138q8 51 57 47l72 -6q74 0 94 104l123 694q8 55 63 56h222zM541 1200
h-228q-55 0 -49 57l25 129q8 55 63 56h226q57 -1 49 -56l-23 -129q-8 -57 -63 -57zM326 0h-224q-55 0 -47 57l174 977q8 55 64 56h221q59 -1 49 -56l-174 -977q-8 -57 -63 -57z" />
    <glyph glyph-name="Jcircumflex" unicode="&#x134;" horiz-adv-x="1034" 
d="M498 1550h-107q-27 0 -31 18t17 36l223 202q37 35 80 35h127q47 0 74 -35l151 -202q12 -16 3 -34t-34 -20h-100q-24 0 -59 27l-119 109l-158 -109q-45 -27 -67 -27zM1020 1446q63 0 51 -60l-160 -903q-45 -260 -182 -383t-381 -123q-104 0 -200 25q-96 24 -146 58
q-49 34 -20 81l86 158q31 57 79 35q78 -47 187 -47q194 0 233 227l154 872q8 59 67 60h232z" />
    <glyph glyph-name="jcircumflex" unicode="&#x135;" horiz-adv-x="632" 
d="M258 1214h-106q-25 0 -30 18t13 36l221 205q35 35 80 34h127q49 0 76 -34l147 -205q12 -16 4 -35q-9 -18 -34 -19h-99q-36 0 -59 27l-117 111l-157 -111q-33 -27 -66 -27zM555 1090q55 0 47 -56l-168 -950q-28 -174 -110 -250t-248 -76q-113 0 -174 17q-49 12 -41 59
l26 139q6 47 56 47q61 -6 85 -6t48 24q22 24 30 79l162 917q12 55 64 56h223z" />
    <glyph glyph-name="Kcommaaccent" unicode="&#x136;" horiz-adv-x="1327" 
d="M459 -612q-41 0 -23 41l88 194h-59q-51 0 -45 51l33 179q6 49 59 49h190q57 0 48 -49l-29 -158q-5 -25 -25 -68l-137 -207q-23 -33 -51 -32h-49zM1133 1446h274q33 0 39 -25t-19 -51l-618 -598l399 -696q16 -28 4 -52t-45 -24h-243q-53 0 -80 55l-332 570l-100 -566
q-8 -59 -68 -59h-231q-63 0 -52 59l234 1327q8 59 67 60h232q63 0 51 -60l-80 -448l473 455q49 53 95 53z" />
    <glyph glyph-name="kcommaaccent" unicode="&#x137;" horiz-adv-x="1165" 
d="M438 -588h-49q-35 0 -20 41l82 187h-58q-47 0 -41 47l31 168q6 47 59 47h179q53 0 43 -47l-27 -148q-5 -34 -25 -63l-127 -201q-23 -31 -47 -31zM1024 0h-231q-53 0 -84 45l-252 401l-70 -389q-8 -57 -61 -57h-222q-63 0 -51 57l236 1334q10 55 63 55h221q57 0 50 -55
l-113 -629l332 287q37 41 90 41h256q31 0 36 -23t-22 -49l-487 -420l344 -526q16 -28 5 -50t-40 -22z" />
    <glyph glyph-name="kgreenlandic" unicode="&#x138;" horiz-adv-x="1163" 
d="M1020 0h-232q-53 0 -81 45l-254 401l-70 -389q-8 -57 -61 -57h-222q-59 0 -51 57l172 977q12 55 64 56h221q59 0 51 -56l-49 -272l330 287q41 41 90 41h256q31 0 37 -23t-21 -49l-487 -420l342 -526q16 -28 5 -50t-40 -22z" />
    <glyph glyph-name="Lacute" unicode="&#x139;" horiz-adv-x="1130" 
d="M608 1815h242q29 0 31 -23t-19 -39l-207 -174q-35 -29 -77 -29h-125q-23 0 -30 14t3 31l113 179q25 41 69 41zM973 313q63 0 51 -59l-33 -195q-12 -59 -69 -59h-801q-63 0 -51 59l233 1327q8 59 68 60h231q63 -1 51 -60l-188 -1073h508z" />
    <glyph glyph-name="lacute" unicode="&#x13a;" horiz-adv-x="587" 
d="M567 1815h242q29 0 31 -23t-19 -39l-207 -174q-35 -29 -77 -29h-125q-23 0 -30 14t3 31l113 179q25 41 69 41zM326 0h-224q-57 0 -49 57l236 1334q10 55 63 55h221q58 0 50 -55l-236 -1334q-12 -57 -61 -57z" />
    <glyph glyph-name="Lcommaaccent" unicode="&#x13b;" horiz-adv-x="1130" 
d="M342 -612q-41 0 -23 41l89 194h-60q-51 0 -45 51l33 179q6 49 59 49h191q57 0 47 -49l-29 -158q-4 -25 -24 -68l-138 -207q-23 -33 -51 -32h-49zM965 313q63 0 51 -59l-33 -195q-12 -59 -70 -59h-800q-63 0 -52 59l234 1327q8 59 67 60h232q63 -1 51 -60l-188 -1073h508z
" />
    <glyph glyph-name="lcommaaccent" unicode="&#x13c;" horiz-adv-x="587" 
d="M100 -588h-49q-35 0 -20 41l82 187h-58q-47 0 -41 47l31 168q6 47 59 47h179q53 0 43 -47l-27 -148q-5 -34 -25 -63l-127 -201q-20 -31 -47 -31zM328 0h-224q-57 0 -49 57l236 1334q8 55 63 55h221q60 0 50 -55l-236 -1334q-12 -57 -61 -57z" />
    <glyph glyph-name="Lcaron" unicode="&#x13d;" horiz-adv-x="1130" 
d="M891 899h-68q-20 0 -26 15t6 32l112 209h-71q-59 0 -47 57l34 199q8 55 68 55h205q61 0 55 -55l-33 -186q-7 -45 -30 -72l-152 -223q-20 -31 -53 -31zM965 313q63 0 51 -59l-33 -195q-12 -59 -70 -59h-800q-63 0 -52 59l234 1327q8 59 67 60h232q63 -1 51 -60l-188 -1073
h508z" />
    <glyph glyph-name="lcaron" unicode="&#x13e;" horiz-adv-x="909" 
d="M809 897h-68q-20 0 -26 15t6 32l113 209h-72q-59 0 -47 57l35 199q8 55 67 55h205q61 0 55 -55l-33 -186q-7 -45 -30 -72l-152 -223q-20 -31 -53 -31zM328 0h-224q-57 0 -49 57l236 1334q8 55 63 55h221q60 0 50 -55l-236 -1334q-12 -57 -61 -57z" />
    <glyph glyph-name="Ldot" unicode="&#x13f;" horiz-adv-x="1150" 
d="M866 891h209q66 0 53 -55l-38 -218q-8 -57 -62 -57h-221q-57 0 -49 57l39 218q12 55 69 55zM965 313q63 0 51 -59l-33 -195q-12 -59 -70 -59h-800q-63 0 -52 59l234 1327q8 59 67 60h232q63 -1 51 -60l-188 -1073h508z" />
    <glyph glyph-name="ldot" unicode="&#x140;" horiz-adv-x="888" 
d="M885 756q66 0 53 -56l-39 -217q-8 -57 -61 -57h-222q-57 0 -49 57l39 217q12 55 70 56h209zM326 0h-224q-57 0 -49 57l236 1334q10 55 63 55h221q58 0 50 -55l-236 -1334q-12 -57 -61 -57z" />
    <glyph glyph-name="Lslash" unicode="&#x141;" horiz-adv-x="1134" 
d="M969 313q63 0 51 -59l-33 -195q-12 -59 -69 -59h-801q-63 0 -51 59l84 486l-23 -10q-45 -25 -59 14l-21 57q-14 37 27 60l108 57l117 663q8 59 68 60h231q63 -1 51 -60l-80 -460l228 123q45 23 59 -17l21 -55q14 -41 -27 -59l-311 -166l-78 -439h508z" />
    <glyph glyph-name="lslash" unicode="&#x142;" horiz-adv-x="595" 
d="M328 0h-222q-57 0 -49 57l90 512l-14 -6q-43 -25 -59 17l-21 55q-12 37 27 59l100 54l113 643q10 55 63 55h222q57 0 49 -55l-78 -449l14 8q45 25 58 -16l22 -55q14 -37 -27 -60l-100 -53l-125 -709q-12 -57 -63 -57z" />
    <glyph glyph-name="Nacute" unicode="&#x143;" horiz-adv-x="1452" 
d="M971 1815h241q29 0 31 -23t-18 -39l-207 -174q-35 -29 -78 -29h-125q-23 0 -30 14t3 31l113 179q25 41 70 41zM1178 0h-222q-53 0 -69 39l-346 817l-142 -797q-12 -59 -67 -59h-219q-63 0 -52 59l234 1327q8 59 67 60h220q55 0 71 -39l346 -817l142 796q8 59 65 60h221
q62 -1 54 -60l-236 -1327q-12 -59 -67 -59z" />
    <glyph glyph-name="nacute" unicode="&#x144;" horiz-adv-x="1261" 
d="M793 1477h241q29 0 32 -22t-17 -38l-207 -174q-31 -29 -74 -29h-123q-25 0 -32 14t3 32l113 178q23 39 64 39zM1008 0h-222q-57 0 -49 57l105 586q6 37 6 66q0 127 -135 127q-97 0 -157 -58t-77 -160l-100 -561q-8 -57 -64 -57h-219q-61 0 -49 57l172 977q12 55 64 56
h198q53 0 54 -46l-3 -92q137 162 347 162q315 0 315 -301q0 -61 -12 -135l-111 -621q-8 -57 -63 -57z" />
    <glyph glyph-name="Ncommaaccent" unicode="&#x145;" horiz-adv-x="1452" 
d="M430 -612q-41 0 -22 41l88 194h-60q-51 0 -45 51l33 179q6 49 59 49h191q57 0 47 -49l-29 -158q-4 -25 -24 -68l-138 -207q-23 -33 -51 -32h-49zM1178 0h-222q-53 0 -69 39l-346 817l-142 -797q-12 -59 -67 -59h-219q-63 0 -52 59l234 1327q8 59 67 60h220q55 0 71 -39
l346 -817l142 796q8 59 65 60h221q62 -1 54 -60l-236 -1327q-12 -59 -67 -59z" />
    <glyph glyph-name="ncommaaccent" unicode="&#x146;" horiz-adv-x="1261" 
d="M442 -588h-49q-35 0 -20 41l82 187h-58q-47 0 -41 47l31 168q6 47 59 47h179q53 0 43 -47l-27 -148q-5 -34 -25 -63l-127 -201q-23 -31 -47 -31zM1008 0h-222q-57 0 -49 57l105 586q6 37 6 66q0 127 -135 127q-97 0 -157 -58t-77 -160l-100 -561q-8 -57 -64 -57h-219
q-61 0 -49 57l172 977q12 55 64 56h198q53 0 54 -46l-3 -92q137 162 347 162q315 0 315 -301q0 -61 -12 -135l-111 -621q-8 -57 -63 -57z" />
    <glyph glyph-name="Ncaron" unicode="&#x147;" horiz-adv-x="1452" 
d="M1116 1841h107q25 0 31 -18t-11 -35l-225 -205q-39 -33 -84 -33h-125q-47 0 -72 33l-151 205q-12 16 -3 34t33 19h99q37 0 59 -26l121 -109l156 106q45 29 65 29zM1178 0h-222q-53 0 -69 39l-346 817l-142 -797q-12 -59 -67 -59h-219q-63 0 -52 59l234 1327q8 59 67 60
h220q55 0 71 -39l346 -817l142 796q8 59 65 60h221q62 -1 54 -60l-236 -1327q-12 -59 -67 -59z" />
    <glyph glyph-name="ncaron" unicode="&#x148;" horiz-adv-x="1261" 
d="M1106 1507q25 0 31 -18t-13 -35l-223 -205q-35 -35 -82 -35h-125q-53 0 -73 35l-150 205q-14 16 -5 34t36 19h98q31 0 62 -26l116 -113l158 113q35 27 61 26h109zM1008 0h-222q-57 0 -49 57l105 586q6 37 6 66q0 127 -135 127q-97 0 -157 -58t-77 -160l-100 -561
q-8 -57 -64 -57h-219q-61 0 -49 57l172 977q12 55 64 56h198q53 0 54 -46l-3 -92q137 162 347 162q315 0 315 -301q0 -61 -12 -135l-111 -621q-8 -57 -63 -57z" />
    <glyph glyph-name="napostrophe" unicode="&#x149;" horiz-adv-x="1576" 
d="M166 928q-20 0 -27 15q-6 15 6 32l113 209h-72q-59 0 -47 57l35 199q10 55 68 55h204q61 0 56 -55l-33 -187q-8 -44 -31 -71l-151 -224q-20 -31 -54 -30h-67zM1325 0h-221q-57 0 -49 57l104 586q6 37 6 66q0 127 -135 127q-96 0 -156 -58t-77 -160l-101 -561
q-8 -57 -63 -57h-219q-61 0 -49 57l172 977q12 55 63 56h199q53 0 53 -46l-2 -92q137 162 346 162q315 0 315 -301q0 -61 -12 -135l-110 -621q-8 -57 -64 -57z" />
    <glyph glyph-name="Eng" unicode="&#x14a;" horiz-adv-x="1452" 
d="M332 0h-219q-63 0 -52 59l234 1327q8 59 67 60h224q55 0 69 -39l349 -805l137 784q8 59 65 60h221q64 -1 52 -60l-232 -1316q-29 -164 -113 -238t-245 -74q-111 0 -184 19q-53 12 -43 57l34 139q8 51 58 47l71 -8q74 0 88 80l-372 764l-142 -797q-12 -59 -67 -59z" />
    <glyph glyph-name="eng" unicode="&#x14b;" horiz-adv-x="1261" 
d="M848 709q0 127 -135 127q-97 0 -157 -58t-77 -160l-100 -561q-8 -57 -64 -57h-219q-61 0 -49 57l172 977q12 55 64 56h200q51 0 52 -46l-3 -92q137 162 363 162q303 0 303 -283q0 -59 -12 -126l-111 -621q-29 -174 -111 -250t-245 -76q-100 0 -170 19q-51 14 -41 57
l24 139q8 47 58 47q41 -6 65 -6q77 1 93 103l94 526q6 37 6 66z" />
    <glyph glyph-name="Omacron" unicode="&#x14c;" horiz-adv-x="1472" 
d="M1247 1561h-635q-53 0 -45 53l15 86q8 53 61 53h635q55 0 47 -53l-14 -86q-13 -53 -64 -53zM702 281q293 0 371 442q18 98 19 172q0 272 -234 272q-293 0 -371 -444q-18 -98 -18 -172q0 -270 233 -270zM893 1470q265 0 411 -136t146 -404q0 -104 -20 -209
q-131 -743 -762 -744q-264 -1 -410 135t-147 404q0 98 18 209q135 745 764 745z" />
    <glyph glyph-name="omacron" unicode="&#x14d;" horiz-adv-x="1253" 
d="M1073 1225h-624q-53 0 -46 53l15 80q8 53 61 53h625q53 0 45 -53l-12 -80q-11 -53 -64 -53zM586 236q207 0 264 309q12 70 12 121q0 190 -168 190q-207 0 -264 -311q-12 -68 -12 -119q0 -190 168 -190zM574 -23q-238 0 -367 113t-129 324q0 61 12 135q49 279 213 422
q165 143 403 143t367 -113t129 -323q0 -61 -12 -135q-49 -279 -213 -423q-165 -144 -403 -143z" />
    <glyph glyph-name="Obreve" unicode="&#x14e;" horiz-adv-x="1472" 
d="M939 1542q-165 0 -244 79t-60 189q8 43 47 43h90q47 0 47 -41q6 -108 136 -108t173 108q16 41 54 41h90q45 0 39 -43q-23 -112 -115 -190t-257 -78zM702 281q293 0 371 442q18 98 19 172q0 272 -234 272q-293 0 -371 -444q-18 -98 -18 -172q0 -270 233 -270zM893 1470
q265 0 411 -136t146 -404q0 -104 -20 -209q-131 -743 -762 -744q-264 -1 -410 135t-147 404q0 98 18 209q135 745 764 745z" />
    <glyph glyph-name="obreve" unicode="&#x14f;" horiz-adv-x="1253" 
d="M773 1204q-167 0 -245 80t-57 191q6 43 47 43h84q45 0 45 -41q4 -113 138 -113t178 113q16 41 55 41h84q45 0 37 -43q-19 -117 -109 -194t-257 -77zM586 236q207 0 264 309q12 70 12 121q0 190 -168 190q-207 0 -264 -311q-12 -68 -12 -119q0 -190 168 -190zM574 -23
q-238 0 -367 113t-129 324q0 61 12 135q49 279 213 422q165 143 403 143t367 -113t129 -323q0 -61 -12 -135q-49 -279 -213 -423q-165 -144 -403 -143z" />
    <glyph glyph-name="Ohungarumlaut" unicode="&#x150;" horiz-adv-x="1472" 
d="M1214 1833h222q28 0 32 -23t-14 -41l-186 -182q-31 -29 -80 -28h-117q-25 1 -34 15t3 32l107 186q20 41 67 41zM801 1833h223q18 0 26 -11q19 -24 -10 -53l-188 -182q-29 -29 -76 -28h-119q-25 1 -33 15t3 32l106 186q25 41 68 41zM702 281q293 0 371 442q18 98 19 172
q0 272 -234 272q-293 0 -371 -444q-18 -98 -18 -172q0 -270 233 -270zM893 1470q265 0 411 -136t146 -404q0 -104 -20 -209q-131 -743 -762 -744q-264 -1 -410 135t-147 404q0 98 18 209q135 745 764 745z" />
    <glyph glyph-name="ohungarumlaut" unicode="&#x151;" horiz-adv-x="1253" 
d="M1020 1477h211q27 0 31 -22t-15 -38l-180 -174q-29 -29 -74 -29h-108q-25 0 -33 14t2 32l102 178q18 39 64 39zM625 1477h211q26 0 30 -22t-16 -38l-178 -174q-27 -29 -74 -29h-109q-25 0 -33 14t1 32l104 178q20 39 64 39zM586 236q207 0 264 309q12 70 12 121
q0 190 -168 190q-207 0 -264 -311q-12 -68 -12 -119q0 -190 168 -190zM574 -23q-238 0 -367 113t-129 324q0 61 12 135q49 279 213 422q165 143 403 143t367 -113t129 -323q0 -61 -12 -135q-49 -279 -213 -423q-165 -144 -403 -143z" />
    <glyph glyph-name="OE" unicode="&#x152;" horiz-adv-x="1912" 
d="M973 1139q-193 0 -294 -89t-142 -327q-16 -94 -17 -156q0 -145 75 -202t232 -58h70l147 832h-71zM1755 594h-463l-53 -297h498q61 0 53 -59l-33 -179q-12 -59 -67 -59h-910q-621 0 -620 518q0 100 20 211q68 383 263 550q196 167 552 167h934q63 0 51 -60l-30 -178
q-8 -59 -68 -59h-491l-50 -272h461q61 0 49 -60l-28 -164q-13 -59 -68 -59z" />
    <glyph glyph-name="oe" unicode="&#x153;" horiz-adv-x="1916" 
d="M1579 713q0 166 -160 166q-190 0 -258 -250h410q8 56 8 84zM578 236q203 0 260 309q12 68 12 119q0 193 -164 192q-199 0 -256 -311q-12 -70 -12 -123q0 -186 160 -186zM1389 211q120 0 260 61q57 25 67 -34l19 -111q8 -41 -45 -68q-178 -84 -335 -84q-157 1 -258 49
t-149 128q-158 -174 -388 -174t-356 113q-126 114 -126 323q0 66 12 135q47 277 209 421q161 144 415 144t347 -166q147 166 391 166q194 0 306 -110t112 -295q0 -63 -8 -115l-19 -98q-12 -57 -67 -58h-633q-2 -8 -2 -26q2 -96 65 -148t183 -53z" />
    <glyph glyph-name="Racute" unicode="&#x154;" horiz-adv-x="1370" 
d="M938 1815h242q28 0 30 -23t-18 -39l-207 -174q-35 -29 -78 -29h-125q-24 0 -30 14t4 31l112 179q25 41 70 41zM362 1446h467q551 0 551 -383q0 -51 -10 -123q-59 -336 -393 -430l227 -434q16 -28 4 -52t-45 -24h-223q-57 0 -80 47l-209 414h-170l-71 -402
q-12 -59 -68 -59h-227q-66 0 -54 59l234 1327q8 60 67 60zM721 743q141 1 210 49q93 65 93 212q0 78 -55 112t-176 33h-191l-72 -406h191z" />
    <glyph glyph-name="racute" unicode="&#x155;" horiz-adv-x="864" 
d="M614 1477h242q29 0 32 -22t-18 -38l-206 -174q-31 -29 -74 -29h-123q-25 0 -32 14t3 32l113 178q23 39 63 39zM319 0h-221q-59 0 -51 57l174 977q9 56 64 56h198q51 0 52 -50l-11 -139q52 78 146 139t204 62q29 0 39 -11t5 -40l-37 -226q-10 -45 -58 -45l-75 4
q-109 0 -187 -74t-96 -186l-84 -467q-8 -57 -62 -57z" />
    <glyph glyph-name="Rcommaaccent" unicode="&#x156;" horiz-adv-x="1370" 
d="M436 -612q-41 0 -22 41l88 194h-60q-51 0 -45 51l33 179q6 49 59 49h191q57 0 47 -49l-29 -158q-4 -25 -24 -68l-137 -207q-23 -33 -52 -32h-49zM362 1446h467q551 0 551 -383q0 -51 -10 -123q-59 -336 -393 -430l227 -434q16 -28 4 -52t-45 -24h-223q-57 0 -80 47
l-209 414h-170l-71 -402q-12 -59 -68 -59h-227q-66 0 -54 59l234 1327q8 60 67 60zM721 743q141 1 210 49q93 65 93 212q0 78 -55 112t-176 33h-191l-72 -406h191z" />
    <glyph glyph-name="rcommaaccent" unicode="&#x157;" horiz-adv-x="864" 
d="M94 -588h-49q-35 0 -20 41l81 187h-57q-47 0 -41 47l31 168q6 47 59 47h178q53 0 43 -47l-26 -148q-5 -34 -25 -63l-127 -201q-23 -31 -47 -31zM319 0h-221q-59 0 -51 57l174 977q9 56 64 56h198q51 0 52 -50l-11 -139q52 78 146 139t204 62q29 0 39 -11t5 -40l-37 -226
q-10 -45 -58 -45l-75 4q-109 0 -187 -74t-96 -186l-84 -467q-8 -57 -62 -57z" />
    <glyph glyph-name="Rcaron" unicode="&#x158;" horiz-adv-x="1370" 
d="M1112 1841h107q25 0 31 -18t-11 -35l-225 -205q-39 -33 -84 -33h-125q-47 0 -72 33l-151 205q-12 16 -3 34t33 19h99q37 0 59 -26l121 -109l156 106q45 29 65 29zM362 1446h467q551 0 551 -383q0 -51 -10 -123q-59 -336 -393 -430l227 -434q16 -28 4 -52t-45 -24h-223
q-57 0 -80 47l-209 414h-170l-71 -402q-12 -59 -68 -59h-227q-66 0 -54 59l234 1327q8 60 67 60zM721 743q141 1 210 49q93 65 93 212q0 78 -55 112t-176 33h-191l-72 -406h191z" />
    <glyph glyph-name="rcaron" unicode="&#x159;" horiz-adv-x="864" 
d="M928 1507q24 0 30 -18t-12 -35l-223 -205q-35 -35 -82 -35h-125q-53 0 -74 35l-149 205q-14 16 -5 34t36 19h98q31 0 61 -26l117 -113l158 113q35 27 61 26h109zM319 0h-221q-59 0 -51 57l174 977q9 56 64 56h198q51 0 52 -50l-11 -139q52 78 146 139t204 62q29 0 39 -11
t5 -40l-37 -226q-10 -45 -58 -45l-75 4q-109 0 -187 -74t-96 -186l-84 -467q-8 -57 -62 -57z" />
    <glyph glyph-name="Sacute" unicode="&#x15a;" horiz-adv-x="1210" 
d="M858 1815h242q28 0 30 -23t-18 -39l-207 -174q-35 -29 -78 -29h-125q-24 0 -30 14t4 31l112 179q25 41 70 41zM1137 475q0 -244 -176 -370t-447 -125q-145 0 -273 26t-196 64q-47 25 -22 73l86 156q31 55 81 35q131 -62 272 -62q318 -1 318 156q0 53 -55 90t-197 90
q-142 54 -237 142q-96 88 -96 241q0 242 163 360q164 117 434 117t416 -82q45 -27 21 -73l-82 -148q-31 -57 -84 -35q-117 43 -268 44q-244 0 -244 -142q0 -53 49 -86q50 -33 152 -76q102 -44 155 -72q154 -83 201 -182q29 -61 29 -141z" />
    <glyph glyph-name="sacute" unicode="&#x15b;" horiz-adv-x="995" 
d="M682 1477h242q30 0 32 -22t-18 -38l-207 -174q-31 -29 -74 -29h-122q-25 0 -32 14t3 32l112 178q23 39 64 39zM903 340q0 -193 -140 -278q-141 -85 -365 -85t-369 60q-47 20 -27 67l57 119q23 53 76 35q113 -39 230 -39q209 0 208 105q-1 38 -39 64t-148 64t-187 103
q-78 66 -78 188q0 193 132 282t351 89t340 -55q47 -20 25 -70l-54 -115q-25 -51 -75 -36q-94 35 -213 34q-174 0 -174 -98q0 -40 41 -66q42 -26 154 -72t184 -114t71 -182z" />
    <glyph glyph-name="Scircumflex" unicode="&#x15c;" horiz-adv-x="1210" 
d="M594 1550h-107q-27 0 -31 18t17 36l223 202q37 35 80 35h127q47 0 74 -35l151 -202q12 -16 4 -35q-9 -18 -34 -19h-101q-24 0 -59 27l-119 109l-157 -109q-45 -27 -68 -27zM1137 475q0 -244 -176 -370t-447 -125q-145 0 -273 26t-196 64q-47 25 -22 73l86 156
q31 55 81 35q131 -62 272 -62q318 -1 318 156q0 53 -55 90t-197 90q-142 54 -237 142q-96 88 -96 241q0 242 163 360q164 117 434 117t416 -82q45 -27 21 -73l-82 -148q-31 -57 -84 -35q-117 43 -268 44q-244 0 -244 -142q0 -53 49 -86q50 -33 152 -76q102 -44 155 -72
q154 -83 201 -182q29 -61 29 -141z" />
    <glyph glyph-name="scircumflex" unicode="&#x15d;" horiz-adv-x="995" 
d="M436 1214h-106q-25 0 -30 18t13 36l222 205q35 35 79 34h127q49 0 76 -34l148 -205q12 -16 3 -34t-34 -20h-98q-37 0 -60 27l-117 111l-157 -111q-33 -27 -66 -27zM903 340q0 -193 -140 -278q-141 -85 -365 -85t-369 60q-47 20 -27 67l57 119q23 53 76 35
q113 -39 230 -39q209 0 208 105q-1 38 -39 64t-148 64t-187 103q-78 66 -78 188q0 193 132 282t351 89t340 -55q47 -20 25 -70l-54 -115q-25 -51 -75 -36q-94 35 -213 34q-174 0 -174 -98q0 -40 41 -66q42 -26 154 -72t184 -114t71 -182z" />
    <glyph glyph-name="Scedilla" unicode="&#x15e;" horiz-adv-x="1210" 
d="M1137 475q0 -225 -154 -350t-395 -141q117 -68 117 -166t-78 -148q-79 -50 -179 -51q-100 0 -132 12t-29 39l14 80q6 35 43 35h66q111 0 110 80q0 63 -78 117q-264 12 -397 88q-47 25 -22 73l86 156q31 55 81 35q131 -62 272 -62q318 -1 318 156q0 53 -55 90t-197 90
q-142 54 -237 142q-96 88 -96 241q0 242 163 360q164 117 434 117t416 -82q45 -27 21 -73l-82 -148q-31 -57 -84 -35q-117 43 -268 44q-244 0 -244 -142q0 -53 49 -86q50 -33 152 -76q102 -44 155 -72q154 -83 201 -182q29 -61 29 -141z" />
    <glyph glyph-name="scedilla" unicode="&#x15f;" horiz-adv-x="995" 
d="M903 340q0 -332 -430 -360q111 -64 111 -158t-73 -138t-167 -44t-130 12t-30 37l13 75q6 33 41 33h63q106 0 107 76q0 59 -72 107q-190 10 -307 57q-47 20 -27 67l57 119q23 53 76 35q113 -39 230 -39q209 0 208 105q-1 38 -39 64t-148 64t-187 103q-78 66 -78 188
q0 193 132 282t351 89t340 -55q47 -20 25 -70l-54 -115q-25 -51 -75 -36q-94 35 -213 34q-174 0 -174 -98q0 -40 41 -66q42 -26 154 -72t184 -114t71 -182z" />
    <glyph glyph-name="Scaron" unicode="&#x160;" horiz-adv-x="1210" 
d="M1032 1841h107q25 0 31 -18t-11 -35l-225 -205q-39 -33 -84 -33h-125q-47 0 -72 33l-151 205q-12 16 -3 34t33 19h99q37 0 59 -26l121 -109l156 106q45 29 65 29zM1137 475q0 -244 -176 -370t-447 -125q-145 0 -273 26t-196 64q-47 25 -22 73l86 156q31 55 81 35
q131 -62 272 -62q318 -1 318 156q0 53 -55 90t-197 90q-142 54 -237 142q-96 88 -96 241q0 242 163 360q164 117 434 117t416 -82q45 -27 21 -73l-82 -148q-31 -57 -84 -35q-117 43 -268 44q-244 0 -244 -142q0 -53 49 -86q50 -33 152 -76q102 -44 155 -72q154 -83 201 -182
q29 -61 29 -141z" />
    <glyph glyph-name="scaron" unicode="&#x161;" horiz-adv-x="995" 
d="M981 1507q25 0 31 -18t-13 -35l-223 -205q-35 -35 -82 -35h-125q-53 0 -73 35l-150 205q-14 16 -5 34t36 19h98q31 0 62 -26l116 -113l158 113q35 27 61 26h109zM903 340q0 -193 -140 -278q-141 -85 -365 -85t-369 60q-47 20 -27 67l57 119q23 53 76 35q113 -39 230 -39
q209 0 208 105q-1 38 -39 64t-148 64t-187 103q-78 66 -78 188q0 193 132 282t351 89t340 -55q47 -20 25 -70l-54 -115q-25 -51 -75 -36q-94 35 -213 34q-174 0 -174 -98q0 -40 41 -66q42 -26 154 -72t184 -114t71 -182z" />
    <glyph glyph-name="Tcommaaccent" unicode="&#x162;" horiz-adv-x="1179" 
d="M336 -612q-41 0 -23 41l88 194h-59q-51 0 -45 51l33 179q6 49 59 49h191q57 0 47 -49l-29 -158q-5 -25 -25 -68l-137 -207q-23 -33 -51 -32h-49zM1237 1446q63 0 51 -60l-33 -192q-12 -61 -69 -61h-305l-189 -1074q-12 -59 -67 -59h-232q-63 0 -51 59l188 1074h-301
q-61 0 -51 61l35 192q8 59 66 60h958z" />
    <glyph glyph-name="tcommaaccent" unicode="&#x163;" horiz-adv-x="808" 
d="M248 -588h-49q-35 0 -21 41l82 187h-57q-47 0 -41 47l31 168q6 47 59 47h178q53 0 43 -47l-27 -148q-4 -34 -24 -63l-127 -201q-20 -31 -47 -31zM457 -18q-162 0 -242 57t-80 190q0 51 12 113l82 471h-92q-59 0 -47 55l23 133q12 57 63 58h100l43 248q12 49 66 49h205
q59 0 51 -49l-43 -248h199q61 0 49 -58l-23 -133q-12 -55 -65 -55h-201l-80 -448q-13 -74 9 -102t94 -27l82 10q47 0 40 -51l-18 -136q-4 -41 -61 -57q-82 -20 -166 -20z" />
    <glyph glyph-name="Tcaron" unicode="&#x164;" horiz-adv-x="1179" 
d="M1022 1841h106q25 0 32 -18t-11 -35l-225 -205q-39 -33 -84 -33h-125q-47 0 -72 33l-151 205q-12 16 -4 35q9 18 34 18h99q37 0 59 -26l121 -109l155 106q45 29 66 29zM1237 1446q63 0 51 -60l-33 -192q-12 -61 -69 -61h-305l-189 -1074q-12 -59 -67 -59h-232
q-63 0 -51 59l188 1074h-301q-61 0 -51 61l35 192q8 59 66 60h958z" />
    <glyph glyph-name="tcaron" unicode="&#x165;" horiz-adv-x="1130" 
d="M1030 907h-67q-21 -1 -27 15t6 32l113 209h-72q-59 0 -47 58l35 198q8 55 67 56h205q61 0 55 -56l-32 -186q-8 -45 -31 -72l-152 -223q-20 -31 -53 -31zM455 -18q-162 0 -242 57t-80 190q0 51 12 113l82 471h-92q-59 0 -47 55l23 133q12 57 63 58h100l43 248q12 49 66 49
h205q59 0 51 -49l-43 -248h199q61 0 49 -58l-23 -133q-12 -55 -65 -55h-201l-80 -448q-13 -74 9 -102t94 -27l81 10q47 0 41 -51l-18 -136q-4 -41 -61 -57q-82 -20 -166 -20z" />
    <glyph glyph-name="Tbar" unicode="&#x166;" horiz-adv-x="1179" 
d="M1237 1446q63 0 51 -60l-33 -192q-12 -61 -69 -61h-305l-68 -392h178q47 0 39 -41l-14 -88q-10 -41 -51 -41h-183l-90 -512q-12 -59 -67 -59h-232q-63 0 -51 59l88 512h-178q-45 0 -35 41l14 88q6 41 48 41h182l69 392h-301q-61 0 -51 61l35 192q8 59 68 60h956z" />
    <glyph glyph-name="tbar" unicode="&#x167;" horiz-adv-x="808" 
d="M459 -18q-164 0 -245 57t-81 188q0 41 10 103l23 131h-107q-41 0 -34 41l12 73q6 41 47 41h111l34 197h-92q-59 0 -47 55l23 133q12 57 63 58h100l43 248q12 49 66 49h205q59 0 51 -49l-43 -248h199q61 0 49 -58l-23 -133q-12 -55 -65 -55h-201l-35 -197h174q45 0 39 -41
l-12 -73q-8 -41 -49 -41h-180l-17 -96q-13 -74 9 -102t94 -27l82 10q47 0 40 -51l-18 -136q-4 -41 -61 -57q-82 -20 -164 -20z" />
    <glyph glyph-name="Utilde" unicode="&#x168;" horiz-adv-x="1417" 
d="M1108 1542q-78 0 -168 33l-82 33q-140 56 -158 -9l-4 -14q-12 -37 -57 -37h-74q-29 0 -38 14t-1 54q14 86 68 137t138 51q83 0 167 -35l84 -32q63 -25 103 -25t53 35l4 14q14 39 59 39h72q51 0 39 -78q-33 -180 -205 -180zM123 399q0 63 12 133l152 854q8 59 67 60h232
q63 0 51 -60l-145 -823q-8 -47 -9 -92q0 -92 46 -137t158 -45q222 0 269 274l146 823q12 59 67 60h232q63 0 51 -60l-149 -854q-97 -555 -639 -555q-541 0 -541 422z" />
    <glyph glyph-name="utilde" unicode="&#x169;" horiz-adv-x="1249" 
d="M961 1210q-80 0 -164 33l-82 31q-120 51 -144 -8l-6 -15q-14 -35 -57 -34h-72q-27 0 -37 13t-4 50q15 86 67 135t129 49t165 -32l82 -33q68 -23 102 -23t47 49q14 35 60 35h71q51 0 37 -74q-29 -176 -194 -176zM496 1090q57 0 49 -56l-107 -598q-6 -35 -6 -65
q0 -121 129 -121q92 0 154 57q61 57 78 154l100 573q8 55 63 56h222q59 0 49 -56l-174 -977q-8 -57 -62 -57h-200q-49 0 -54 45l2 94q-43 -69 -127 -115t-200 -47q-328 0 -328 291q0 53 12 121l115 645q10 55 63 56h222z" />
    <glyph glyph-name="Umacron" unicode="&#x16a;" horiz-adv-x="1417" 
d="M1219 1561h-635q-53 0 -45 53l14 86q8 53 61 53h635q55 0 47 -53l-14 -86q-12 -53 -63 -53zM123 399q0 63 12 133l152 854q8 59 67 60h232q63 0 51 -60l-145 -823q-8 -47 -9 -92q0 -92 46 -137t158 -45q222 0 269 274l146 823q12 59 67 60h232q63 0 51 -60l-149 -854
q-97 -555 -639 -555q-541 0 -541 422z" />
    <glyph glyph-name="umacron" unicode="&#x16b;" horiz-adv-x="1249" 
d="M1069 1225h-625q-53 0 -45 53l15 80q8 53 61 53h625q53 0 45 -53l-12 -80q-11 -53 -64 -53zM496 1090q57 0 49 -56l-107 -598q-6 -35 -6 -65q0 -121 129 -121q92 0 154 57q61 57 78 154l100 573q8 55 63 56h222q59 0 49 -56l-174 -977q-8 -57 -62 -57h-200q-49 0 -54 45
l2 94q-43 -69 -127 -115t-200 -47q-328 0 -328 291q0 53 12 121l115 645q10 55 63 56h222z" />
    <glyph glyph-name="Ubreve" unicode="&#x16c;" horiz-adv-x="1417" 
d="M910 1542q-166 0 -244 79t-60 189q8 43 47 43h90q47 0 48 -41q6 -108 136 -108t173 108q16 41 53 41h90q45 0 39 -43q-23 -112 -115 -190t-257 -78zM123 399q0 63 12 133l152 854q8 59 67 60h232q63 0 51 -60l-145 -823q-8 -47 -9 -92q0 -92 46 -137t158 -45
q222 0 269 274l146 823q12 59 67 60h232q63 0 51 -60l-149 -854q-97 -555 -639 -555q-541 0 -541 422z" />
    <glyph glyph-name="ubreve" unicode="&#x16d;" horiz-adv-x="1249" 
d="M769 1204q-167 0 -245 80t-57 191q6 43 47 43h84q45 0 45 -41q4 -113 138 -113t177 113q16 41 56 41h84q45 0 37 -43q-19 -117 -109 -194t-257 -77zM496 1090q57 0 49 -56l-107 -598q-6 -35 -6 -65q0 -121 129 -121q92 0 154 57q61 57 78 154l100 573q8 55 63 56h222
q59 0 49 -56l-174 -977q-8 -57 -62 -57h-200q-49 0 -54 45l2 94q-43 -69 -127 -115t-200 -47q-328 0 -328 291q0 53 12 121l115 645q10 55 63 56h222z" />
    <glyph glyph-name="Uring" unicode="&#x16e;" horiz-adv-x="1417" 
d="M1182 1752q0 -98 -80 -174t-188 -75q-108 -1 -172 55t-64 156t80 174t187 74t172 -56t65 -154zM940 1837q-47 0 -85 -33t-38 -80q0 -48 28 -72q29 -24 75 -24t85 33q37 33 37 80t-28 71t-74 25zM123 399q0 63 12 133l152 854q8 59 67 60h232q63 0 51 -60l-145 -823
q-8 -47 -9 -92q0 -92 46 -137t158 -45q222 0 269 274l146 823q12 59 67 60h232q63 0 51 -60l-149 -854q-97 -555 -639 -555q-541 0 -541 422z" />
    <glyph glyph-name="uring" unicode="&#x16f;" horiz-adv-x="1249" 
d="M545 1411q-1 97 77 167t184 71q106 -1 170 -57t64 -152t-78 -168q-78 -70 -184 -70t-170 56q-63 56 -63 153zM680 1416q0 -93 102 -93q47 0 84 32t37 78q-1 47 -27 71t-73 24t-85 -33t-38 -79zM496 1090q57 0 49 -56l-107 -598q-6 -35 -6 -65q0 -121 129 -121
q92 0 154 57q61 57 78 154l100 573q8 55 63 56h222q59 0 49 -56l-174 -977q-8 -57 -62 -57h-200q-49 0 -54 45l2 94q-43 -69 -127 -115t-200 -47q-328 0 -328 291q0 53 12 121l115 645q10 55 63 56h222z" />
    <glyph glyph-name="Uhungarumlaut" unicode="&#x170;" horiz-adv-x="1417" 
d="M1159 1833h221q29 0 33 -23t-14 -41l-187 -182q-31 -29 -79 -28h-117q-25 1 -34 15t3 32l107 186q20 41 67 41zM745 1833h224q18 0 31 -17t-15 -47l-188 -182q-29 -29 -76 -28h-119q-25 1 -33 15t2 32l107 186q25 41 67 41zM123 399q0 63 12 133l152 854q8 59 67 60h232
q63 0 51 -60l-145 -823q-8 -47 -9 -92q0 -92 46 -137t158 -45q222 0 269 274l146 823q12 59 67 60h232q63 0 51 -60l-149 -854q-97 -555 -639 -555q-541 0 -541 422z" />
    <glyph glyph-name="uhungarumlaut" unicode="&#x171;" horiz-adv-x="1249" 
d="M1001 1477h211q27 0 31 -22t-14 -38l-180 -174q-29 -29 -74 -29h-109q-24 0 -32 14t2 32l102 178q20 39 63 39zM606 1477h211q27 0 31 -22t-17 -38l-178 -174q-27 -29 -73 -29h-109q-25 0 -34 14t1 32l105 178q18 39 63 39zM496 1090q57 0 49 -56l-107 -598
q-6 -35 -6 -65q0 -121 129 -121q92 0 154 57q61 57 78 154l100 573q8 55 63 56h222q59 0 49 -56l-174 -977q-8 -57 -62 -57h-200q-49 0 -54 45l2 94q-43 -69 -127 -115t-200 -47q-328 0 -328 291q0 53 12 121l115 645q10 55 63 56h222z" />
    <glyph glyph-name="Uogonek" unicode="&#x172;" horiz-adv-x="1417" 
d="M729 -209q23 0 45 5t25 5q25 0 26 -22l9 -78q4 -23 -29 -43q-66 -39 -160 -39t-155 39q-60 39 -60 109q0 131 162 213q-229 10 -349 115t-120 302q0 61 12 135l152 854q8 59 67 60h232q63 0 51 -60l-145 -823q-8 -47 -9 -92q0 -92 46 -137t158 -45q222 0 269 274l146 823
q12 59 67 60h232q63 0 51 -60l-149 -854q-45 -254 -181 -391t-374 -159q-100 -59 -101 -138q0 -53 82 -53z" />
    <glyph glyph-name="uogonek" unicode="&#x173;" horiz-adv-x="1249" 
d="M496 1090q57 0 49 -56l-107 -598q-6 -35 -6 -65q0 -121 129 -121q92 0 154 57q61 57 78 154l100 573q8 55 63 56h222q59 0 49 -56l-174 -977q-8 -57 -62 -57h-39q-129 -59 -129 -145q0 -51 80 -52q21 0 41 4t27 5q25 2 26 -23l7 -72q2 -29 -27 -41q-66 -36 -154 -36
t-145 36t-57 101q0 143 196 223h-26q-49 0 -54 45l2 94q-43 -69 -127 -115t-200 -47q-328 0 -328 291q0 53 12 121l115 645q10 55 63 56h222z" />
    <glyph glyph-name="Wcircumflex" unicode="&#x174;" horiz-adv-x="2123" 
d="M1055 1550h-107q-26 0 -30 18t16 36l223 202q37 35 80 35h127q47 0 74 -35l151 -202q12 -16 3 -34t-33 -20h-101q-24 0 -59 27l-119 109l-158 -109q-45 -27 -67 -27zM1122 1446h207q66 0 70 -53l47 -611l20 -356h7l139 354l256 611q20 55 78 55h243q66 0 37 -72
l-596 -1319q-29 -55 -82 -55h-254q-61 0 -65 55l-62 584l-20 295h-8l-123 -295l-266 -584q-25 -55 -80 -55h-256q-59 0 -66 55l-131 1319q-4 72 53 72h236q61 0 67 -55l41 -611l15 -354h6l143 356l264 611q23 53 80 53z" />
    <glyph glyph-name="wcircumflex" unicode="&#x175;" horiz-adv-x="1773" 
d="M823 1214h-106q-25 0 -30 18t13 36l222 205q35 35 79 34h127q49 0 76 -34l148 -205q12 -16 3 -34t-34 -20h-98q-37 0 -60 27l-116 111l-158 -111q-33 -27 -66 -27zM907 1090h162q51 0 55 -48l58 -491l8 -215h6l80 215l205 487q20 51 73 52h236q29 0 38 -18t-5 -48
l-459 -969q-27 -55 -78 -55h-217q-61 0 -68 55l-53 426l-16 226h-8l-95 -226l-202 -426q-27 -55 -82 -55h-217q-53 0 -64 55l-119 969q-6 66 54 66h223q57 0 59 -52l35 -487l2 -215h6l86 215l230 491q22 48 67 48z" />
    <glyph glyph-name="Ycircumflex" unicode="&#x176;" horiz-adv-x="1384" 
d="M686 1550h-106q-27 0 -31 18t16 36l223 202q37 35 80 35h127q47 0 74 -35l152 -202q12 -16 3 -34t-34 -20h-100q-25 0 -60 27l-119 109l-157 -109q-45 -27 -68 -27zM727 0h-231q-63 0 -52 59l84 473l-321 840q-10 26 5 50t46 24h240q57 0 73 -55l125 -390l52 -192h4
l116 192l267 390q31 55 84 55h245q31 0 40 -24t-9 -50l-614 -840l-84 -473q-12 -59 -70 -59z" />
    <glyph glyph-name="ycircumflex" unicode="&#x177;" horiz-adv-x="1146" 
d="M512 1214h-106q-25 0 -30 18t13 36l221 205q35 35 80 34h127q49 0 76 -34l147 -205q12 -16 3 -34t-33 -20h-99q-36 0 -59 27l-117 111l-157 -111q-33 -27 -66 -27zM266 -242q-146 0 -217 23q-51 14 -43 57l35 135q10 47 57 47q6 0 46 -6t92 -6t82 33q28 33 16 88
l-197 895q-14 66 49 66h224q55 0 61 -52l64 -446l28 -287h6l115 287l188 446q20 51 74 52h230q30 0 40 -18t-4 -48l-462 -922q-66 -136 -117 -202t-136 -104t-231 -38z" />
    <glyph glyph-name="Ydieresis" unicode="&#x178;" horiz-adv-x="1384" 
d="M1014 1550q-55 0 -47 56l20 120q12 57 64 58h176q61 -1 49 -58l-21 -120q-12 -55 -65 -56h-176zM580 1550q-59 0 -48 56l21 120q12 57 63 58h175q63 -1 51 -58l-23 -120q-8 -55 -65 -56h-174zM727 0h-231q-63 0 -52 59l84 473l-321 840q-10 26 5 50t46 24h240
q57 0 73 -55l125 -390l52 -192h4l116 192l267 390q31 55 84 55h245q31 0 40 -24t-9 -50l-614 -840l-84 -473q-12 -59 -70 -59z" />
    <glyph glyph-name="Zacute" unicode="&#x179;" horiz-adv-x="1269" 
d="M891 1815h242q29 0 31 -23t-19 -39l-207 -174q-35 -29 -78 -29h-125q-23 0 -29 14t3 31l112 179q25 41 70 41zM293 1133q-61 0 -49 61l35 192q8 59 65 60h916q63 0 51 -60l-31 -184q-10 -45 -55 -94l-740 -795h590q63 0 51 -59l-32 -195q-12 -59 -68 -59h-948
q-63 0 -51 59l30 185q10 49 56 94l741 795h-561z" />
    <glyph glyph-name="zacute" unicode="&#x17a;" horiz-adv-x="1083" 
d="M723 1477h242q29 0 31 -22t-17 -38l-207 -174q-31 -29 -74 -29h-123q-25 0 -31 14t3 32l112 178q23 39 64 39zM905 264q59 0 47 -55l-28 -152q-8 -57 -62 -57h-803q-59 0 -51 57l21 117q10 41 39 70l591 581h-440q-57 0 -49 56l29 153q10 55 63 56h780q60 -1 50 -56
l-23 -116q-8 -47 -45 -80l-582 -574h463z" />
    <glyph glyph-name="Zdotaccent" unicode="&#x17b;" horiz-adv-x="1269" 
d="M719 1546q-55 0 -47 58l26 147q8 55 64 55h211q57 0 49 -55l-27 -147q-8 -57 -63 -58h-213zM293 1133q-61 0 -49 61l35 192q8 59 65 60h916q63 0 51 -60l-31 -184q-10 -45 -55 -94l-740 -795h590q63 0 51 -59l-32 -195q-12 -59 -68 -59h-948q-63 0 -51 59l30 185
q10 49 56 94l741 795h-561z" />
    <glyph glyph-name="zdotaccent" unicode="&#x17c;" horiz-adv-x="1083" 
d="M567 1210q-55 0 -47 56l25 141q12 57 65 57h211q57 0 49 -57l-26 -141q-8 -55 -64 -56h-213zM905 264q59 0 47 -55l-28 -152q-8 -57 -62 -57h-803q-59 0 -51 57l21 117q10 41 39 70l591 581h-440q-57 0 -49 56l29 153q10 55 63 56h780q60 -1 50 -56l-23 -116
q-8 -47 -45 -80l-582 -574h463z" />
    <glyph glyph-name="Zcaron" unicode="&#x17d;" horiz-adv-x="1269" 
d="M1067 1841h107q26 0 32 -18t-12 -35l-225 -205q-39 -33 -84 -33h-125q-47 0 -72 33l-151 205q-12 16 -3 34t33 19h99q37 0 59 -26l121 -109l155 106q45 29 66 29zM293 1133q-61 0 -49 61l35 192q8 59 65 60h916q63 0 51 -60l-31 -184q-10 -45 -55 -94l-740 -795h590
q63 0 51 -59l-32 -195q-12 -59 -68 -59h-948q-63 0 -51 59l30 185q10 49 56 94l741 795h-561z" />
    <glyph glyph-name="zcaron" unicode="&#x17e;" horiz-adv-x="1083" 
d="M1024 1507q25 0 31 -18t-13 -35l-223 -205q-35 -35 -82 -35h-125q-53 0 -73 35l-150 205q-14 16 -5 34t36 19h98q31 0 62 -26l116 -113l158 113q35 27 61 26h109zM905 264q59 0 47 -55l-28 -152q-8 -57 -62 -57h-803q-59 0 -51 57l21 117q10 41 39 70l591 581h-440
q-57 0 -49 56l29 153q10 55 63 56h780q60 -1 50 -56l-23 -116q-8 -47 -45 -80l-582 -574h463z" />
    <glyph glyph-name="longs" unicode="&#x17f;" horiz-adv-x="718" 
d="M362 0h-202q-59 0 -51 51l133 762h-90q-55 0 -48 55l23 133q12 57 63 58h95l14 78q31 174 123 251t268 76q117 0 171 -16t46 -59l-22 -121q-10 -59 -58 -56q-61 8 -103 8q-93 1 -112 -108l-186 -1061q-8 -51 -64 -51z" />
    <glyph glyph-name="florin" unicode="&#x192;" horiz-adv-x="1325" 
d="M1126 813q43 0 31 -45l-20 -72q-14 -41 -56 -41h-241l-176 -573q-52 -172 -142 -249t-256 -77q-113 0 -174 21q-49 12 -35 57l45 139q14 47 62 47l67 -8q78 0 111 103l164 540h-170q-45 0 -33 43l25 74q10 41 51 41h176l96 322q53 176 159 254q106 77 296 77
q191 0 215 -39q8 -12 0 -38l-37 -117q-18 -57 -65 -58l-84 11q-121 0 -158 -121l-88 -291h237z" />
    <glyph glyph-name="Aringacute" unicode="&#x1fa;" horiz-adv-x="1419" 
d="M1012 1559q0 47 -28 71t-75 25q-47 0 -85 -33t-38 -79q0 -47 26 -71t65 -26h8q51 0 89 33t38 80zM559 569h342l-72 531h-4zM647 1532q0 72 50 138t132 93l86 138q25 41 70 41h242q29 0 31 -23t-19 -39l-170 -143q82 -57 82 -155t-68 -173l7 -18l221 -1321q3 -30 -11 -50
t-45 -20h-237q-59 0 -66 55l-34 221h-476l-112 -221q-27 -55 -78 -55h-250q-31 0 -41 19t6 51l688 1321q12 25 19 30q-27 39 -27 111z" />
    <glyph glyph-name="aringacute" unicode="&#x1fb;" horiz-adv-x="1200" 
d="M655 1416q0 -46 28 -70t75 -23q47 0 84 32t37 78q0 47 -27 71t-74 24t-85 -33t-38 -79zM354 303q0 -104 123 -104t189 56t82 148l16 86q-249 -13 -320 -50q-34 -17 -62 -52t-28 -84zM1016 1448q0 -106 -79 -176t-185 -70t-168 56q-64 56 -64 140q0 83 48 146t128 90
l92 144q23 39 64 39h242q30 0 32 -22t-18 -38l-178 -149q86 -55 86 -160zM948 0h-186q-49 0 -53 45l4 90q-129 -152 -357 -151q-154 0 -240 72t-87 196q0 195 125 284q45 32 91 55q128 66 550 77l6 39q16 77 -28 115t-171 38t-291 -57q-53 -20 -63 35l-19 127q-6 47 47 69
q197 80 416 80q442 0 443 -315q-1 -49 -9 -92l-116 -650q-8 -57 -62 -57z" />
    <glyph glyph-name="AEacute" unicode="&#x1fc;" horiz-adv-x="1847" 
d="M1190 1815h242q28 0 30 -23t-18 -39l-207 -174q-35 -29 -78 -29h-125q-24 0 -30 14t4 31l112 179q25 41 70 41zM573 561h299l105 590h-51zM1692 594h-467l-54 -297h500q61 0 53 -59l-30 -179q-12 -59 -70 -59h-788q-63 0 -52 59l37 211h-381l-131 -215q-27 -55 -80 -55
h-252q-31 0 -41 20t7 50l796 1321q31 55 82 55h1043q57 0 49 -60l-29 -178q-8 -59 -67 -59h-494l-49 -272h463q61 0 51 -60l-31 -164q-10 -59 -65 -59z" />
    <glyph glyph-name="aeacute" unicode="&#x1fd;" horiz-adv-x="1859" 
d="M1085 1477h242q29 0 32 -22t-18 -38l-206 -174q-31 -29 -74 -29h-123q-25 0 -32 14t3 32l113 178q23 39 63 39zM489 201q113 1 179 61t82 154l10 49q-211 -4 -271 -19q-133 -37 -135 -145q0 -100 135 -100zM1524 721q0 158 -162 158q-199 0 -260 -244h411q11 31 11 86z
M599 860q-126 0 -290 -57q-57 -20 -63 35l-21 127q-6 47 47 69q213 80 408 80q281 0 332 -162q64 76 166 119t219 43q195 0 307 -106t113 -291q0 -63 -11 -113l-18 -104q-12 -55 -68 -56h-637v-28q3 -94 65 -150t184 -55q122 0 261 61q55 23 66 -34l18 -111q8 -43 -47 -70
q-168 -82 -345 -82q-177 1 -278 57t-128 146q-174 -195 -465 -194q-188 0 -287 70q-98 71 -98 200q0 184 116 268t265 101t344 22h37l12 74q12 69 -33 105t-171 36z" />
    <glyph glyph-name="Oslashacute" unicode="&#x1fe;" horiz-adv-x="1478" 
d="M1006 1815h241q29 0 31 -23t-18 -39l-207 -174q-35 -29 -78 -29h-125q-23 0 -30 14t3 31l113 179q25 41 70 41zM702 281q293 0 371 442q18 98 19 172v25l-566 -574q57 -65 176 -65zM469 551v-29l565 576q-57 70 -176 69q-293 0 -371 -444q-18 -98 -18 -172zM893 1470
q240 0 383 -112l72 74q41 45 79 12l60 -49q39 -33 -4 -80l-94 -96q61 -117 61 -289q0 -104 -20 -209q-131 -743 -762 -744q-242 0 -381 109l-74 -74q-39 -43 -80 -10l-57 51q-41 31 4 76l92 96q-61 123 -61 291q0 98 18 209q135 745 764 745z" />
    <glyph glyph-name="oslashacute" unicode="&#x1ff;" horiz-adv-x="1261" 
d="M590 236q207 0 264 309q10 66 12 112l-403 -374q41 -47 127 -47zM698 856q-207 0 -264 -311q-12 -66 -12 -113l401 375q-43 49 -125 49zM815 1477h242q29 0 32 -22t-18 -38l-207 -174q-31 -29 -73 -29h-123q-25 0 -32 14t3 32l113 178q23 39 63 39zM563 -23
q-197 0 -321 89l-66 -60q-45 -41 -78 -6l-41 41q-33 35 9 74l71 65q-55 100 -55 234q0 61 12 135q49 279 213 422t418 143q199 0 324 -90l67 63q43 41 74 5l39 -41q31 -31 -6 -74l-72 -68q55 -100 55 -231q0 -61 -12 -135q-49 -279 -213 -423t-418 -143z" />
    <glyph glyph-name="Scommaaccent" unicode="&#x218;" horiz-adv-x="1210" 
d="M358 -612q-41 0 -22 41l88 194h-59q-51 0 -46 51l33 179q6 49 60 49h190q57 0 47 -49l-28 -158q-5 -25 -25 -68l-137 -207q-23 -33 -51 -32h-50zM1137 475q0 -244 -176 -370t-447 -125q-145 0 -273 26t-196 64q-47 25 -22 73l86 156q31 55 81 35q131 -62 272 -62
q318 -1 318 156q0 53 -55 90t-197 90q-142 54 -237 142q-96 88 -96 241q0 242 163 360q164 117 434 117t416 -82q45 -27 21 -73l-82 -148q-31 -57 -84 -35q-117 43 -268 44q-244 0 -244 -142q0 -53 49 -86q50 -33 152 -76q102 -44 155 -72q154 -83 201 -182q29 -61 29 -141z
" />
    <glyph glyph-name="scommaaccent" unicode="&#x219;" horiz-adv-x="995" 
d="M309 -588h-49q-35 0 -20 41l82 187h-58q-47 0 -41 47l31 168q6 47 59 47h179q53 0 43 -47l-27 -148q-5 -34 -25 -63l-127 -201q-23 -31 -47 -31zM903 340q0 -193 -140 -278q-141 -85 -365 -85t-369 60q-47 20 -27 67l57 119q23 53 76 35q113 -39 230 -39q209 0 208 105
q-1 38 -39 64t-148 64t-187 103q-78 66 -78 188q0 193 132 282t351 89t340 -55q47 -20 25 -70l-54 -115q-25 -51 -75 -36q-94 35 -213 34q-174 0 -174 -98q0 -40 41 -66q42 -26 154 -72t184 -114t71 -182z" />
    <glyph glyph-name="uni021A" unicode="&#x21a;" horiz-adv-x="1179" 
d="M336 -612q-41 0 -23 41l88 194h-59q-51 0 -45 51l33 179q6 49 59 49h191q57 0 47 -49l-29 -158q-5 -25 -25 -68l-137 -207q-23 -33 -51 -32h-49zM1237 1446q63 0 51 -60l-33 -192q-12 -61 -69 -61h-305l-189 -1074q-12 -59 -67 -59h-232q-63 0 -51 59l188 1074h-301
q-61 0 -51 61l35 192q8 59 66 60h958z" />
    <glyph glyph-name="uni021B" unicode="&#x21b;" horiz-adv-x="808" 
d="M248 -588h-49q-35 0 -21 41l82 187h-57q-47 0 -41 47l31 168q6 47 59 47h178q53 0 43 -47l-27 -148q-4 -34 -24 -63l-127 -201q-20 -31 -47 -31zM457 -18q-162 0 -242 57t-80 190q0 51 12 113l82 471h-92q-59 0 -47 55l23 133q12 57 63 58h100l43 248q12 49 66 49h205
q59 0 51 -49l-43 -248h199q61 0 49 -58l-23 -133q-12 -55 -65 -55h-201l-80 -448q-13 -74 9 -102t94 -27l82 10q47 0 40 -51l-18 -136q-4 -41 -61 -57q-82 -20 -166 -20z" />
    <glyph glyph-name="dotlessj" unicode="&#x237;" horiz-adv-x="632" 
d="M555 1090q55 0 47 -56l-168 -950q-28 -174 -110 -250t-248 -76q-113 0 -174 17q-49 12 -41 59l26 139q6 47 56 47q61 -6 85 -6t48 24q22 24 30 79l162 917q12 55 64 56h223z" />
    <glyph glyph-name="circumflex" unicode="&#x2c6;" horiz-adv-x="747" 
d="M311 1214h-106q-25 0 -30 18t13 36l222 205q35 35 79 34h127q49 0 76 -34l148 -205q12 -16 3 -34t-34 -20h-98q-37 0 -60 27l-116 111l-158 -111q-33 -27 -66 -27z" />
    <glyph glyph-name="caron" unicode="&#x2c7;" horiz-adv-x="747" 
d="M856 1507q25 0 31 -18t-13 -35l-223 -205q-35 -35 -82 -35h-125q-53 0 -73 35l-150 205q-14 16 -5 34t36 19h98q31 0 62 -26l116 -113l158 113q35 27 62 26h108z" />
    <glyph glyph-name="uni02C9" unicode="&#x2c9;" horiz-adv-x="747" 
d="M819 1225h-624q-53 0 -45 53l14 80q8 53 61 53h625q53 0 45 -53l-12 -80q-11 -53 -64 -53z" />
    <glyph glyph-name="breve" unicode="&#x2d8;" horiz-adv-x="747" 
d="M519 1204q-167 0 -245 80t-57 191q6 43 47 43h84q45 0 45 -41q4 -113 138 -113t178 113q16 41 55 41h84q45 0 37 -43q-19 -117 -109 -194t-257 -77z" />
    <glyph glyph-name="dotaccent" unicode="&#x2d9;" horiz-adv-x="747" 
d="M399 1210q-55 0 -47 56l25 141q12 57 65 57h211q57 0 49 -57l-26 -141q-8 -55 -64 -56h-213z" />
    <glyph glyph-name="ring" unicode="&#x2da;" horiz-adv-x="747" 
d="M295 1411q-1 97 77 167t184 71q106 -1 170 -57q65 -56 65 -152t-79 -168q-78 -70 -184 -70t-170 56q-63 56 -63 153zM430 1416q0 -93 102 -93q47 0 84 32t37 78q-1 47 -27 71t-73 24t-85 -33t-38 -79z" />
    <glyph glyph-name="ogonek" unicode="&#x2db;" horiz-adv-x="747" 
d="M242 -145q0 -51 80 -52q20 0 40 4t27 5q25 2 27 -23l6 -72q2 -29 -27 -41q-65 -36 -153 -36t-146 36q-57 37 -57 101q0 91 81 155t187 91l107 -5q-172 -68 -172 -163z" />
    <glyph glyph-name="tilde" unicode="&#x2dc;" horiz-adv-x="747" 
d="M711 1210q-80 0 -164 33l-82 31q-121 51 -143 -8l-7 -15q-14 -35 -57 -34h-72q-26 0 -36 13q-10 12 0 74t62 111t129 49t165 -32l82 -33q68 -23 102 -23t47 49q14 35 60 35h71q51 0 37 -74q-29 -176 -194 -176z" />
    <glyph glyph-name="hungarumlaut" unicode="&#x2dd;" horiz-adv-x="747" 
d="M778 1477h211q27 0 31 -22t-14 -38l-181 -174q-29 -29 -73 -29h-109q-25 0 -33 14t2 32l103 178q18 39 63 39zM383 1477h211q27 0 31 -22t-17 -38l-178 -174q-27 -29 -74 -29h-108q-25 0 -34 14t1 32l104 178q20 39 64 39z" />
    <glyph glyph-name="uni037E" unicode="&#x37e;" horiz-adv-x="532" 
d="M410 713q66 0 53 -56l-39 -217q-8 -57 -62 -57h-221q-57 0 -49 57l39 217q12 55 70 56h209z" />
    <glyph glyph-name="uni0394" unicode="&#x394;" horiz-adv-x="1421" 
d="M825 1155l-397 -885h494l-88 885h-9zM721 1446h313q49 0 56 -43l172 -1335q8 -68 -58 -68h-1149q-33 0 -43 20t4 48l639 1335q21 43 66 43z" />
    <glyph glyph-name="uni03A9" unicode="&#x3a9;" horiz-adv-x="1648" 
d="M946 1470q326 0 500 -143t174 -365t-124 -388q-124 -167 -333 -269l-10 -63l229 26q34 4 48 -9t10 -40l-29 -166q-10 -53 -65 -53h-512l51 299q6 35 45 57q152 76 244 219t92 299q0 306 -316 306q-202 0 -328 -146t-126 -358q0 -211 184 -320q27 -18 25 -57l-52 -299
h-510q-59 0 -53 53l31 166q10 55 76 49l221 -26l10 63q-116 59 -190 174t-74 271q0 322 228 521t554 199z" />
    <glyph glyph-name="uni03BC" unicode="&#x3bc;" horiz-adv-x="1251" 
d="M276 -225h-221q-55 0 -47 57l213 1202q8 55 64 56h221q59 0 49 -56l-102 -575q-16 -96 24 -153q41 -56 130 -56t131 46t59 138l106 600q10 55 64 56h221q57 -1 49 -56l-117 -663q-35 -205 -134 -300t-286 -96q-120 -1 -200 47t-109 115l-49 -309q-12 -53 -66 -53z" />
    <glyph glyph-name="pi" unicode="&#x3c0;" horiz-adv-x="1525" 
d="M844 229q0 41 10 107l84 479h-248l-287 -764q-18 -51 -71 -51h-207q-65 0 -45 51l291 764h-174q-59 0 -50 57l31 162q10 55 64 56h1251q59 0 49 -56l-29 -162q-10 -57 -65 -57h-193l-79 -453q-12 -74 8 -102t86 -27l80 7q24 2 34 -12t9 -40l-23 -131q-13 -75 -223 -75
q-155 0 -229 59t-74 188z" />
    <glyph glyph-name="Wgrave" unicode="&#x1e80;" horiz-adv-x="2123" 
d="M1192 1550q-43 0 -70 29l-147 174q-14 16 -7 39t33 23h242q50 0 60 -41l53 -179q4 -18 -7 -31t-36 -14h-121zM1122 1446h207q66 0 70 -53l47 -611l20 -356h7l139 354l256 611q20 55 78 55h243q66 0 37 -72l-596 -1319q-29 -55 -82 -55h-254q-61 0 -65 55l-62 584l-20 295
h-8l-123 -295l-266 -584q-25 -55 -80 -55h-256q-59 0 -66 55l-131 1319q-4 72 53 72h236q61 0 67 -55l41 -611l15 -354h6l143 356l264 611q23 53 80 53z" />
    <glyph glyph-name="wgrave" unicode="&#x1e81;" horiz-adv-x="1773" 
d="M973 1214q-43 0 -70 29l-155 174q-14 16 -7 38q8 22 35 22h232q47 0 59 -39l57 -178q10 -45 -41 -46h-110zM907 1090h162q51 0 55 -48l58 -491l8 -215h6l80 215l205 487q20 51 73 52h236q29 0 38 -18t-5 -48l-459 -969q-27 -55 -78 -55h-217q-61 0 -68 55l-53 426
l-16 226h-8l-95 -226l-202 -426q-27 -55 -82 -55h-217q-53 0 -64 55l-119 969q-6 66 54 66h223q57 0 59 -52l35 -487l2 -215h6l86 215l230 491q22 48 67 48z" />
    <glyph glyph-name="Wacute" unicode="&#x1e82;" horiz-adv-x="2123" 
d="M1350 1815h241q29 0 31 -23t-18 -39l-207 -174q-35 -29 -78 -29h-125q-23 0 -30 14t3 31l113 179q25 41 70 41zM1122 1446h207q66 0 70 -53l47 -611l20 -356h7l139 354l256 611q20 55 78 55h243q66 0 37 -72l-596 -1319q-29 -55 -82 -55h-254q-61 0 -65 55l-62 584
l-20 295h-8l-123 -295l-266 -584q-25 -55 -80 -55h-256q-59 0 -66 55l-131 1319q-4 72 53 72h236q61 0 67 -55l41 -611l15 -354h6l143 356l264 611q23 53 80 53z" />
    <glyph glyph-name="wacute" unicode="&#x1e83;" horiz-adv-x="1773" 
d="M1102 1477h241q29 0 32 -22t-17 -38l-207 -174q-31 -29 -74 -29h-123q-26 0 -32 14t4 32l112 178q23 39 64 39zM907 1090h162q51 0 55 -48l58 -491l8 -215h6l80 215l205 487q20 51 73 52h236q29 0 38 -18t-5 -48l-459 -969q-27 -55 -78 -55h-217q-61 0 -68 55l-53 426
l-16 226h-8l-95 -226l-202 -426q-27 -55 -82 -55h-217q-53 0 -64 55l-119 969q-6 66 54 66h223q57 0 59 -52l35 -487l2 -215h6l86 215l230 491q22 48 67 48z" />
    <glyph glyph-name="Wdieresis" unicode="&#x1e84;" horiz-adv-x="2123" 
d="M1382 1550q-55 0 -47 56l21 120q12 57 63 58h176q62 -1 50 -58l-21 -120q-12 -55 -65 -56h-177zM948 1550q-59 0 -47 56l21 120q12 57 63 58h174q63 -1 51 -58l-22 -120q-8 -55 -66 -56h-174zM1122 1446h207q66 0 70 -53l47 -611l20 -356h7l139 354l256 611q20 55 78 55
h243q66 0 37 -72l-596 -1319q-29 -55 -82 -55h-254q-61 0 -65 55l-62 584l-20 295h-8l-123 -295l-266 -584q-25 -55 -80 -55h-256q-59 0 -66 55l-131 1319q-4 72 53 72h236q61 0 67 -55l41 -611l15 -354h6l143 356l264 611q23 53 80 53z" />
    <glyph glyph-name="wdieresis" unicode="&#x1e85;" horiz-adv-x="1773" 
d="M1147 1214q-55 0 -47 56l20 125q12 55 66 55h170q59 0 47 -55l-21 -125q-8 -55 -65 -56h-170zM721 1214q-57 0 -49 56l22 125q8 55 64 55h170q57 0 49 -55l-23 -125q-8 -55 -63 -56h-170zM907 1090h162q51 0 55 -48l58 -491l8 -215h6l80 215l205 487q20 51 73 52h236
q29 0 38 -18t-5 -48l-459 -969q-27 -55 -78 -55h-217q-61 0 -68 55l-53 426l-16 226h-8l-95 -226l-202 -426q-27 -55 -82 -55h-217q-53 0 -64 55l-119 969q-6 66 54 66h223q57 0 59 -52l35 -487l2 -215h6l86 215l230 491q22 48 67 48z" />
    <glyph glyph-name="Ygrave" unicode="&#x1ef2;" horiz-adv-x="1384" 
d="M827 1550q-43 0 -69 29l-148 174q-14 16 -7 39t34 23h242q49 0 59 -41l53 -179q4 -18 -7 -31t-36 -14h-121zM727 0h-231q-63 0 -52 59l84 473l-321 840q-10 26 5 50t46 24h240q57 0 73 -55l125 -390l52 -192h4l116 192l267 390q31 55 84 55h245q31 0 40 -24t-9 -50
l-614 -840l-84 -473q-12 -59 -70 -59z" />
    <glyph glyph-name="ygrave" unicode="&#x1ef3;" horiz-adv-x="1146" 
d="M657 1214q-43 0 -69 29l-156 174q-14 16 -6 38t35 22h231q48 0 60 -39l57 -178q10 -45 -41 -46h-111zM266 -242q-146 0 -217 23q-51 14 -43 57l35 135q10 47 57 47q6 0 46 -6t92 -6t82 33q28 33 16 88l-197 895q-14 66 49 66h224q55 0 61 -52l64 -446l28 -287h6l115 287
l188 446q20 51 74 52h230q30 0 40 -18t-4 -48l-462 -922q-66 -136 -117 -202t-136 -104t-231 -38z" />
    <glyph glyph-name="figuredash" unicode="&#x2012;" horiz-adv-x="1241" 
d="M1075 467h-909q-49 0 -41 47l25 135q6 47 53 47h907q55 0 43 -49l-23 -133q-6 -47 -55 -47z" />
    <glyph glyph-name="endash" unicode="&#x2013;" horiz-adv-x="1118" 
d="M975 438h-842q-55 0 -47 56l29 153q8 55 61 55h842q57 0 49 -55l-27 -153q-12 -56 -65 -56z" />
    <glyph glyph-name="emdash" unicode="&#x2014;" horiz-adv-x="1599" 
d="M1456 438h-1323q-55 0 -47 56l29 153q8 55 61 55h1323q61 0 49 -55l-26 -153q-11 -56 -66 -56z" />
    <glyph glyph-name="quoteleft" unicode="&#x2018;" horiz-adv-x="524" 
d="M455 1454h67q20 0 26 -14t-1 -31l-115 -209h70q57 0 49 -57l-35 -199q-12 -55 -70 -55h-204q-63 0 -52 55l31 186q9 39 29 72l151 223q23 29 54 29z" />
    <glyph glyph-name="quoteright" unicode="&#x2019;" horiz-adv-x="524" 
d="M248 879q-20 0 -27 15q-6 15 6 32l113 209h-72q-59 0 -47 57l35 199q10 55 68 55h204q61 0 56 -55l-33 -187q-8 -44 -31 -71l-151 -224q-20 -31 -54 -30h-67z" />
    <glyph glyph-name="quotesinglbase" unicode="&#x201a;" horiz-adv-x="524" 
d="M117 -256h-68q-20 0 -26 15t6 32l112 209h-71q-59 0 -47 57l34 199q8 55 68 55h205q61 0 55 -55l-33 -186q-7 -45 -30 -72l-152 -223q-20 -31 -53 -31z" />
    <glyph glyph-name="quotedblleft" unicode="&#x201c;" horiz-adv-x="970" 
d="M455 1454h67q20 0 26 -14t-1 -31l-115 -209h70q57 0 49 -57l-35 -199q-12 -55 -70 -55h-204q-63 0 -52 55l31 186q9 39 29 72l151 223q23 29 54 29zM899 1454h70q18 0 24 -14t-2 -31l-114 -209h69q57 0 49 -57l-34 -199q-10 -55 -70 -55h-205q-63 0 -51 55l33 186
q3 37 26 72l154 223q23 29 51 29z" />
    <glyph glyph-name="quotedblright" unicode="&#x201d;" horiz-adv-x="970" 
d="M692 879q-20 0 -25 15t5 32l112 209h-71q-57 0 -47 55l36 201q6 55 66 55h207q61 0 53 -55l-33 -187q-8 -42 -28 -71l-154 -224q-20 -31 -53 -30h-68zM248 879q-20 0 -27 15q-6 15 6 32l113 209h-72q-59 0 -47 55l35 201q10 55 68 55h204q61 0 56 -55l-33 -187
q-8 -44 -31 -71l-151 -224q-25 -31 -54 -30h-67z" />
    <glyph glyph-name="quotedblbase" unicode="&#x201e;" horiz-adv-x="970" 
d="M561 -256h-67q-20 0 -26 15q-5 15 5 32l113 209h-72q-55 0 -47 55l37 201q6 55 65 55h207q63 0 53 -55l-32 -186q-9 -43 -29 -72l-154 -223q-20 -31 -53 -31zM117 -256h-68q-20 0 -26 15t6 32l112 209h-71q-59 0 -47 55l34 201q8 55 68 55h205q61 0 55 -55l-33 -186
q-7 -45 -30 -72l-152 -223q-25 -31 -53 -31z" />
    <glyph glyph-name="dagger" unicode="&#x2020;" horiz-adv-x="1132" 
d="M555 -225h-221q-55 0 -47 57l176 995h-277q-57 0 -49 58l29 162q12 57 63 57h281l51 287q8 55 64 55h221q59 0 49 -55l-51 -287h274q61 0 49 -57l-28 -162q-8 -57 -64 -58h-278l-176 -995q-12 -57 -66 -57z" />
    <glyph glyph-name="daggerdbl" unicode="&#x2021;" horiz-adv-x="1134" 
d="M950 119h-278l-51 -287q-8 -57 -66 -57h-219q-57 0 -49 57l51 287h-277q-55 0 -47 55l29 164q10 55 63 55h281l76 434h-277q-59 0 -47 58l29 162q12 57 63 57h281l51 287q10 55 64 55h219q61 0 49 -55l-49 -287h274q61 0 49 -57l-28 -162q-12 -57 -64 -58h-280l-76 -434
h274q57 0 49 -55l-28 -164q-12 -55 -66 -55z" />
    <glyph glyph-name="bullet" unicode="&#x2022;" horiz-adv-x="866" 
d="M399 252q-117 0 -191 73t-73 185q0 145 108 256t259 111q116 0 190 -74t74 -201q0 -126 -108 -238t-259 -112z" />
    <glyph glyph-name="onedotenleader" unicode="&#x2024;" horiz-adv-x="532" 
d="M344 330q66 0 53 -56l-39 -217q-8 -57 -61 -57h-221q-57 0 -49 57l39 217q12 55 69 56h209z" />
    <glyph glyph-name="twodotenleader" unicode="&#x2025;" horiz-adv-x="1062" 
d="M344 330q66 0 53 -56l-39 -217q-8 -57 -61 -57h-221q-57 0 -49 57l39 217q12 55 69 56h209zM874 330q66 0 54 -56l-39 -217q-8 -57 -62 -57h-221q-57 0 -49 57l39 217q12 55 70 56h208z" />
    <glyph glyph-name="ellipsis" unicode="&#x2026;" horiz-adv-x="1599" 
d="M1413 330q61 0 51 -56l-39 -217q-8 -57 -63 -57h-219q-57 0 -49 57l39 217q10 55 67 56h213zM879 330q63 0 53 -56l-39 -217q-12 -57 -64 -57h-219q-59 0 -51 57l41 217q10 55 68 56h211zM344 330q66 0 53 -56l-39 -217q-8 -57 -61 -57h-221q-57 0 -49 57l39 217
q12 55 69 56h209z" />
    <glyph glyph-name="perthousand" unicode="&#x2030;" horiz-adv-x="2879" 
d="M2449 649q-123 0 -165 -231q-10 -72 -11 -107q0 -127 94 -127q125 1 164 234q12 61 13 104q0 127 -95 127zM2456 850q162 0 250 -89t87 -245q0 -55 -8 -104q-37 -207 -149 -317q-112 -109 -273 -109q-163 0 -251 89t-89 244q1 54 9 103q38 208 150 318t274 110zM1675 522
q0 127 -96 127q-123 0 -164 -231q-12 -63 -12 -107q0 -127 96 -127q123 1 164 234q12 61 12 104zM1586 850q160 0 250 -89q89 -89 89 -245q0 -43 -10 -104q-35 -207 -147 -317q-112 -109 -274 -109t-250 89q-89 89 -89 244q0 54 8 103q35 208 149 318t274 110zM682 1135
q0 127 -94 127q-125 0 -166 -234q-12 -61 -12 -104q0 -127 96 -127q125 0 164 231q12 59 12 107zM932 1128q0 -55 -8 -104q-37 -208 -149 -318t-274 -110q-163 0 -251 89t-88 247q0 53 8 102q37 205 151 317q113 111 273 111t249 -89t89 -245zM561 0h-135q-66 0 -23 57
l1031 1336q41 53 88 53h135q61 0 22 -55l-1030 -1336q-43 -55 -88 -55z" />
    <glyph glyph-name="guilsinglleft" unicode="&#x2039;" horiz-adv-x="622" 
d="M387 946h186q29 0 36 -17t-11 -40l-227 -295l123 -295q10 -23 -2 -40t-39 -17h-187q-47 0 -61 39l-119 286q-4 13 -4 25q6 18 14 29l217 286q33 39 74 39z" />
    <glyph glyph-name="guilsinglright" unicode="&#x203a;" horiz-adv-x="622" 
d="M276 242h-186q-29 0 -35 16t13 41l227 295l-123 295q-10 25 1 41t38 16h186q51 0 64 -39l119 -286q10 -30 -9 -52l-219 -288q-31 -39 -76 -39z" />
    <glyph glyph-name="exclamdbl" unicode="&#x203c;" horiz-adv-x="1298" 
d="M1044 459h-153q-57 0 -51 53l94 874q6 59 65 60h279q63 0 51 -60l-217 -874q-13 -53 -68 -53zM1055 332q63 0 53 -56l-39 -219q-8 -57 -63 -57h-234q-57 0 -49 57l39 219q8 55 67 56h226zM403 459h-153q-57 0 -51 53l94 874q6 59 65 60h279q63 0 51 -60l-217 -874
q-13 -53 -68 -53zM414 332q61 0 53 -56l-39 -219q-8 -57 -63 -57h-234q-57 0 -49 57l39 219q10 55 67 56h226z" />
    <glyph glyph-name="fraction" unicode="&#x2044;" horiz-adv-x="167" 
d="M-352 0h-135q-63 0 -21 57l1028 1336q41 53 88 53h135q66 0 23 -55l-1028 -1336q-43 -55 -90 -55z" />
    <glyph glyph-name="zero.superior" unicode="&#x2070;" 
d="M571 1198q139 0 183 248q10 53 10 110q0 137 -105 138q-139 0 -182 -248q-12 -63 -12 -113q0 -135 106 -135zM562 991q-169 0 -259 88t-90 250q0 49 10 117q39 221 157 338t288 117t260 -87t90 -251q0 -66 -10 -117q-39 -221 -158 -338t-288 -117z" />
    <glyph glyph-name="four.superior" unicode="&#x2074;" 
d="M922 1180h-74l-21 -121q-10 -55 -63 -55h-137q-55 0 -45 55l22 121h-383q-53 0 -47 47l19 98q2 27 28 53l492 482q33 29 63 28h142q57 0 45 -55l-80 -459h67q59 0 47 -53l-14 -88q-8 -53 -61 -53zM684 1636l-270 -262h223z" />
    <glyph glyph-name="five.superior" unicode="&#x2075;" 
d="M938 1337q0 -172 -114 -260t-308 -88q-196 0 -299 60q-25 12 -30 24t8 37l51 86q27 49 73 29q89 -41 183 -41q190 0 190 141q0 82 -114 82q-42 0 -90 -10q-48 -9 -70 -13t-51 7l-60 20q-35 14 -24 51q76 291 88 369q12 55 67 55h492q57 0 47 -53l-16 -88q-8 -55 -62 -55
h-348q-12 -76 -35 -144q70 20 127 21q155 -1 225 -63t70 -167z" />
    <glyph glyph-name="six.superior" unicode="&#x2076;" 
d="M594 1186q70 0 113 49t43 115q0 96 -111 96q-70 0 -115 -46t-45 -112q0 -102 115 -102zM748 1710q-190 0 -240 -176q86 68 208 68t192 -65t69 -175q0 -166 -115 -268q-114 -102 -282 -102t-256 92q-88 93 -88 241q0 31 8 92q41 229 162 357t327 127q147 0 225 -37
q39 -18 23 -56l-39 -88q-21 -44 -68 -30q-86 20 -126 20z" />
    <glyph glyph-name="seven.superior" unicode="&#x2077;" 
d="M512 1004h-143q-53 0 -47 51q27 133 144 308q118 175 267 329h-368q-55 0 -46 53l15 88q12 55 61 55h576q63 0 51 -53l-10 -68q-6 -31 -45 -73q-127 -138 -241 -316t-151 -319q-16 -55 -63 -55z" />
    <glyph glyph-name="eight.superior" unicode="&#x2078;" 
d="M762 1655q0 72 -98 71q-55 0 -91 -27q-35 -28 -35 -84t91 -91q133 47 133 131zM457 1257q0 -90 112 -90q61 0 102 31q40 31 40 86q-1 80 -105 111q-63 -17 -106 -55t-43 -83zM551 991q-160 -1 -251 63t-91 165q0 168 203 243q-51 20 -82 68t-31 114t35 120q59 91 216 123
q62 13 130 14q147 1 236 -59t90 -156q0 -156 -183 -224q129 -51 129 -186q0 -104 -66 -171t-150 -91q-85 -24 -185 -23z" />
    <glyph glyph-name="nine.superior" unicode="&#x2079;" 
d="M752 1592q0 114 -124 114q-64 0 -106 -47q-43 -47 -43 -103q0 -110 115 -110q70 0 114 45t44 101zM518 1290q-120 0 -192 68t-72 174q0 168 112 268t280 100t258 -94q91 -96 91 -239q0 -43 -10 -99q-84 -477 -477 -477q-156 0 -238 37q-39 18 -20 55l39 88q18 43 67 31
q72 -23 125 -22q190 0 240 178q-82 -68 -203 -68z" />
    <glyph glyph-name="parenleft.superior" unicode="&#x207d;" horiz-adv-x="518" 
d="M250 1362q0 122 73 277t189 243q29 25 59 25h115q25 1 29 -17t-10 -32q-99 -109 -153 -257q-54 -147 -54 -305t61 -262q8 -16 -1 -32t-36 -17h-112q-31 0 -52 25q-49 49 -78 140q-30 90 -30 212z" />
    <glyph glyph-name="parenright.superior" unicode="&#x207e;" horiz-adv-x="518" 
d="M610 1524q0 -122 -72 -274q-72 -153 -188 -240q-29 -25 -61 -25h-113q-25 0 -28 17t12 32q207 244 207 555q0 158 -66 269q-8 16 2 32t35 17h115q27 0 51 -25q46 -52 76 -144t30 -214z" />
    <glyph glyph-name="n.superior" unicode="&#x207f;" horiz-adv-x="1026" 
d="M397 1888h150q53 0 53 -43l-2 -63q96 119 274 119q260 0 261 -244q0 -51 -9 -94l-90 -506q-10 -53 -61 -53h-170q-55 0 -43 53l78 456q33 156 -101 156q-74 0 -122 -48t-60 -124l-78 -440q-12 -53 -61 -53h-170q-55 0 -43 53l135 778q8 53 59 53z" />
    <glyph glyph-name="zero.inferior" unicode="&#x2080;" 
d="M317 -248q139 0 183 248q10 53 10 111q0 137 -104 137q-139 0 -183 -248q-12 -66 -12 -113q0 -135 106 -135zM308 -455q-169 0 -259 88t-90 250q0 49 10 117q39 221 157 338t288 117t260 -87t90 -251q0 -66 -10 -117q-39 -221 -158 -338t-288 -117z" />
    <glyph glyph-name="one.inferior" unicode="&#x2081;" 
d="M430 442h137q57 0 47 -55l-137 -774q-10 -55 -61 -55h-140q-57 0 -45 55l101 573l-137 -67q-47 -23 -68 12l-39 82q-16 35 21 57l249 152q33 20 72 20z" />
    <glyph glyph-name="two.inferior" unicode="&#x2082;" 
d="M254 135q0 -53 -51 -53h-125q-47 0 -47 45q0 156 105 242q106 86 270 86t244 -68t81 -176q0 -233 -416 -457h303q57 0 48 -53l-15 -88q-10 -55 -63 -55h-606q-57 0 -45 55l14 80q6 29 47 51q258 143 356 233q123 111 123 209q0 74 -96 74q-61 0 -94 -36t-33 -89z" />
    <glyph glyph-name="three.inferior" unicode="&#x2083;" 
d="M317 -80h-106q-53 0 -45 53l12 68q10 53 60 53h104q53 0 90 27t37 74q-1 67 -109 67t-208 -39q-53 -20 -66 25l-18 90q-8 37 38 59q130 57 282 57t244 -54q92 -56 91 -144q0 -88 -43 -150t-111 -92q102 -49 103 -155q0 -158 -113 -236t-296 -78t-298 62q-45 23 -22 59
l49 88q29 49 76 29q94 -43 180 -43q174 0 174 115q-1 65 -105 65z" />
    <glyph glyph-name="four.inferior" unicode="&#x2084;" 
d="M668 -266h-74l-21 -121q-10 -55 -63 -55h-137q-55 0 -45 55l22 121h-383q-53 0 -47 47l19 98q2 27 28 53l492 482q33 29 63 28h142q57 0 45 -55l-80 -459h67q59 0 47 -53l-14 -88q-8 -53 -61 -53zM430 190l-270 -262h223z" />
    <glyph glyph-name="five.inferior" unicode="&#x2085;" 
d="M684 -109q0 -172 -114 -260t-308 -88q-196 0 -299 60q-25 12 -30 24t8 37l51 86q27 49 74 29q90 -41 183 -41q189 0 189 141q0 82 -114 82q-42 0 -90 -10t-70 -13t-51 7l-60 20q-35 14 -24 51q76 291 88 369q12 55 67 55h492q57 0 47 -53l-16 -88q-8 -55 -62 -55h-348
q-12 -76 -35 -144q70 20 127 21q155 -1 225 -63t70 -167z" />
    <glyph glyph-name="six.inferior" unicode="&#x2086;" 
d="M340 -260q70 0 113 49t43 115q0 96 -111 96q-70 0 -115 -46t-45 -112q0 -102 115 -102zM494 264q-190 0 -240 -176q86 68 208 68t192 -65t69 -175q0 -166 -115 -268q-114 -102 -282 -102t-256 92q-88 94 -88 241q0 31 8 92q41 229 162 357t327 127q147 0 226 -37
q39 -18 22 -56l-39 -88q-20 -44 -67 -30q-86 20 -127 20z" />
    <glyph glyph-name="seven.inferior" unicode="&#x2087;" 
d="M258 -442h-143q-53 0 -47 51q27 133 144 308q118 175 267 329h-368q-55 0 -45 53l14 88q12 55 61 55h576q63 0 51 -53l-10 -67q-6 -31 -45 -74q-127 -138 -241 -316t-150 -319q-16 -55 -64 -55z" />
    <glyph glyph-name="eight.inferior" unicode="&#x2088;" 
d="M508 209q0 72 -98 72q-54 0 -90 -28t-36 -84t91 -91q133 47 133 131zM203 -188q0 -90 112 -91q61 0 102 31q40 31 40 86q-1 80 -105 111q-63 -18 -106 -55q-43 -36 -43 -82zM297 -455q-160 -1 -251 63t-91 165q0 168 203 243q-51 20 -82 68t-31 114t35 120q59 91 216 123
q62 13 130 14q146 1 236 -59t90 -156q0 -156 -183 -224q129 -51 129 -186q0 -104 -66 -171t-150 -91q-85 -24 -185 -23z" />
    <glyph glyph-name="nine.inferior" unicode="&#x2089;" 
d="M498 154q0 106 -124 106q-64 0 -106 -47q-43 -47 -43 -103q0 -110 115 -110q70 0 114 45t44 109zM264 -156q-120 0 -192 68t-72 174q0 168 112 268t280 100t258 -94q91 -96 91 -239q0 -43 -10 -98q-84 -477 -477 -478q-156 0 -238 37q-39 18 -20 56l39 88q18 42 67 30
q72 -23 125 -22q190 0 240 178q-82 -68 -203 -68z" />
    <glyph glyph-name="parenleft.inferior" unicode="&#x208d;" horiz-adv-x="518" 
d="M-4 -82q0 122 73 276q73 155 189 242q29 25 59 25h115q25 1 29 -17t-10 -32q-99 -109 -153 -257q-54 -147 -54 -305t61 -262q8 -16 -1 -32t-36 -17h-112q-31 0 -52 25q-48 48 -78 140t-30 214z" />
    <glyph glyph-name="parenright.inferior" unicode="&#x208e;" horiz-adv-x="518" 
d="M356 78q0 -122 -72 -274q-72 -153 -188 -240q-29 -25 -61 -25h-113q-26 -1 -28 17t12 32q207 244 207 555q0 158 -66 269q-8 16 2 32t35 17h115q27 0 51 -25q46 -52 76 -144t30 -214z" />
    <glyph glyph-name="Euro" unicode="&#x20ac;" horiz-adv-x="1347" 
d="M111 659h104q11 88 23 127h-103q-41 0 -35 43l13 74q10 43 47 43h123q94 250 280 387q187 137 443 137t403 -102q45 -33 16 -76l-96 -149q-33 -53 -88 -29q-98 49 -217 49q-258 0 -375 -217h475q23 0 29 -14t-6 -35l-41 -72q-23 -39 -66 -39h-446q-20 -97 -21 -127h369
q23 0 30 -14t-7 -35l-43 -71q-20 -39 -64 -39h-285q15 -100 91 -158t204 -59q128 0 242 51q63 23 78 -31l41 -149q14 -41 -41 -76q-180 -100 -395 -101q-266 1 -425 141t-165 382h-117q-43 0 -37 43l12 73q9 43 50 43z" />
    <glyph glyph-name="afii61289" unicode="&#x2113;" horiz-adv-x="1013" 
d="M793 1257q-67 0 -99 -58t-61 -208l-41 -225q262 162 276 385q10 106 -75 106zM649 236q25 0 63 7t49 8t20 -10t10 -34v-131q1 -27 -13 -40t-43 -24q-78 -31 -205 -30q-334 0 -333 284q0 41 10 103l6 41q-86 -20 -123 -28t-39 19l-8 125q-2 33 25 39q94 20 182 51l61 336
q45 254 153 386t316 132q154 0 228 -84t63 -215q-25 -399 -520 -639l-25 -141q-14 -91 14 -123t109 -32z" />
    <glyph glyph-name="trademark" unicode="&#x2122;" horiz-adv-x="1597" 
d="M1192 924q-22 0 -31 24l-104 215l-64 -352q-6 -41 -49 -41h-113q-45 0 -38 41l104 592q8 43 47 43h119q35 0 49 -27l121 -254l211 254q20 27 49 27h129q45 0 37 -43l-105 -592q-6 -41 -49 -41h-114q-43 0 -37 41l61 352l-180 -215q-21 -24 -43 -24zM729 1274h-137
l-80 -463q-8 -41 -49 -41h-121q-45 0 -37 41l80 463h-135q-41 0 -35 43l16 86q10 43 45 43h480q45 0 39 -43l-17 -86q-6 -43 -49 -43z" />
    <glyph glyph-name="Omega" unicode="&#x2126;" horiz-adv-x="1648" 
d="M946 1470q326 0 500 -143t174 -365t-124 -388q-124 -167 -333 -269l-10 -63l229 26q34 4 48 -9t10 -40l-29 -166q-10 -53 -65 -53h-512l51 299q6 35 45 57q152 76 244 219t92 299q0 306 -316 306q-202 0 -328 -146t-126 -358q0 -211 184 -320q27 -18 25 -57l-52 -299
h-510q-59 0 -53 53l31 166q10 55 76 49l221 -26l10 63q-116 59 -190 174t-74 271q0 322 228 521t554 199z" />
    <glyph glyph-name="estimated" unicode="&#x212e;" horiz-adv-x="1753" 
d="M1378 748v380q0 49 -22 74q-190 186 -476 186t-479 -198q-18 -18 -18 -60v-382q0 -12 10 -13h975q10 1 10 13zM1679 686h-1286q-10 0 -10 -8v-379q0 -39 16 -59q170 -197 493 -197t515 223h119q-113 -133 -279 -209t-358 -75q-338 0 -573 215q-234 215 -234 520t230 519
t568 214t569 -214q230 -214 230 -521v-29z" />
    <glyph glyph-name="onethird" unicode="&#x2153;" horiz-adv-x="2045" 
d="M1425 360q-53 0 -45 54l13 67q10 53 59 54h104q53 0 91 26q37 27 36 74q0 67 -108 67t-209 -38q-53 -20 -66 24l-18 90q-8 37 39 60q129 57 281 57t244 -55q91 -55 91 -156q0 -76 -43 -137t-110 -92q102 -49 102 -156q0 -158 -112 -236q-112 -77 -296 -77t-298 61
q-45 23 -23 59l49 89q29 49 76 28q94 -43 180 -43q174 0 174 115q0 66 -104 65h-107zM520 0h-135q-63 0 -20 57l1028 1336q41 53 88 53h135q65 0 22 -55l-1028 -1336q-43 -55 -90 -55zM743 1446q57 0 48 -55l-138 -775q-10 -55 -61 -55h-139q-57 0 -45 55l100 574l-137 -68
q-47 -23 -68 13l-39 82q-16 35 21 57l250 151q33 20 71 21h137z" />
    <glyph glyph-name="twothirds" unicode="&#x2154;" horiz-adv-x="2045" 
d="M1532 360h-107q-53 0 -45 54l13 67q10 53 59 54h104q53 0 91 26q37 27 36 74q0 67 -108 67t-209 -38q-53 -20 -66 24l-18 90q-8 37 39 60q129 57 281 57t244 -55q91 -55 91 -156q0 -76 -43 -137t-110 -92q102 -49 102 -156q0 -158 -112 -236q-112 -77 -296 -77t-298 61
q-45 23 -23 59l49 89q29 49 76 28q94 -43 180 -43q174 0 174 115q0 65 -104 65zM602 0h-135q-63 0 -21 57l1029 1336q41 53 88 53h135q65 0 22 -55l-1028 -1336q-43 -55 -90 -55zM430 1139q0 -53 -51 -54h-125q-47 0 -47 45q0 156 105 242q106 86 270 86t244 -68t81 -176
q0 -233 -415 -456h303q57 0 47 -53l-15 -89q-10 -55 -63 -55h-606q-57 0 -45 55l14 80q6 29 47 52q258 142 368 244t111 198q0 74 -96 74q-61 0 -94 -36t-33 -89z" />
    <glyph glyph-name="oneeighth" unicode="&#x215b;" horiz-adv-x="2045" 
d="M1743 649q0 72 -98 72q-55 0 -91 -28t-34 -84q0 -56 90 -91q133 47 133 131zM1438 252q0 -92 112 -90q61 0 102 31q40 31 40 86q-1 79 -105 110q-63 -18 -106 -55t-43 -82zM1532 -14q-160 0 -251 63t-91 164q0 168 203 244q-51 20 -82 68t-31 114t35 120q59 91 216 123
q62 13 130 13q147 0 236 -59t90 -156q0 -156 -183 -223q129 -51 129 -187q1 -104 -65 -171t-151 -90t-185 -23zM547 0h-135q-63 0 -21 57l1028 1336q41 53 88 53h135q66 0 23 -55l-1028 -1336q-43 -55 -90 -55zM743 1446q57 0 48 -55l-138 -775q-10 -55 -61 -55h-139
q-57 0 -45 55l100 574l-137 -68q-47 -23 -68 13l-39 82q-16 35 21 57l250 151q33 20 71 21h137z" />
    <glyph glyph-name="threeeighths" unicode="&#x215c;" horiz-adv-x="2045" 
d="M1743 649q0 72 -98 72q-55 0 -91 -28t-34 -84q0 -56 90 -91q133 47 133 131zM1438 252q0 -92 112 -90q61 0 102 31q40 31 40 86q-1 79 -105 110q-63 -18 -106 -55t-43 -82zM1532 -14q-160 0 -251 63t-91 164q0 168 203 244q-51 20 -82 68t-31 114t35 120q59 91 216 123
q62 13 130 13q147 0 236 -59t90 -156q0 -156 -183 -223q129 -51 129 -187q1 -104 -65 -171t-151 -90t-185 -23zM573 0h-135q-63 0 -20 57l1028 1336q41 53 88 53h135q66 0 23 -55l-1028 -1336q-43 -55 -91 -55zM473 924h-106q-53 0 -45 53l12 67q10 53 59 54h105q53 0 90 26
t37 74q-1 68 -109 68t-209 -39q-53 -20 -65 24l-19 90q-8 37 39 60q130 57 282 57t243 -55t91 -143t-42 -150q-43 -61 -111 -92q102 -49 102 -156q-1 -158 -113 -236t-296 -77q-184 0 -297 61q-45 23 -23 60l49 88q29 49 76 28q94 -43 180 -43q175 0 175 115q-1 66 -105 66z
" />
    <glyph glyph-name="fiveeighths" unicode="&#x215d;" horiz-adv-x="2045" 
d="M1743 649q0 72 -98 72q-55 0 -91 -28t-34 -84q0 -56 90 -91q133 47 133 131zM1438 252q0 -92 112 -90q61 0 102 31q40 31 40 86q-1 79 -105 110q-63 -18 -106 -55t-43 -82zM1532 -14q-160 0 -251 63t-91 164q0 168 203 244q-51 20 -82 68t-31 114t35 120q59 91 216 123
q62 13 130 13q147 0 236 -59t90 -156q0 -156 -183 -223q129 -51 129 -187q1 -104 -65 -171t-151 -90t-185 -23zM575 0h-135q-63 0 -20 57l1028 1336q41 53 88 53h135q66 0 23 -55l-1028 -1336q-43 -55 -91 -55zM438 547q-196 0 -299 59q-25 12 -29 24t7 38l51 86
q27 49 74 28q90 -41 183 -41q189 0 189 142q0 82 -114 82q-41 -1 -89 -11t-71 -13t-51 7l-60 21q-35 14 -24 51q76 291 88 369q12 55 67 55h492q57 0 47 -53l-16 -88q-8 -55 -62 -56h-348q-12 -76 -35 -143q70 20 127 20q154 0 225 -62t70 -167q0 -172 -114 -260
q-112 -88 -308 -88z" />
    <glyph glyph-name="seveneighths" unicode="&#x215e;" horiz-adv-x="2045" 
d="M1743 649q0 72 -98 72q-55 0 -91 -28t-34 -84q0 -56 90 -91q133 47 133 131zM1438 252q0 -92 112 -90q61 0 102 31q40 31 40 86q-1 79 -105 110q-63 -18 -106 -55t-43 -82zM1532 -14q-160 0 -251 63t-91 164q0 168 203 244q-51 20 -82 68t-31 114t35 120q59 91 216 123
q62 13 130 13q147 0 236 -59t90 -156q0 -156 -183 -223q129 -51 129 -187q1 -104 -65 -171t-151 -90t-185 -23zM473 0h-135q-63 0 -21 57l1029 1336q41 53 88 53h135q65 0 22 -55l-1028 -1336q-43 -55 -90 -55zM434 561h-143q-53 0 -47 51q26 132 144 308t267 329h-368
q-55 0 -45 54l14 88q12 55 61 55h576q63 0 51 -53l-10 -68q-6 -31 -45 -74q-127 -139 -241 -316t-150 -319q-16 -55 -64 -55z" />
    <glyph glyph-name="arrowleft" unicode="&#x2190;" horiz-adv-x="1370" 
d="M758 43h-240q-41 0 -59 29l-326 438q-33 33 12 72l482 438q33 29 67 29h240q16 0 27 -17t-17 -41l-364 -313l643 8q57 0 49 -51l-33 -178q-6 -51 -65 -51l-639 8l253 -314q12 -16 4 -37q-9 -20 -34 -20z" />
    <glyph glyph-name="arrowup" unicode="&#x2191;" horiz-adv-x="1370" 
d="M518 8q-49 0 -41 58l121 643l-367 -312q-20 -16 -38 -10t-17 31l43 241q6 39 39 64l510 403q38 34 72 0l368 -403q23 -31 15 -64l-43 -241q-2 -25 -24 -31t-36 10l-258 312l-106 -643q-8 -57 -60 -58h-178z" />
    <glyph glyph-name="arrowright" unicode="&#x2192;" horiz-adv-x="1370" 
d="M879 1049q35 0 59 -29l328 -438q25 -40 -15 -72l-481 -438q-29 -29 -70 -29h-239q-36 0 -27 33q4 14 17 24l366 314l-645 -8q-55 0 -47 51l31 178q12 51 65 51l641 -8l-254 313q-14 17 -4 37t35 21h240z" />
    <glyph glyph-name="arrowdown" unicode="&#x2193;" horiz-adv-x="1370" 
d="M709 1083h176q49 0 41 -57l-123 -643l368 311q19 14 39 8t17 -30l-43 -240q-6 -39 -39 -63l-510 -404q-15 -16 -35 -16t-37 16l-368 404q-20 29 -15 63l41 240q6 26 27 32t35 -10l258 -311l106 643q8 57 62 57z" />
    <glyph glyph-name="arrowboth" unicode="&#x2194;" horiz-adv-x="2156" 
d="M1665 1049q37 0 59 -29l326 -438q27 -40 -12 -72l-482 -438q-33 -29 -69 -29h-240q-35 0 -26 33q4 14 16 24l365 314l-539 -11l-528 11l253 -314q12 -16 4 -37q-9 -20 -34 -20h-240q-41 0 -59 29l-326 438q-35 35 12 72l482 438q33 29 67 29h240q16 0 27 -17t-17 -41
l-364 -313l532 10l537 -10l-254 313q-14 17 -5 37t35 21h240z" />
    <glyph glyph-name="arrowupdn" unicode="&#x2195;" horiz-adv-x="1370" 
d="M540 -356q-20 0 -34 16l-367 403q-23 27 -18 64l43 240q4 25 26 31t35 -11l260 -309l72 471l92 465l-368 -309q-18 -18 -38 -13q-19 6 -16 31l43 240q4 39 39 65l510 404q17 16 37 16t35 -16l366 -404q23 -27 17 -65l-41 -240q-4 -25 -26 -31t-36 13l-260 309l-69 -465
l-94 -471l368 309q20 18 38 11t15 -31l-43 -240q-4 -37 -39 -64l-509 -403q-18 -16 -38 -16z" />
    <glyph glyph-name="arrowupleft" unicode="&#x2196;" horiz-adv-x="1370" 
d="M1161 748l-440 -5l379 -446q35 -41 -10 -78l-146 -123q-43 -41 -78 4l-364 459l-82 -442q-4 -25 -24 -33t-36 8l-139 168q-23 27 -14 66l129 596q6 23 20 36q18 12 39 15l602 24q37 4 60 -26l139 -168q14 -19 2 -37t-37 -18z" />
    <glyph glyph-name="arrowupright" unicode="&#x2197;" horiz-adv-x="1370" 
d="M748 743l-441 5q-25 2 -31 18t17 37l196 168q33 31 68 26l594 -24q25 -3 36 -17t5 -34l-80 -596q-4 -35 -37 -66l-201 -168q-20 -16 -36 -7t-13 32l74 442l-528 -459q-49 -43 -78 -4l-103 123q-31 35 19 78z" />
    <glyph glyph-name="arrowdownright" unicode="&#x2198;" horiz-adv-x="1370" 
d="M225 283l441 4l-379 446q-35 37 8 78l145 123q45 39 78 -4l367 -459l80 440q4 25 23 34t36 -9l141 -168q23 -27 13 -63l-129 -596q-3 -19 -19 -35t-41 -17l-600 -24q-37 -2 -61 26l-138 168q-14 20 -2 37t37 19z" />
    <glyph glyph-name="arrowdownleft" unicode="&#x2199;" horiz-adv-x="1370" 
d="M639 287l438 -4q25 -1 31 -19t-12 -37l-199 -170q-35 -29 -70 -24l-591 24q-47 4 -43 52l81 596q4 37 37 63l199 168q20 18 38 9t13 -34l-74 -440l527 459q47 41 80 4l100 -123q31 -37 -16 -78z" />
    <glyph glyph-name="partialdiff" unicode="&#x2202;" horiz-adv-x="1349" 
d="M582 254q139 0 234 92t95 221q0 80 -55 125t-147 45q-139 0 -233 -87t-93 -218q1 -80 53 -129t146 -49zM803 1470q262 0 395 -137t133 -377q0 -297 -138 -557q-138 -261 -370 -364q-129 -57 -278 -58q-229 0 -355 115q-125 115 -124 295q0 260 183 423t441 163
q117 0 196 -46t109 -110q18 61 19 131q4 116 -61 182t-193 66t-242 -29q-66 -16 -65 39l-2 142q0 49 63 71q150 51 289 51z" />
    <glyph glyph-name="Delta" unicode="&#x2206;" horiz-adv-x="1421" 
d="M825 1155l-397 -885h494l-88 885h-9zM721 1446h313q49 0 56 -43l172 -1335q8 -68 -58 -68h-1149q-33 0 -43 20t4 48l639 1335q21 43 66 43z" />
    <glyph glyph-name="product" unicode="&#x220f;" horiz-adv-x="1654" 
d="M297 1446h1399q61 0 49 -57l-29 -170q-8 -57 -65 -58h-174l-195 -1104q-12 -57 -65 -57h-222q-59 0 -51 57l197 1104h-383l-197 -1104q-8 -57 -63 -57h-222q-59 0 -51 57l197 1104h-170q-57 1 -49 58l28 170q8 57 66 57z" />
    <glyph glyph-name="summation" unicode="&#x2211;" horiz-adv-x="1263" 
d="M1044 57q57 0 52 -55l-31 -170q-8 -57 -66 -57h-968q-57 0 -49 57l26 154q12 63 60 104l548 524l-356 514q-31 45 -18 105l26 156q8 57 64 57h944q61 0 49 -57l-29 -168q-8 -57 -65 -58h-627l330 -465q12 -16 6 -45l-14 -78q-7 -31 -23 -47l-502 -471h643z" />
    <glyph glyph-name="minus" unicode="&#x2212;" horiz-adv-x="1236" 
d="M1077 578h-876q-57 0 -47 55l26 153q8 55 64 56h876q57 0 49 -56l-28 -153q-7 -55 -64 -55z" />
    <glyph glyph-name="uni2215" unicode="&#x2215;" horiz-adv-x="167" 
d="M-352 0h-135q-63 0 -21 57l1028 1336q41 53 88 53h135q66 0 23 -55l-1028 -1336q-43 -55 -90 -55z" />
    <glyph glyph-name="uni2219" unicode="&#x2219;" horiz-adv-x="532" 
d="M205 733h209q66 0 53 -55l-39 -217q-8 -57 -61 -58h-222q-57 1 -49 58l39 217q12 55 70 55z" />
    <glyph glyph-name="radical" unicode="&#x221a;" horiz-adv-x="1550" 
d="M815 -143h-285q-55 0 -65 55l-158 795h-137q-57 0 -49 55l24 145q10 55 66 56h346q59 0 68 -54l94 -680h10l547 1293q23 49 70 49h247q60 0 35 -60l-733 -1597q-25 -57 -80 -57z" />
    <glyph glyph-name="infinity" unicode="&#x221e;" horiz-adv-x="1521" 
d="M1251 778q0 123 -133 123q-68 0 -110 -39t-82 -123l-68 -155q36 -70 152 -70t179 77q62 77 62 187zM604 926q-114 0 -181 -77t-67 -187q0 -56 36 -90t104 -34t108 38q41 38 78 122l70 156q-34 72 -148 72zM1141 1079q176 0 260 -81t84 -210q0 -186 -124 -308t-322 -122
t-275 109q-119 -107 -297 -107t-262 81t-84 210q0 187 126 309q125 122 323 122t276 -109q119 106 295 106z" />
    <glyph glyph-name="integral" unicode="&#x222b;" horiz-adv-x="950" 
d="M791 1462q113 0 174 -18q49 -10 39 -58l-29 -137q-8 -51 -55 -47l-68 6q-80 0 -98 -110l-179 -1006q-31 -174 -115 -254t-251 -80q-102 0 -172 19q-51 14 -43 57l31 139q8 47 57 47l68 -8q75 0 98 111l176 1005q31 176 115 255t252 79z" />
    <glyph glyph-name="approxequal" unicode="&#x2248;" horiz-adv-x="1236" 
d="M492 905q-50 0 -70 -45l-10 -20q-12 -39 -66 -39h-84q-63 0 -45 94q51 223 258 223q90 0 180 -37l129 -49q88 -33 134 -33t67 45l8 19q14 39 66 39h84q63 0 45 -96q-51 -221 -250 -222q-90 0 -186 37l-134 53q-76 31 -126 31zM855 307q-93 0 -189 37l-131 53
q-84 33 -130 33t-67 -47l-8 -21q-16 -43 -66 -38h-84q-64 0 -42 102t88 160q67 57 158 57t187 -39l129 -49q90 -33 135 -33t66 45l8 21q16 37 66 37h84q63 -1 45 -97q-24 -111 -90 -166t-159 -55z" />
    <glyph glyph-name="notequal" unicode="&#x2260;" horiz-adv-x="1236" 
d="M1034 362h-463l-192 -305q-17 -33 -33 -45t-43 -12h-135q-65 0 -37 57l191 305h-152q-57 0 -49 56l26 139q8 55 64 55h260l125 203h-346q-57 0 -49 57l24 140q12 55 66 55h457l202 326q29 53 76 53h137q68 0 33 -57l-199 -322h156q59 0 49 -55l-24 -140q-12 -57 -64 -57
h-266l-127 -203h352q57 0 49 -55l-24 -139q-9 -56 -64 -56z" />
    <glyph glyph-name="lessequal" unicode="&#x2264;" horiz-adv-x="1236" 
d="M938 0h-823q-57 0 -49 55l18 97q10 55 61 55h824q61 0 49 -55l-17 -97q-12 -55 -63 -55zM199 862q8 33 39 56l800 522q45 33 78 -8l96 -134q16 -20 10 -43t-30 -34l-574 -361l447 -360q43 -35 -6 -78l-146 -133q-43 -41 -79 -8l-617 522q-22 20 -18 59z" />
    <glyph glyph-name="greaterequal" unicode="&#x2265;" horiz-adv-x="1236" 
d="M965 0h-824q-61 0 -49 55l17 97q12 55 63 55h823q57 0 49 -55l-18 -97q-10 -55 -61 -55zM1159 918q27 -23 19 -60t-39 -55l-799 -522q-47 -35 -78 8l-98 133q-14 18 -8 41t28 37l576 360l-447 361q-18 15 -17 37t21 40l148 134q45 39 80 8z" />
    <glyph glyph-name="lozenge" unicode="&#x25ca;" horiz-adv-x="1421" 
d="M625 -27q-25 0 -43 27l-428 694q-20 28 10 58l672 694q24 24 50 24t42 -24l428 -694q19 -27 -10 -58l-670 -694q-26 -27 -51 -27zM690 362l348 361l-219 360l-348 -360z" />
    <glyph glyph-name="uniE000" unicode="&#xe000;" horiz-adv-x="1024" 
 />
    <glyph glyph-name="Q.alt" unicode="&#xe001;" horiz-adv-x="1472" 
d="M702 281q293 0 371 442q18 98 19 174q0 270 -234 270q-293 0 -371 -442q-18 -121 -18 -176q0 -268 233 -268zM893 1470q265 0 411 -135t146 -403q0 -100 -20 -209q-55 -315 -213 -499t-394 -222l-10 -168q0 -59 -65 -59h-248q-31 0 -43 16t-4 43l49 168q-180 33 -286 169
q-105 136 -105 361q0 86 18 191q135 747 764 747z" />
    <glyph glyph-name="a.alt" unicode="&#xe002;" horiz-adv-x="1292" 
d="M1036 0h-198q-51 0 -52 45l5 92q-57 -76 -149 -118t-189 -42q-179 -1 -277 101t-98 301q0 84 14 170q100 565 529 565q98 0 192 -44t123 -116l27 90q14 45 63 46h197q59 -1 49 -56l-174 -977q-8 -57 -62 -57zM866 662q0 193 -170 192q-106 0 -171 -73t-91 -234
q-14 -86 -14 -125q0 -184 166 -184q215 0 268 307q12 66 12 117z" />
    <glyph glyph-name="u.alt" unicode="&#xe003;" horiz-adv-x="1230" 
d="M553 -23q-213 1 -336 89t-123 260q0 41 10 98l107 610q12 55 63 56h224q59 0 47 -56l-105 -594q-32 -186 138 -186t202 186l105 594q8 55 63 56h221q59 0 50 -56l-109 -610q-78 -447 -557 -447z" />
    <glyph glyph-name="y.alt" unicode="&#xe004;" horiz-adv-x="1230" 
d="M446 141q-160 0 -246 74t-87 219q0 41 10 103l88 497q12 55 63 56h224q59 0 47 -56l-76 -440q-8 -35 -8 -72q0 -115 119 -114q86 0 146 58t77 152l74 416q8 55 63 56h221q59 0 49 -56l-147 -831q-37 -215 -191 -334t-407 -119q-109 0 -221 18t-163 46q-50 27 -28 71
l53 129q20 57 76 35q139 -53 271 -53t206 55t97 172l10 70q-123 -152 -320 -152z" />
    <glyph glyph-name="j.alt" unicode="&#xe005;" horiz-adv-x="591" 
d="M541 1200h-228q-55 0 -49 57l25 129q8 55 63 56h226q57 -1 49 -56l-23 -129q-8 -57 -63 -57zM285 -225h-222q-55 0 -47 57l213 1202q8 55 64 56h221q59 -1 49 -56l-213 -1202q-8 -57 -65 -57z" />
    <glyph glyph-name="agrave.alt" unicode="&#xe006;" horiz-adv-x="1292" 
d="M813 1214q-43 0 -70 29l-155 174q-14 16 -6 38t34 22h232q47 0 59 -39l58 -178q10 -45 -41 -46h-111zM1036 0h-198q-51 0 -52 45l5 92q-57 -76 -149 -118t-189 -42q-179 -1 -277 101t-98 301q0 84 14 170q100 565 529 565q98 0 192 -44t123 -116l27 90q14 45 63 46h197
q59 -1 49 -56l-174 -977q-8 -57 -62 -57zM866 662q0 193 -170 192q-106 0 -171 -73t-91 -234q-14 -86 -14 -125q0 -184 166 -184q215 0 268 307q12 66 12 117z" />
    <glyph glyph-name="aacute.alt" unicode="&#xe007;" horiz-adv-x="1292" 
d="M809 1477h242q29 0 31 -22t-17 -38l-207 -174q-31 -29 -74 -29h-122q-25 0 -32 14t3 32l112 178q23 39 64 39zM1036 0h-198q-51 0 -52 45l5 92q-57 -76 -149 -118t-189 -42q-179 -1 -277 101t-98 301q0 84 14 170q100 565 529 565q98 0 192 -44t123 -116l27 90
q14 45 63 46h197q59 -1 49 -56l-174 -977q-8 -57 -62 -57zM866 662q0 193 -170 192q-106 0 -171 -73t-91 -234q-14 -86 -14 -125q0 -184 166 -184q215 0 268 307q12 66 12 117z" />
    <glyph glyph-name="acircumflex.alt" unicode="&#xe008;" horiz-adv-x="1292" 
d="M588 1214h-107q-25 0 -29 18t13 36l221 205q35 35 80 34h127q49 0 76 -34l147 -205q12 -16 3 -34t-34 -20h-98q-36 0 -59 27l-117 111l-158 -111q-33 -27 -65 -27zM1036 0h-198q-51 0 -52 45l5 92q-57 -76 -149 -118t-189 -42q-179 -1 -277 101t-98 301q0 84 14 170
q100 565 529 565q98 0 192 -44t123 -116l27 90q14 45 63 46h197q59 -1 49 -56l-174 -977q-8 -57 -62 -57zM866 662q0 193 -170 192q-106 0 -171 -73t-91 -234q-14 -86 -14 -125q0 -184 166 -184q215 0 268 307q12 66 12 117z" />
    <glyph glyph-name="atilde.alt" unicode="&#xe009;" horiz-adv-x="1292" 
d="M987 1210q-80 0 -164 33l-82 31q-121 51 -143 -8l-6 -15q-14 -35 -57 -34h-72q-27 0 -37 13t-4 50q16 86 67 135t129 49t164 -32l82 -33q68 -23 100 -23t46 35l4 14q14 35 59 35h72q51 0 37 -74q-29 -176 -195 -176zM1036 0h-198q-51 0 -52 45l5 92q-57 -76 -149 -118
t-189 -42q-179 -1 -277 101t-98 301q0 84 14 170q100 565 529 565q98 0 192 -44t123 -116l27 90q14 45 63 46h197q59 -1 49 -56l-174 -977q-8 -57 -62 -57zM866 662q0 193 -170 192q-106 0 -171 -73t-91 -234q-14 -86 -14 -125q0 -184 166 -184q215 0 268 307q12 66 12 117z
" />
    <glyph glyph-name="adieresis.alt" unicode="&#xe00a;" horiz-adv-x="1292" 
d="M911 1214q-55 0 -47 56l21 125q12 55 65 55h170q59 0 47 -55l-20 -125q-8 -55 -66 -56h-170zM485 1214q-57 0 -49 56l23 125q8 55 63 55h170q57 0 49 -55l-22 -125q-8 -55 -64 -56h-170zM1036 0h-198q-51 0 -52 45l5 92q-57 -76 -149 -118t-189 -42q-179 -1 -277 101
t-98 301q0 84 14 170q100 565 529 565q98 0 192 -44t123 -116l27 90q14 45 63 46h197q59 -1 49 -56l-174 -977q-8 -57 -62 -57zM866 662q0 193 -170 192q-106 0 -171 -73t-91 -234q-14 -86 -14 -125q0 -184 166 -184q215 0 268 307q12 66 12 117z" />
    <glyph glyph-name="amacron.alt" unicode="&#xe00b;" horiz-adv-x="1292" 
d="M1096 1225h-625q-53 0 -45 53l14 80q8 53 62 53h624q53 0 45 -53l-12 -80q-10 -53 -63 -53zM1036 0h-198q-51 0 -52 45l5 92q-57 -76 -149 -118t-189 -42q-179 -1 -277 101t-98 301q0 84 14 170q100 565 529 565q98 0 192 -44t123 -116l27 90q14 45 63 46h197
q59 -1 49 -56l-174 -977q-8 -57 -62 -57zM866 662q0 193 -170 192q-106 0 -171 -73t-91 -234q-14 -86 -14 -125q0 -184 166 -184q215 0 268 307q12 66 12 117z" />
    <glyph glyph-name="abreve.alt" unicode="&#xe00c;" horiz-adv-x="1292" 
d="M796 1204q-167 0 -245 80t-57 191q6 43 47 43h84q45 0 45 -41q4 -113 138 -113t177 113q16 41 55 41h84q47 0 37 -43q-20 -117 -109 -194t-256 -77zM1036 0h-198q-51 0 -52 45l5 92q-57 -76 -149 -118t-189 -42q-179 -1 -277 101t-98 301q0 84 14 170q100 565 529 565
q98 0 192 -44t123 -116l27 90q14 45 63 46h197q59 -1 49 -56l-174 -977q-8 -57 -62 -57zM866 662q0 193 -170 192q-106 0 -171 -73t-91 -234q-14 -86 -14 -125q0 -184 166 -184q215 0 268 307q12 66 12 117z" />
    <glyph glyph-name="aring.alt" unicode="&#xe00d;" horiz-adv-x="1292" 
d="M832 1649q106 -1 170 -57t65 -152q0 -96 -79 -168q-79 -70 -184 -70t-169 56q-63 56 -63 153t77 167t183 71zM809 1323q47 0 84 32t37 78q0 47 -27 71t-74 24t-85 -33t-38 -79t28 -70t75 -23zM1036 0h-198q-51 0 -52 45l5 92q-57 -76 -149 -118t-189 -42
q-179 -1 -277 101t-98 301q0 84 14 170q100 565 529 565q98 0 192 -44t123 -116l27 90q14 45 63 46h197q59 -1 49 -56l-174 -977q-8 -57 -62 -57zM866 662q0 193 -170 192q-106 0 -171 -73t-91 -234q-14 -86 -14 -125q0 -184 166 -184q215 0 268 307q12 66 12 117z" />
    <glyph glyph-name="aringacute.alt" unicode="&#xe00e;" horiz-adv-x="1292" 
d="M807 1323q47 0 84 32t37 78q0 47 -27 71t-74 24t-85 -33t-38 -79t28 -70t75 -23zM866 662q0 193 -170 192q-106 0 -171 -73t-91 -234q-14 -86 -14 -125q0 -184 166 -184q215 0 268 307q12 66 12 117zM569 1397q0 82 45 143t121 90l92 146q23 39 64 39h242q29 0 31 -22
t-17 -38l-172 -145q90 -57 90 -162q0 -106 -79 -176t-184 -70t-169 56t-64 139zM1036 0h-198q-51 0 -52 45l5 92q-57 -76 -149 -118t-189 -42q-179 -1 -277 101t-98 301q0 84 14 170q100 565 529 565q98 0 192 -44t123 -116l27 90q14 45 63 46h197q59 -1 49 -56l-174 -977
q-8 -57 -62 -57z" />
    <glyph glyph-name="aogonek.alt" unicode="&#xe00f;" horiz-adv-x="1292" 
d="M866 662q0 193 -170 192q-106 0 -171 -73t-91 -234q-14 -86 -14 -125q0 -184 166 -184q215 0 268 307q12 66 12 117zM1036 0h-45q-129 -61 -129 -145q0 -51 80 -52q20 0 40 4t28 5q25 2 26 -23l6 -72q2 -29 -26 -41q-66 -36 -154 -36t-145 36t-58 101q0 143 197 223h-18
q-51 0 -52 45l5 92q-57 -76 -149 -118t-189 -42q-179 -1 -277 101t-98 301q0 84 14 170q100 565 529 565q98 0 192 -44t123 -116l27 90q14 45 63 46h197q59 -1 49 -56l-174 -977q-8 -57 -62 -57z" />
    <glyph glyph-name="ij.alt" unicode="&#xe010;" horiz-adv-x="1163" 
d="M1112 1200h-227q-55 0 -49 57l24 129q8 55 64 56h225q57 -1 49 -56l-22 -129q-8 -57 -64 -57zM856 -225h-221q-55 0 -47 57l213 1202q10 55 63 56h221q58 -1 50 -56l-213 -1202q-8 -57 -66 -57zM541 1200h-228q-55 0 -49 57l25 129q8 55 63 56h226q57 -1 49 -56l-23 -129
q-8 -57 -63 -57zM326 0h-222q-57 0 -49 57l174 977q8 55 64 56h221q59 -1 49 -56l-174 -977q-8 -57 -63 -57z" />
    <glyph glyph-name="jcircumflex.alt" unicode="&#xe011;" horiz-adv-x="593" 
d="M233 1214h-106q-25 0 -30 18t14 36l221 205q35 35 80 34h127q49 0 75 -34l148 -205q12 -16 3 -34t-34 -20h-98q-37 0 -60 27l-116 111l-158 -111q-33 -27 -66 -27zM285 -225h-222q-55 0 -47 57l213 1202q8 55 64 56h221q59 -1 49 -56l-213 -1202q-8 -57 -65 -57z" />
    <glyph glyph-name="dotlessj.alt" unicode="&#xe012;" horiz-adv-x="591" 
d="M285 -225h-222q-55 0 -47 57l213 1202q8 55 64 56h221q59 -1 49 -56l-213 -1202q-8 -57 -65 -57z" />
    <glyph glyph-name="ugrave.alt" unicode="&#xe013;" horiz-adv-x="1230" 
d="M723 1214q-43 0 -70 29l-155 174q-14 16 -6 38t34 22h232q47 0 59 -39l57 -178q10 -45 -40 -46h-111zM553 -23q-213 1 -336 89t-123 260q0 41 10 98l107 610q12 55 63 56h224q59 0 47 -56l-105 -594q-32 -186 138 -186t202 186l105 594q8 55 63 56h221q59 0 50 -56
l-109 -610q-78 -447 -557 -447z" />
    <glyph glyph-name="uacute.alt" unicode="&#xe014;" horiz-adv-x="1230" 
d="M811 1477h242q29 0 31 -22t-17 -38l-207 -174q-31 -29 -74 -29h-122q-25 0 -32 14t3 32l113 178q23 39 63 39zM553 -23q-213 1 -336 89t-123 260q0 41 10 98l107 610q12 55 63 56h224q59 0 47 -56l-105 -594q-32 -186 138 -186t202 186l105 594q8 55 63 56h221
q59 0 50 -56l-109 -610q-78 -447 -557 -447z" />
    <glyph glyph-name="ucircumflex.alt" unicode="&#xe015;" horiz-adv-x="1230" 
d="M553 1214h-107q-26 0 -30 18t14 36l221 205q35 35 80 34h127q49 0 76 -34l147 -205q12 -16 3 -34t-33 -20h-99q-36 0 -59 27l-117 111l-158 -111q-33 -27 -65 -27zM553 -23q-213 1 -336 89t-123 260q0 41 10 98l107 610q12 55 63 56h224q59 0 47 -56l-105 -594
q-32 -186 138 -186t202 186l105 594q8 55 63 56h221q59 0 50 -56l-109 -610q-78 -447 -557 -447z" />
    <glyph glyph-name="utilde.alt" unicode="&#xe016;" horiz-adv-x="1230" 
d="M952 1210q-80 0 -164 33l-81 31q-122 52 -144 -8l-6 -15q-14 -35 -57 -34h-72q-27 0 -37 13t-4 50q15 86 67 135t129 49t165 -32l81 -33q68 -23 102 -23t48 49q14 35 59 35h72q51 0 37 -74q-29 -176 -195 -176zM553 -23q-213 1 -336 89t-123 260q0 41 10 98l107 610
q12 55 63 56h224q59 0 47 -56l-105 -594q-32 -186 138 -186t202 186l105 594q8 55 63 56h221q59 0 50 -56l-109 -610q-78 -447 -557 -447z" />
    <glyph glyph-name="udieresis.alt" unicode="&#xe017;" horiz-adv-x="1230" 
d="M877 1214q-55 0 -48 56l21 125q12 55 65 55h170q60 0 48 -55l-21 -125q-8 -55 -65 -56h-170zM451 1214q-57 0 -50 56l23 125q8 55 63 55h170q58 0 50 -55l-23 -125q-8 -55 -63 -56h-170zM553 -23q-213 1 -336 89t-123 260q0 41 10 98l107 610q12 55 63 56h224
q59 0 47 -56l-105 -594q-32 -186 138 -186t202 186l105 594q8 55 63 56h221q59 0 50 -56l-109 -610q-78 -447 -557 -447z" />
    <glyph glyph-name="umacron.alt" unicode="&#xe018;" horiz-adv-x="1230" 
d="M1061 1225h-625q-53 0 -45 53l15 80q8 53 61 53h625q53 0 45 -53l-13 -80q-10 -53 -63 -53zM553 -23q-213 1 -336 89t-123 260q0 41 10 98l107 610q12 55 63 56h224q59 0 47 -56l-105 -594q-32 -186 138 -186t202 186l105 594q8 55 63 56h221q59 0 50 -56l-109 -610
q-78 -447 -557 -447z" />
    <glyph glyph-name="ubreve.alt" unicode="&#xe019;" horiz-adv-x="1230" 
d="M761 1204q-167 0 -245 80t-57 191q6 43 47 43h84q45 0 45 -41q4 -113 138 -113t177 113q16 41 56 41h84q45 0 36 -43q-20 -117 -109 -194t-256 -77zM553 -23q-213 1 -336 89t-123 260q0 41 10 98l107 610q12 55 63 56h224q59 0 47 -56l-105 -594q-32 -186 138 -186
t202 186l105 594q8 55 63 56h221q59 0 50 -56l-109 -610q-78 -447 -557 -447z" />
    <glyph glyph-name="uring.alt" unicode="&#xe01a;" horiz-adv-x="1230" 
d="M537 1411q-1 97 77 167t184 71q106 -1 170 -57q65 -56 64 -138q0 -112 -79 -182t-184 -70t-169 56q-63 56 -63 153zM672 1416q0 -93 102 -93q47 0 84 32t37 78q0 47 -27 71q-28 24 -74 24t-84 -33t-38 -79zM553 -23q-213 1 -336 89t-123 260q0 41 10 98l107 610
q12 55 63 56h224q59 0 47 -56l-105 -594q-32 -186 138 -186t202 186l105 594q8 55 63 56h221q59 0 50 -56l-109 -610q-78 -447 -557 -447z" />
    <glyph glyph-name="uhungarumlaut.alt" unicode="&#xe01b;" horiz-adv-x="1230" 
d="M985 1477h211q27 0 31 -22t-15 -38l-180 -174q-29 -29 -74 -29h-108q-25 0 -33 14t2 32l103 178q20 39 63 39zM590 1477h211q27 0 31 -22t-17 -38l-178 -174q-27 -29 -74 -29h-108q-25 0 -34 14t1 32l104 178q18 39 64 39zM553 -23q-213 1 -336 89t-123 260q0 41 10 98
l107 610q12 55 63 56h224q59 0 47 -56l-105 -594q-32 -186 138 -186t202 186l105 594q8 55 63 56h221q59 0 50 -56l-109 -610q-78 -447 -557 -447z" />
    <glyph glyph-name="ydieresis.alt" unicode="&#xe01c;" horiz-adv-x="1230" 
d="M877 1214q-55 0 -48 56l21 125q12 55 65 55h170q60 0 48 -55l-21 -125q-8 -55 -65 -56h-170zM451 1214q-57 0 -50 56l23 125q8 55 63 55h170q58 0 50 -55l-23 -125q-8 -55 -63 -56h-170zM446 141q-160 0 -246 74t-87 219q0 41 10 103l88 497q12 55 63 56h224q59 0 47 -56
l-76 -440q-8 -35 -8 -72q0 -115 119 -114q86 0 146 58t77 152l74 416q8 55 63 56h221q59 0 49 -56l-147 -831q-37 -215 -191 -334t-407 -119q-109 0 -221 18t-163 46q-50 27 -28 71l53 129q20 57 76 35q139 -53 271 -53t206 55t97 172l10 70q-123 -152 -320 -152z" />
    <glyph glyph-name="yacute.alt" unicode="&#xe01d;" horiz-adv-x="1230" 
d="M795 1477h241q29 0 32 -22t-17 -38l-207 -174q-31 -29 -74 -29h-123q-25 0 -32 14t3 32l113 178q23 39 64 39zM446 141q-160 0 -246 74t-87 219q0 41 10 103l88 497q12 55 63 56h224q59 0 47 -56l-76 -440q-8 -35 -8 -72q0 -115 119 -114q86 0 146 58t77 152l74 416
q8 55 63 56h221q59 0 49 -56l-147 -831q-37 -215 -191 -334t-407 -119q-109 0 -221 18t-163 46q-50 27 -28 71l53 129q20 57 76 35q139 -53 271 -53t206 55t97 172l10 70q-123 -152 -320 -152z" />
    <glyph glyph-name="ycircumflex.alt" unicode="&#xe01e;" horiz-adv-x="1230" 
d="M547 1214h-107q-26 0 -30 18t14 36l221 205q35 35 80 34h127q49 0 76 -34l147 -205q12 -16 3 -34t-34 -20h-98q-36 0 -59 27l-117 111l-158 -111q-33 -27 -65 -27zM446 141q-160 0 -246 74t-87 219q0 41 10 103l88 497q12 55 63 56h224q59 0 47 -56l-76 -440
q-8 -35 -8 -72q0 -115 119 -114q86 0 146 58t77 152l74 416q8 55 63 56h221q59 0 49 -56l-147 -831q-37 -215 -191 -334t-407 -119q-109 0 -221 18t-163 46q-50 27 -28 71l53 129q20 57 76 35q139 -53 271 -53t206 55t97 172l10 70q-123 -152 -320 -152z" />
    <glyph glyph-name="ygrave.alt" unicode="&#xe01f;" horiz-adv-x="1230" 
d="M715 1214q-43 0 -70 29l-156 174q-14 16 -6 38t35 22h232q47 0 59 -39l57 -178q10 -45 -41 -46h-110zM446 141q-160 0 -246 74t-87 219q0 41 10 103l88 497q12 55 63 56h224q59 0 47 -56l-76 -440q-8 -35 -8 -72q0 -115 119 -114q86 0 146 58t77 152l74 416q8 55 63 56
h221q59 0 49 -56l-147 -831q-37 -215 -191 -334t-407 -119q-109 0 -221 18t-163 46q-50 27 -28 71l53 129q20 57 76 35q139 -53 271 -53t206 55t97 172l10 70q-123 -152 -320 -152z" />
    <glyph glyph-name="i.dot" unicode="&#xe020;" horiz-adv-x="591" 
d="M541 1200h-228q-55 0 -49 57l25 129q8 55 63 56h226q57 -1 49 -56l-23 -129q-8 -57 -63 -57zM326 0h-222q-57 0 -49 57l174 977q8 55 64 56h221q59 -1 49 -56l-174 -977q-8 -57 -63 -57z" />
    <glyph glyph-name="dollar.old" unicode="&#xe021;" horiz-adv-x="1130" 
d="M694 965q-195 0 -194 -105q0 -51 90 -92q29 -14 104 -43l21 -8q239 -99 292 -211q26 -55 25 -125q0 -177 -123 -275t-329 -120l-21 -117q-10 -49 -53 -49h-98q-47 0 -41 49l20 113q-233 10 -354 75q-43 23 -21 64l80 147q23 47 72 27q125 -55 305 -55q219 0 219 110
q0 41 -42 67t-93 45t-55 21q-170 61 -257 134t-87 206q0 348 452 396l21 120q8 47 53 47h98q47 0 41 -47l-20 -120q186 -14 284 -68q41 -23 21 -64l-76 -137q-25 -45 -76 -28q-133 43 -258 43z" />
    <glyph glyph-name="cent.old" unicode="&#xe022;" horiz-adv-x="1112" 
d="M772 1386h98q47 0 41 -47l-22 -122q154 -14 248 -74q45 -29 18 -68l-88 -145q-29 -45 -74 -25q-86 39 -192 39q-150 0 -238 -83t-121 -261q-10 -72 -10 -111q0 -233 250 -233q113 0 213 39q53 23 66 -25l34 -145q10 -39 -41 -66q-104 -59 -282 -75l-21 -115
q-10 -47 -53 -47h-98q-47 0 -41 47l22 117q-186 23 -291 135q-104 113 -104 315q0 70 16 164q52 286 198 436t398 178l21 125q10 47 53 47z" />
    <glyph glyph-name="sterling.old" unicode="&#xe023;" horiz-adv-x="1220" 
d="M948 389h152q29 0 40 -12t7 -47q-20 -166 -90 -259t-217 -94q-76 0 -207 22q-131 21 -241 21t-224 -36q-53 -18 -66 8l-69 137q-25 39 20 64q102 51 170 141t37 182h-143q-41 0 -35 39l14 72q6 39 43 39h74q-29 63 -29 125q0 143 83 243q155 187 464 187q235 0 347 -87
q112 -88 112 -224t-55 -136h-201q-37 0 -37 25l8 73q0 90 -168 91q-98 1 -160 -55t-63 -146q0 -49 21 -96h286q43 0 37 -39l-14 -72q-6 -39 -45 -39h-238q8 -84 -35 -157t-116 -119q55 16 127 16l215 -20q115 0 141 110q10 43 55 43z" />
    <glyph glyph-name="yen.old" unicode="&#xe024;" horiz-adv-x="1200" 
d="M989 252h-258l-37 -199q-6 -53 -59 -53h-229q-57 0 -48 53l35 199h-256q-41 0 -35 37l13 69q6 37 43 37h262l6 35l-37 88h-205q-43 0 -34 37l12 68q6 39 43 39h133l-188 481q-20 61 43 61h227q53 0 63 -39l150 -497h4l324 497q25 39 71 39h230q35 0 41 -20t-13 -41
l-362 -481h131q41 0 35 -39l-13 -68q-8 -37 -45 -37h-211l-63 -88l-6 -35h256q41 0 35 -37l-13 -69q-6 -37 -45 -37z" />
    <glyph glyph-name="Euro.old" unicode="&#xe025;" horiz-adv-x="1171" 
d="M59 557h84q0 20 7 45l10 51h-80q-41 0 -35 37l12 64q6 37 43 37h101q166 430 643 430q100 0 206 -25t154 -57q39 -33 17 -68l-93 -139q-31 -43 -73 -27q-86 43 -199 43q-203 0 -297 -157h379q49 0 23 -43l-37 -64q-20 -31 -62 -31h-360q-19 -55 -19 -96h301q20 0 26 -12
t-5 -33l-37 -63q-18 -31 -59 -31h-215q35 -168 241 -168q113 0 215 43q53 18 68 -25l41 -139q10 -39 -39 -68q-146 -81 -372 -81t-367 114t-148 324h-94q-41 0 -35 37l10 63q8 39 45 39z" />
    <glyph glyph-name="zero.old" unicode="&#xe026;" horiz-adv-x="1290" 
d="M606 252q219 0 281 346q14 92 14 139q0 209 -172 209q-219 0 -280 -346q-14 -92 -15 -139q0 -209 172 -209zM742 1219q240 0 370 -119q131 -119 131 -344q0 -80 -14 -160q-53 -305 -224 -461q-171 -155 -409 -155t-372 119q-132 120 -132 345q0 78 14 158q52 305 224 461
t412 156z" />
    <glyph glyph-name="one.old" unicode="&#xe027;" horiz-adv-x="1177" 
d="M965 0h-834q-59 0 -49 57l27 158q8 57 65 57h264l107 600l-193 -100q-55 -23 -69 8l-70 117q-21 41 18 68l342 219q37 25 78 24h230q61 0 49 -59l-154 -877h232q57 0 49 -57l-27 -158q-10 -57 -65 -57z" />
    <glyph glyph-name="two.old" unicode="&#xe028;" horiz-adv-x="1179" 
d="M449 769q0 -77 -48 -77h-221q-47 0 -47 62q0 223 164 345t391 122q227 1 345 -93t118 -239q0 -350 -586 -617h447q59 0 49 -57l-27 -158q-10 -57 -65 -57h-910q-53 0 -45 51l27 148q4 37 45 57t125 63t134 71t126 72q112 65 216 160q104 96 112 191q17 137 -155 137
q-93 0 -144 -52t-51 -129z" />
    <glyph glyph-name="three.old" unicode="&#xe029;" horiz-adv-x="1157" 
d="M385 651h141q106 0 175 46t69 130q0 123 -203 123q-162 0 -303 -61q-57 -20 -69 35l-31 135q-10 49 45 74q180 88 444 88q195 0 328 -80t133 -236q0 -127 -72 -222t-190 -138q80 -27 133 -99t53 -174q0 -258 -182 -388t-452 -130t-449 96q-47 23 -21 74l82 146
q31 55 80 32q148 -72 292 -72t230 57q86 56 87 171q0 137 -213 137h-152q-59 0 -51 58l24 141q9 57 72 57z" />
    <glyph glyph-name="four.old" unicode="&#xe02a;" horiz-adv-x="1325" 
d="M922 1204h231q59 0 49 -59l-143 -805h149q61 0 52 -59l-27 -154q-12 -59 -70 -59h-151l-41 -234q-12 -59 -68 -59h-219q-61 0 -51 59l43 234h-635q-59 0 -47 59l26 152q6 45 35 75l797 817q29 33 70 33zM813 854l-500 -514h410z" />
    <glyph glyph-name="five.old" unicode="&#xe02b;" horiz-adv-x="1212" 
d="M1077 932h-561q-25 -115 -72 -281q104 35 211 35q223 0 332 -97t109 -263q0 -281 -177 -426q-177 -146 -473 -146t-450 96q-45 31 -21 74l82 144q33 57 80 32q147 -74 332 -73q125 -1 207 69t82 197q0 154 -201 153q-84 0 -167 -22t-100 -23q-17 0 -36 9l-109 32
q-35 10 -24 56q33 115 86 335t66 296t75 75h774q59 0 52 -57l-27 -158q-13 -57 -70 -57z" />
    <glyph glyph-name="six.old" unicode="&#xe02c;" horiz-adv-x="1255" 
d="M684 748q-123 0 -195 -94t-71 -224q0 -90 50 -136t136 -46q125 0 192 96t66 234q0 170 -178 170zM756 1446h272q23 0 27 -16t-19 -33q-268 -205 -409 -430q57 41 161 41q186 0 298 -109t112 -297q0 -262 -171 -442t-447 -180q-227 0 -361 111q-133 112 -133 323
q0 296 223 604q170 235 381 403q31 25 66 25z" />
    <glyph glyph-name="seven.old" unicode="&#xe02d;" horiz-adv-x="1142" 
d="M250 1204h893q61 0 51 -57l-23 -133q-11 -45 -49 -76l-14 -14q-190 -211 -370 -514t-249 -568q-20 -59 -73 -59h-223q-59 0 -48 61q63 258 258 574t396 514h-592q-61 0 -49 57l26 158q13 57 66 57z" />
    <glyph glyph-name="eight.old" unicode="&#xe02e;" horiz-adv-x="1308" 
d="M397 377q-1 -68 57 -108t164 -40q106 1 190 57q83 56 83 154q0 148 -207 203q-121 -33 -204 -99t-83 -167zM779 1231q-95 0 -164 -54t-68 -149q0 -125 174 -174q252 74 252 246q0 59 -49 95q-50 36 -145 36zM586 -20q-248 0 -388 97t-140 257t106 272t268 154
q-100 33 -158 106q-57 74 -57 182t54 196q53 87 143 134q175 92 400 91q224 -1 358 -90t134 -237t-94 -254q-96 -106 -237 -149q113 -31 181 -105t67 -194q1 -121 -57 -215q-98 -161 -357 -221q-106 -24 -223 -24z" />
    <glyph glyph-name="nine.old" unicode="&#xe02f;" horiz-adv-x="1267" 
d="M399 629q-1 -96 55 -133t186 -37t210 82t80 239q0 102 -58 142t-167 41q-152 1 -229 -89t-77 -245zM322 -139q-29 0 -35 16t20 37q240 186 404 270q-39 14 -148 15q-209 -1 -332 113t-122 313q0 268 164 437q165 169 454 169q229 -1 363 -103t133 -299q0 -197 -98 -395
q-132 -266 -511 -545q-47 -29 -73 -28h-219z" />
    <glyph glyph-name="dollar.tab" unicode="&#xe030;" horiz-adv-x="1325" 
d="M582 1036q0 -53 55 -88t165 -77q110 -43 166 -71q162 -82 211 -184q30 -63 29 -145q0 -201 -138 -319t-363 -160l-25 -139q-12 -57 -66 -58h-98q-55 0 -47 58l23 129q-258 12 -408 92q-49 27 -23 73l87 156q27 59 81 33q152 -63 312 -64q72 0 134 10t119 48q56 37 56 98
t-75 97q-60 31 -171 71q-172 60 -275 152t-104 251q0 393 521 463l22 133q8 55 64 56h98q59 -1 47 -58l-23 -129q199 -18 318 -84q45 -25 18 -73l-82 -148q-31 -55 -82 -35q-123 49 -284 50q-262 0 -262 -138z" />
    <glyph glyph-name="cent.tab" unicode="&#xe031;" horiz-adv-x="1325" 
d="M858 1294h98q61 0 50 -55l-23 -131q150 -18 227 -70q43 -29 15 -75l-82 -129q-31 -51 -84 -27q-86 37 -189 37q-283 0 -335 -299q-6 -45 -7 -84q0 -213 238 -213q119 0 211 41q59 25 76 -27l37 -129q12 -47 -43 -78q-98 -55 -263 -71l-22 -131q-8 -57 -66 -58h-98
q-55 0 -47 58l22 133q-176 18 -282 133t-107 305q1 68 11 125q45 252 197 396q153 144 380 163l23 131q12 55 63 55z" />
    <glyph glyph-name="sterling.tab" unicode="&#xe032;" horiz-adv-x="1325" 
d="M820 1194q-108 0 -179 -71q-72 -71 -72 -185q0 -35 27 -133h352q45 0 39 -41l-14 -74q-8 -43 -49 -43h-301q8 -39 8 -80q0 -184 -207 -297q132 32 283 3q82 -15 129 -15q133 0 161 135q14 51 72 51h150q66 0 53 -71q-35 -197 -112 -293t-253 -96q-94 0 -227 30t-252 29
q-119 0 -231 -45q-70 -25 -82 4l-82 160q-25 45 24 74q276 141 277 329q0 39 -12 82h-183q-45 0 -37 43l13 74q8 41 47 41h108q-33 94 -32 156q0 245 181 377t425 132t366 -94t121 -248q0 -154 -71 -155h-209q-41 0 -41 28l14 84q0 49 -48 79t-156 30z" />
    <glyph glyph-name="yen.tab" unicode="&#xe033;" horiz-adv-x="1325" 
d="M696 0h-231q-63 0 -51 59l47 271h-318q-45 0 -34 43l10 71q8 41 49 41h321l5 35l-41 113h-256q-45 0 -35 43l12 72q6 41 49 40h178l-213 584q-10 30 6 52t46 22h243q57 0 74 -55l162 -578h8l367 578q29 55 84 55h243q31 0 40 -23t-11 -51l-416 -584h176q43 0 37 -40
l-12 -72q-10 -43 -49 -43h-258l-82 -113l-4 -35h315q43 0 37 -41l-12 -71q-10 -43 -49 -43h-320l-47 -271q-12 -59 -70 -59z" />
    <glyph glyph-name="Euro.tab" unicode="&#xe034;" horiz-adv-x="1325" 
d="M104 659h105q11 85 22 127h-102q-41 0 -35 43l12 74q8 43 48 43h122q94 250 280 387t444 137q256 0 403 -102q45 -33 16 -76l-96 -149q-33 -53 -88 -29q-98 49 -217 49q-258 0 -375 -217h475q23 0 30 -14t-7 -35l-41 -72q-23 -39 -66 -39h-446q-21 -103 -21 -127h369
q23 0 29 -14t-7 -35l-43 -71q-20 -39 -63 -39h-285q16 -100 91 -158t203 -59q128 0 243 51q63 23 78 -31l41 -149q14 -41 -41 -76q-180 -100 -396 -101q-266 1 -425 141t-164 382h-117q-43 0 -37 43l12 73q8 43 49 43z" />
    <glyph glyph-name="zero.tab" unicode="&#xe035;" horiz-adv-x="1325" 
d="M631 274q127 0 208 111t122 338q18 111 18 190q0 258 -197 258q-250 0 -327 -448q-18 -111 -19 -193q0 -256 195 -256zM819 1470q238 0 374 -138t136 -400q0 -82 -20 -209q-66 -371 -250 -558t-465 -188q-238 -1 -374 137t-136 400q0 84 20 211q66 371 250 558t465 187z
" />
    <glyph glyph-name="one.tab" unicode="&#xe036;" horiz-adv-x="1325" 
d="M836 1446h229q59 0 51 -60l-233 -1327q-12 -59 -68 -59h-225q-65 0 -53 59l182 1031l-248 -134q-49 -25 -72 11l-75 133q-23 41 20 65l401 254q39 27 91 27z" />
    <glyph glyph-name="two.tab" unicode="&#xe037;" horiz-adv-x="1325" 
d="M532 956q0 -78 -57 -77h-209q-51 0 -51 82q0 241 169 375t419 134t373 -108t122 -270q0 -432 -712 -811h526q63 0 53 -60l-28 -162q-10 -59 -68 -59h-971q-63 0 -51 59l23 134q6 43 59 71q431 228 625 415q80 77 136 173t56 188q0 150 -178 150q-116 0 -176 -64t-60 -170
z" />
    <glyph glyph-name="three.tab" unicode="&#xe038;" horiz-adv-x="1325" 
d="M524 872h156q104 0 173 48t69 141q0 131 -197 131q-168 0 -342 -66q-59 -23 -72 33l-30 139q-12 51 49 76q221 94 482 94t391 -143q69 -77 69 -197t-73 -216t-198 -144q82 -25 136 -98q53 -74 53 -194t-52 -222q-91 -179 -343 -246q-109 -29 -236 -28q-291 0 -475 96
q-51 25 -23 76l82 145q31 55 84 33q143 -70 299 -70q324 0 324 219q0 133 -205 133h-166q-61 0 -49 60l25 141q12 59 69 59z" />
    <glyph glyph-name="four.tab" unicode="&#xe039;" horiz-adv-x="1325" 
d="M868 1090l-524 -527h432zM963 0h-224q-63 0 -51 59l41 228h-666q-57 0 -49 61l29 156q6 43 37 74l827 835q29 33 72 33h233q59 0 52 -60l-146 -823h152q59 0 51 -59l-27 -156q-12 -61 -69 -61h-154l-41 -228q-12 -59 -67 -59z" />
    <glyph glyph-name="five.tab" unicode="&#xe03a;" horiz-adv-x="1325" 
d="M1219 555q1 -289 -187 -432t-479 -143t-471 98q-49 27 -21 78l80 141q33 59 84 33q151 -70 313 -70t249 65t87 191q0 156 -212 156q-88 0 -174 -24t-101 -24q-14 0 -39 9l-112 35q-37 10 -23 55q35 121 88 346t63 285t27 76q16 16 49 16h797q61 0 53 -60l-28 -161
q-8 -59 -72 -60h-580q-29 -131 -71 -284q104 35 229 34q225 0 338 -98t113 -262z" />
    <glyph glyph-name="six.tab" unicode="&#xe03b;" horiz-adv-x="1325" 
d="M440 475q0 -101 56 -159t175 -58q117 0 199 88t82 209q0 80 -54 130t-171 50t-202 -80t-85 -180zM901 1196q-340 0 -416 -362q147 143 353 143t316 -110t110 -283q0 -262 -184 -434t-446 -172q-261 0 -393 136q-132 138 -132 373q0 76 16 175q72 399 255 604t525 204
q193 0 316 -55q55 -20 32 -69l-61 -142q-25 -57 -84 -41q-106 33 -207 33z" />
    <glyph glyph-name="seven.tab" unicode="&#xe03c;" horiz-adv-x="1325" 
d="M307 1165q-59 0 -47 60l27 161q8 59 67 60h932q61 0 53 -60l-24 -137q-8 -41 -34 -64q-25 -23 -28 -28q-211 -243 -394 -537t-253 -563q-10 -33 -23 -45t-46 -12h-232q-65 0 -53 57q76 268 278 590q203 322 404 518h-627z" />
    <glyph glyph-name="eight.tab" unicode="&#xe03d;" horiz-adv-x="1325" 
d="M631 233q109 -1 187 55t79 156q0 144 -205 199q-287 -80 -286 -258q0 -70 58 -111t167 -41zM788 1225q-104 0 -170 -50t-65 -145q0 -127 174 -180q252 76 252 248q-1 127 -191 127zM590 -23q-252 -1 -391 97t-139 259t104 267q106 106 272 150q-98 32 -157 112t-59 178
t36 174q66 137 224 196q157 60 363 60q207 0 343 -89t135 -238q0 -149 -94 -249t-242 -144q111 -31 181 -112t69 -203q0 -340 -421 -434q-107 -24 -224 -24z" />
    </font>
</defs>
</svg>
